<svg
   width="32"
   height="32"
   viewBox="0 0 32 32"
   fill="currentColor"
   color="#000">
   <g
     transform="translate(-378)"><path
       d="m 395.21166,29.879739 c -0.2111,-0.0797 -1.8691,-0.76769 -3.6845,-1.52889 -1.8153,-0.76121 -4.3713,-1.82012 -5.6801,-2.35313 -1.3087,-0.53301 -2.525,-1.03648 -2.7029,-1.11884 -1.4673,-0.67942 -2.3184,-3.05327 -1.3944,-3.8889 0.1005,-0.0908 0.8217,-0.61121 1.6027,-1.15642 3.8805,-2.70895 8.4931,-5.95646 8.5835,-6.04337 0.083,-0.0798 -0.1069,-0.16879 -1.0362,-0.48505 -1.9284,-0.6563 -4.8239,-1.69985 -5.9197,-2.13351 -0.5739,-0.22713 -1.0523,-0.40413 -1.0631,-0.39335 -0.011,0.0108 0.016,0.58488 0.058,1.27578 0.045,0.73023 0.05,1.2755 0.01,1.30231 -0.038,0.0254 -0.733,0.50719 -1.5456,1.07072 -0.8126,0.56352 -1.4891,1.01256 -1.5034,0.99786 -0.055,-0.0567 -0.3609,-7.2650596 -0.3252,-7.6697696 0.078,-0.88876 0.5859,-1.45894 1.3479,-1.51371 0.4944,-0.0355 0.2743,-0.10618 3.6577,1.17421 5.9502,2.25179 9.1539,3.3493296 9.9064,3.3937496 1.1678,0.0689 1.0472,0.13188 5.9132,-3.0895596 2.3902,-1.58241 4.4287,-2.89793 4.53,-2.92336 0.4554,-0.11429 1.054,0.19303 1.299,0.66681 0.1703,0.32921 0.1688,14.9861396 0,15.3937696 -0.1315,0.31472 -2.0596,2.31316 -2.3341,2.41923 -0.2333,0.0901 -0.6718,-0.0464 -0.7763,-0.24173 -0.049,-0.0907 -0.076,-2.35918 -0.076,-6.25789 0,-4.95786 -0.019,-6.10838 -0.099,-6.07762 -0.054,0.0209 -1.1857,0.80717 -2.5139,1.74734 -1.3282,0.94017 -4.9365,3.48864 -8.0183,5.66328 -3.0819,2.17463 -5.6838,4.01559 -5.782,4.09102 l -0.1786,0.13715 0.2554,0.10631 c 0.1404,0.0585 1.896,0.67142 3.9014,1.36212 4.0227,1.38558 4.1997,1.42518 4.9125,1.09889 0.19,-0.087 1.483,-1.05093 2.8734,-2.14216 3.4424,-2.70182 3.3443,-2.70726 3.3437,0.18521 -8e-4,1.74613 -0.01,1.82503 -0.1728,2.09345 -0.199,0.3222 -5.1739,4.46004 -5.6965,4.73812 -0.4704,0.25025 -1.1815,0.29228 -1.6911,0.0999 z m -0.3283,-21.0969496 c -0.2171,-0.0295 -2.6422,-0.86721 -7.9206,-2.73586 -1.5269,-0.54057 -1.7217,-0.69026 -1.4211,-1.09207 0.1323,-0.17694 4.7321,-1.98088 7.2521,-2.84416 0.6374,-0.21837 1.1051,-0.15592 4.2984,0.57403 1.6676,0.38118 3.5674,0.81513 4.2218,0.96433 0.6543,0.14919 1.264,0.2889 1.3548,0.31043 0.1934,0.0459 0.3381,0.39632 0.2545,0.61617 -0.063,0.16664 -6.1742,3.89098 -6.6731,4.06699 -0.3408,0.12025 -1.0093,0.18879 -1.3668,0.14014 z" /></g></svg>
