<svg
   width="32"
   height="32"
   viewBox="0 0 32 32"
   fill="currentColor"
   color="#000">
   <g
     transform="translate(-252)"><path
       
       d="m 254.00097,2.08594 v 27.82812 h 27.99805 V 2.08594 Z m 2.3457,2.33203 h 23.30665 v 23.16406 h -23.30665 z m 5.45313,4.97461 c -0.12484,0 -0.12804,0.0664 -0.11719,0.18945 0.0398,0.44688 0.0181,0.69574 -0.0742,1.04492 l -3.44922,11.79297 2.59766,-0.004 0.80859,-3.22461 3.69141,0.002 0.97461,3.22461 h 2.74023 L 265.08105,9.44141 c -0.007,-0.0235 -0.0245,-0.0391 -0.0625,-0.0391 z m 1.61719,2.24023 1.37304,5.22266 h -2.66601 z m 10.34179,0.875 c -4.07081,-0.0235 -4.84096,5.12478 -3.45508,8.09375 0.43603,0.93357 1.31024,1.52635 2.3379,1.8086 0.46859,0.12845 0.96773,0.1935 1.4707,0.19531 0.99509,0.004 2.00601,-0.23605 2.81836,-0.69922 0.0127,-0.007 0.0334,-0.007 0.0352,-0.0215 v -0.0586 -1.67773 c 0,-0.076 -0.0596,-0.11892 -0.14649,-0.0918 -1.02765,0.30939 -4.50694,1.29731 -4.66797,-1.81641 -0.002,-0.0235 -0.008,-0.0937 0.0156,-0.0937 l 5.02735,0.006 c 0.31662,-0.40527 0.37428,-1.16665 0.36523,-1.66601 -0.0344,-2.02636 -1.37639,-3.96585 -3.80078,-3.97852 z m -0.0312,1.82032 c 0.87568,-0.004 1.4338,0.6056 1.46094,2.10546 v 0.0312 h -0.50195 -2.56055 c 0.0127,-1.36054 0.63723,-2.1331 1.60156,-2.13671 z" /></g></svg>
