<svg
   width="32"
   height="32.000004"
   viewBox="0 0 32 32.000004"
   fill="currentColor"
   color="#000">
   <g
     transform="translate(-420,-45.299023)"><path
       d="m 429.05892,75.085929 c 0.0443,-0.15054 0.51753,-1.61071 1.05152,-3.24482 0.53399,-1.63412 0.9709,-3.02591 0.9709,-3.09286 0,-0.16723 -0.51938,-0.15266 -1.13216,0.0318 -0.28054,0.0844 -0.51007,0.13772 -0.51007,0.11842 0,-0.078 0.78872,-0.5158 1.05991,-0.58833 0.28958,-0.0775 0.28899,-0.0786 -0.19314,-0.3661 l -0.48359,-0.28842 0.62953,0.0628 c 0.37219,0.0371 0.62952,0.02 0.62952,-0.042 0,-0.31249 -0.36963,-1.26601 -0.70963,-1.83063 -0.21391,-0.35525 -0.37107,-0.66376 -0.34924,-0.68559 0.0219,-0.0219 0.269,0.16216 0.54928,0.40886 0.28027,0.24671 0.50959,0.40001 0.50959,0.34065 0,-0.0593 0.0962,-0.66705 0.21371,-1.35045 0.51373,-2.98699 1.78546,-6.13834 3.94056,-9.76467 2.14768,-3.61385 5.04742,-7.23975 5.97629,-7.47288 0.64208,-0.16115 1.44115,0.55651 1.7064,1.53257 0.14879,0.5475 0.0575,1.81505 -0.1832,2.54571 -0.26535,0.80526 -1.0701,2.41564 -1.60558,3.21292 -0.28528,0.42477 -0.69067,0.85506 -1.00565,1.06744 -0.59118,0.39862 -0.47412,0.46212 0.2479,0.1345 l 0.47716,-0.21652 -0.0725,0.30103 c -0.24995,1.03722 -1.06592,2.26442 -1.74043,2.61757 -0.49118,0.25715 -0.25512,0.297 0.26649,0.045 0.57623,-0.2784 0.57285,-0.27842 0.42276,0.002 -0.19434,0.36314 -0.89512,1.10153 -1.25386,1.32116 -0.35459,0.2171 -0.24197,0.26767 0.21184,0.0952 0.38146,-0.14504 0.36885,-0.0588 -0.19256,1.31528 -1.03274,2.52779 -2.44817,4.05202 -4.38411,4.72113 l -0.56185,0.19419 0.71164,0.003 c 0.74639,0.003 1.64653,-0.31459 1.95671,-0.68957 0.31482,-0.38058 0.33822,-0.16044 0.0302,0.28366 -0.42,0.60546 -0.83166,0.9864 -1.43945,1.33204 -0.46254,0.26304 -0.47393,0.28026 -0.18616,0.2815 0.16858,7e-4 0.45861,-0.0773 0.64449,-0.17346 l 0.33797,-0.17478 -0.24593,0.34539 c -0.50936,0.71533 -1.61224,1.20847 -2.70267,1.20847 -0.32161,0 -0.58474,0.0235 -0.58474,0.0521 0,0.0287 0.0984,0.21339 0.21855,0.41055 0.3261,0.53487 0.26578,0.58748 -0.1582,0.13794 l -0.37755,-0.40034 0.6448,-1.78541 c 2.47089,-6.84177 4.97141,-12.23225 7.40697,-15.96758 0.91382,-1.40149 0.71964,-1.27564 -0.26589,0.17233 -3.04966,4.48063 -6.53073,12.42115 -9.44331,21.54071 -0.39003,1.22123 -0.77426,2.2286 -0.89779,2.35386 -0.21568,0.21867 -0.21586,0.2186 -0.13534,-0.0547 z" /></g></svg>
