<svg
   width="32"
   height="32"
   viewBox="0 0 32 32"
   fill="currentColor"
   color="#000">
   <g
     transform="translate(-252,-45.299026)"><path
       d="m 266.84374,75.238333 c -4.38036,-0.35938 -7.61852,-2.08575 -10.09358,-5.38106 -1.96774,-2.61993 -2.74353,-4.93597 -2.73877,-8.17667 0,-2.53338 0.41523,-4.49445 1.33095,-6.33939 1.40228,-2.8255 3.40948,-4.98019 5.91893,-6.35346 1.30132,-0.71217 3.54895,-1.43415 5.08625,-1.63382 0.51999,-0.0675 2.45081,-0.0745 2.93308,-0.0111 0.22077,0.0293 0.31697,0.0709 0.31697,0.13709 0,0.0773 -0.15532,0.10381 -0.82412,0.14185 -1.98708,0.11252 -4.25817,0.59365 -5.72732,1.21331 -0.85424,0.36028 -0.83395,0.33754 -0.83395,0.93363 0,0.68404 0.35627,3.54353 0.44154,3.54353 0.0206,0 0.3997,-0.12726 0.84092,-0.28289 1.14917,-0.4053 2.47933,-0.75701 3.50378,-0.92644 0.48813,-0.0807 0.90986,-0.16492 0.93712,-0.18708 0.0682,-0.0555 -0.85978,-0.93254 -1.66615,-1.57505 -0.87912,-0.70042 -1.04362,-0.99696 -0.75613,-1.36248 0.0919,-0.11775 0.19081,-0.16704 0.33282,-0.1671 0.11094,-4e-5 0.41539,-0.0445 0.67689,-0.0989 0.65264,-0.13566 3.00566,-0.1936 3.93073,-0.0967 3.11122,0.32575 5.95982,1.64844 8.05689,3.74104 0.74868,0.74704 1.04061,1.12266 1.62938,2.09676 1.47375,2.43782 2.05238,4.97494 1.78581,7.82914 -0.43108,4.61538 -3.1548,9.17389 -6.73893,11.27876 -1.4205,0.83423 -3.43706,1.49537 -5.12714,1.68106 -0.70462,0.0773 -2.24509,0.0753 -3.21597,-0.005 z m 3.68699,-1.09021 c 0.30397,-0.0444 0.57054,-0.0986 0.59241,-0.12045 0.0222,-0.0219 -0.19874,-0.33418 -0.49019,-0.69402 -0.29145,-0.35984 -0.79845,-1.03936 -1.12651,-1.51006 -0.3279,-0.4707 -0.60335,-0.86533 -0.61191,-0.87696 -0.0713,-0.0976 -2.76413,1.50538 -2.99425,1.78257 -0.0666,0.081 0,0.15722 0.41428,0.4963 0.27148,0.22036 0.70763,0.55273 0.96913,0.73862 l 0.47546,0.33797 1.10939,-0.0366 c 0.61017,-0.0201 1.35805,-0.0729 1.66219,-0.11728 z m -4.00776,0.0563 c 0,-0.0479 -1.24379,-0.85926 -1.31717,-0.85926 -0.0999,0 -0.53885,0.55424 -0.49479,0.62554 0.0682,0.11126 1.81196,0.33609 1.81196,0.23372 z m 6.37441,-0.67367 c 0.7658,-0.31873 1.50196,-0.68524 1.56678,-0.78006 0.0555,-0.0824 -0.0159,-2.96726 -0.0729,-3.02749 -0.0745,-0.075 -1.62083,0.0785 -2.41705,0.23984 -0.80495,0.16317 -1.9481,0.49583 -2.05634,0.59837 -0.0682,0.0637 0.41015,0.79206 1.17294,1.7891 0.50462,0.65954 1.13729,1.43841 1.16835,1.43841 0.0159,0 0.29637,-0.11617 0.63759,-0.25817 z m -8.81492,-0.28917 0.35675,-0.42056 -0.24185,-0.19723 c -0.91176,-0.74352 -2.60913,-2.4423 -3.25385,-3.25659 -0.14422,-0.18305 -0.29256,-0.33282 -0.32806,-0.33282 -0.0349,0 -0.21142,0.13249 -0.39083,0.29443 -0.17956,0.16194 -0.41808,0.3331 -0.53029,0.38036 -0.226,0.0953 -0.90542,0.11792 -0.90542,0.0303 0,-0.19641 0.25453,-0.57597 0.66564,-0.99237 0.2615,-0.26494 0.47545,-0.4966 0.47545,-0.51481 0,-0.0182 -0.14422,-0.25169 -0.31982,-0.51886 -0.4501,-0.68367 -1.1319,-2.04853 -1.51718,-3.03736 -0.18003,-0.46198 -0.34343,-0.83997 -0.36308,-0.83997 -0.019,0 -0.2848,0.18543 -0.58925,0.41206 -0.6154,0.45823 -0.80162,0.50374 -1.04885,0.25646 -0.19763,-0.19761 -0.20667,-0.52314 -0.0206,-0.75906 0.0745,-0.0941 0.35564,-0.32597 0.62586,-0.51532 0.27022,-0.18935 0.52728,-0.38754 0.57102,-0.44041 0.065,-0.0788 0.038,-0.24253 -0.15056,-0.90376 -0.32854,-1.15031 -0.66706,-2.63707 -0.71445,-3.13733 -0.0222,-0.23535 -0.0507,-0.42791 -0.0618,-0.42791 -0.0159,0 -0.22473,0.1569 -0.47292,0.34867 -0.339,0.26185 -0.50366,0.34866 -0.66151,0.34866 h -0.21031 l -0.046,0.42657 c -0.0729,0.68186 0.0159,2.6882 0.16165,3.65404 0.1596,1.05652 0.48449,2.35578 0.78133,3.12425 1.0815,2.80028 3.19601,5.19836 5.837,6.61988 0.49986,0.26903 1.77867,0.81306 1.92083,0.81711 0.0412,10e-4 0.23583,-0.1871 0.43203,-0.41841 z m 11.80711,-1.30693 c 1.01446,-0.69445 2.28361,-1.87231 2.12401,-1.97101 -0.14897,-0.0922 -1.16201,-0.22385 -1.85443,-0.24095 l -0.7921,-0.0195 -0.0761,0.69576 c -0.0872,0.811 -0.10618,1.93195 -0.0317,1.93195 0.0285,0 0.3119,-0.1783 0.63029,-0.39621 z m -9.1582,-0.85997 c 0.37625,-0.24787 0.88229,-0.55872 1.12493,-0.69079 0.24248,-0.13202 0.44106,-0.26136 0.44122,-0.28731 3.2e-4,-0.026 -0.2512,-0.43961 -0.55866,-0.91922 -0.88054,-1.37304 -1.44031,-2.3065 -1.72685,-2.87905 -0.14581,-0.2908 -0.27275,-0.53786 -0.28274,-0.54905 -0.038,-0.0425 -1.485,0.69131 -2.12765,1.079 -0.89211,0.53802 -2.08677,1.4394 -2.08677,1.57437 0,0.16067 1.93557,2.25672 2.87348,3.11164 l 0.7498,0.68346 0.45469,-0.33619 c 0.25009,-0.1849 0.76247,-0.53899 1.13855,-0.78686 z m 2.80154,-1.43346 c 0.8975,-0.37499 3.41091,-0.86042 4.45484,-0.86042 h 0.4062 l -0.0412,-0.42791 c -0.13312,-1.40182 -0.41475,-3.08344 -0.68687,-4.10475 l -0.084,-0.31697 -1.00954,0.008 c -1.77044,0.0143 -3.69571,0.42335 -5.39958,1.14764 -0.28765,0.12235 -0.523,0.24966 -0.523,0.28307 0,0.18535 2.53085,4.35177 2.64876,4.36047 0.0159,7.1e-4 0.11569,-0.0395 0.2344,-0.0892 z m 9.16216,-0.44154 c 0.14263,-0.18801 0.28305,-0.42919 0.31364,-0.53595 0.0951,-0.3296 0.14897,-1.84728 0.0998,-2.81903 l -0.046,-0.92481 -0.48496,-0.16 c -0.77911,-0.25714 -1.99849,-0.53422 -3.0036,-0.68255 -0.51365,-0.0757 -0.94774,-0.12409 -0.96438,-0.10729 -0.0174,0.0168 0.0159,0.18604 0.0618,0.37619 0.1569,0.59085 0.41444,2.23598 0.52823,3.37601 l 0.10935,1.09031 0.18781,0.0198 c 0.35056,0.0369 1.4552,0.26808 1.58262,0.33127 0.16705,0.0827 1.11082,0.36334 1.24997,0.37157 0.0618,0.003 0.21998,-0.14058 0.36705,-0.33542 z m 1.1945,-2.24503 c 0.3737,-0.95914 0.78117,-2.42669 0.96517,-3.4763 0.18717,-1.06756 0.18733,-2.72348 4.7e-4,-3.85796 -0.36007,-2.18559 -1.0387,-3.8737 -2.02385,-5.03451 -0.24073,-0.28369 -0.40191,-0.39548 -0.92729,-0.64337 -0.34962,-0.16503 -0.74995,-0.33502 -0.88942,-0.37778 -0.13946,-0.0428 -0.40746,-0.13186 -0.59558,-0.19795 -0.18812,-0.0661 -0.35311,-0.10919 -0.36658,-0.0957 -0.0159,0.0143 0.19335,0.33502 0.45945,0.71454 0.88561,1.26273 1.41543,2.26385 2.00055,3.77966 0.21221,0.54994 0.21649,0.55527 0.59416,0.75545 0.2092,0.11094 0.39463,0.22162 0.41206,0.24611 0.0174,0.0246 0.18289,0.13725 0.36769,0.25044 0.22013,0.13487 0.32917,0.24162 0.31586,0.30942 -0.0285,0.14644 -0.4463,0.14597 -0.84203,-7.3e-4 -0.38385,-0.14232 -0.37149,-0.14184 -0.32236,-0.0143 0.0222,0.0572 0.11094,0.4532 0.19716,0.87997 0.19889,0.98289 0.35516,2.44372 0.36483,3.41089 0,0.73654 0.0159,0.75125 0.16926,0.83349 0.0888,0.046 0.21649,0.1439 0.28321,0.21765 0.12045,0.13233 0.11886,0.13582 -0.0238,0.28839 -0.0792,0.085 -0.20571,0.1631 -0.27989,0.17367 -0.12837,0.0184 -0.13629,0.0628 -0.17623,1.03353 -0.0222,0.55786 -0.0586,1.1498 -0.0808,1.31542 -0.0682,0.51368 0.0666,0.3408 0.39875,-0.51073 z m -18.70057,0.31693 c 0.83902,-0.68845 2.67744,-1.87287 3.61076,-2.32611 0.21538,-0.1046 0.39177,-0.22348 0.39177,-0.26416 0,-0.0407 -0.0586,-0.21186 -0.13154,-0.38036 -0.21886,-0.50646 -0.78529,-2.02013 -1.13459,-3.03232 -0.18051,-0.523 -0.35088,-0.97443 -0.37846,-1.00316 -0.10143,-0.10635 -1.65316,0.74329 -3.109,1.70295 -1.14346,0.7537 -1.64824,1.14386 -1.64824,1.2738 0,0.15674 0.56262,1.52833 1.01446,2.47316 0.40224,0.84106 0.96185,1.79755 1.05155,1.79755 0.0222,0 0.17243,-0.10857 0.33409,-0.24135 z m 5.5392,-3.20576 c 1.77725,-0.72619 3.51614,-1.09454 5.48437,-1.16171 0.60145,-0.0206 1.09354,-0.0567 1.09354,-0.0803 0,-0.0236 -0.19747,-0.68282 -0.43868,-1.46473 -0.43568,-1.41152 -1.07865,-3.1862 -1.19751,-3.30506 -0.16071,-0.16069 -2.72515,0.21288 -4.20191,0.61208 -1.28959,0.34861 -2.98823,1.02153 -3.02484,1.19826 -0.0571,0.27301 1.54554,4.41556 1.70751,4.41556 0.0301,0 0.28956,-0.0964 0.57752,-0.21402 z m 12.31442,-0.43577 c -0.17908,-1.83728 -0.46467,-3.45799 -0.74963,-4.25398 l -0.13788,-0.38346 -0.72903,-0.23571 c -0.90622,-0.29302 -2.05428,-0.53741 -3.09853,-0.65955 -0.74504,-0.0872 -1.59262,-0.12425 -1.59262,-0.0697 0,0.0127 0.0682,0.17714 0.15056,0.36452 0.22315,0.50658 0.8265,2.37675 1.13428,3.51567 l 0.27021,1.00053 0.95028,0.14691 c 1.14014,0.17625 2.62181,0.53383 3.2323,0.78 0.6295,0.25383 0.61523,0.25896 0.56991,-0.20521 z m -19.70218,-2.16284 c 1.17643,-0.77193 2.31641,-1.44091 3.27128,-1.91979 0.54107,-0.27139 0.67832,-0.36656 0.65201,-0.45233 -0.28971,-0.9495 -0.87944,-3.34097 -0.99988,-4.05491 -0.0507,-0.29786 -0.10619,-0.45961 -0.16071,-0.45961 -0.11252,0 -1.32968,0.61399 -2.02353,1.02055 -0.96802,0.56726 -2.87555,1.92915 -2.87555,2.05301 0,0.087 0.35786,1.79481 0.51175,2.44171 0.17925,0.75443 0.55755,2.0286 0.60208,2.0286 0.0159,0 0.47165,-0.29574 1.02255,-0.65723 z m 5.76488,-2.99021 c 1.86806,-0.71914 3.64832,-1.14572 5.80767,-1.39167 0.20049,-0.0228 0.36452,-0.0724 0.36452,-0.11015 0,-0.0377 -0.19748,-0.47072 -0.43869,-0.96219 -0.43583,-0.88794 -1.23412,-2.16397 -1.7801,-2.84541 -0.25262,-0.31528 -0.31221,-0.35643 -0.52078,-0.35909 -0.84124,-0.0111 -3.17302,0.51268 -4.64582,1.04281 -0.45327,0.16315 -0.87404,0.31171 -0.93506,0.33014 -0.0618,0.0187 -0.11094,0.0952 -0.11094,0.17323 0,0.57373 1.11526,4.47324 1.27945,4.47324 0.038,0 0.4783,-0.15785 0.97975,-0.35096 z m -9.88438,0.14295 c 0.0365,-0.0796 0.28417,-0.42366 0.55074,-0.76469 l 0.48464,-0.62002 -0.0428,-0.77261 c -0.0602,-1.09822 -0.0872,-1.13468 -0.37069,-0.51904 -0.4062,0.87959 -0.79449,2.19929 -0.79449,2.69982 0,0.16522 0.0919,0.15262 0.17228,-0.0235 z m 22.55016,-0.7587 c -0.31348,-1.00614 -1.57026,-3.20405 -2.43749,-4.26324 -0.53917,-0.65839 -0.51635,-0.64546 -1.33032,-0.755 -1.33841,-0.18012 -4.05705,-0.30987 -4.05705,-0.19362 0,0.0187 0.26657,0.43946 0.59241,0.93506 0.62919,0.95694 1.11478,1.8418 1.56409,2.85044 l 0.27528,0.61809 h 0.36309 c 0.88039,0 3.24339,0.40696 4.37117,0.7528 0.74615,0.22882 0.71207,0.22594 0.65882,0.0555 z m -20.21362,-1.67185 c 0.93031,-0.72582 2.61136,-1.74673 3.82202,-2.32109 l 0.65708,-0.31174 -0.0396,-0.24763 c -0.10143,-0.63274 -0.22632,-1.95236 -0.26578,-2.80295 -0.0238,-0.51515 -0.065,-0.94989 -0.0903,-0.9661 -0.0666,-0.0409 -0.94694,0.54212 -1.52002,1.00591 -0.97231,0.7869 -2.8185,2.79523 -3.14957,3.42611 -0.084,0.15975 -0.0872,0.32104 -0.0238,1.23618 0.0745,1.07763 0.10301,1.27435 0.18717,1.27435 0.0269,0 0.21712,-0.13186 0.42363,-0.29304 z m 20.02566,-3.27287 c -1.74523,-1.97044 -5.27421,-3.53999 -8.65121,-3.84771 -0.87927,-0.0802 -2.47236,-0.0883 -2.47236,-0.0127 0,0.0298 0.27053,0.26031 0.60113,0.51211 0.37403,0.28485 0.90083,0.78783 1.39435,1.33137 l 0.79322,0.87357 1.47422,0.0372 c 1.29324,0.0326 2.24161,0.11681 3.06954,0.2721 l 0.242,0.0453 -0.20555,-0.234 c -0.23472,-0.26744 -0.26309,-0.45631 -0.0777,-0.51528 0.15848,-0.0501 0.57197,0.17298 1.07262,0.57828 0.27767,0.22481 0.52728,0.35025 1.05773,0.53165 0.38195,0.13059 0.9357,0.33735 1.23079,0.45951 0.29494,0.12219 0.5753,0.2256 0.62301,0.2299 0.0475,0.005 -0.0206,-0.11348 -0.15215,-0.26163 z" /></g></svg>
