<svg
   width="32"
   height="32"
   viewBox="0 0 32 32"
   fill="currentColor"
   color="#000">
   <g
     transform="translate(-1008,-45.299026)"><path
       d="m 1024.012,47.299719 c -6.1961,-2.8e-4 -10.8954,3.75945 -12.915,8.61068 -2.0196,4.85124 -1.3773,10.83541 2.9877,15.23208 4.365,4.39666 10.3435,5.08269 15.2092,3.09825 4.8657,-1.98446 8.6614,-6.6562 8.706,-12.85219 a 0.55467541,0.55467541 0 0 0 0,-0.002 c 0.028,-7.74544 -6.2405,-14.05894 -13.986,-14.08692 z m 0,1.10897 c 7.146,0.0258 12.9048,5.82818 12.8789,12.97413 -0.042,5.7486 -3.5226,9.999 -8.0143,11.83087 -4.4921,1.8321 -9.9526,1.22743 -14.003,-2.85244 -4.0505,-4.07986 -4.6141,-9.54526 -2.7496,-14.02404 1.8643,-4.47823 6.1393,-7.928 11.888,-7.92852 z m -5.3542,8.26579 c -2.7995,-0.0229 -5.3391,2.01537 -5.3391,5.11611 v -0.004 c 0,5.21743 7.1738,7.16131 10.7181,1.84828 3.6731,5.50913 10.56,3.19954 10.56,-1.85399 0,-5.05352 -6.8566,-7.48822 -10.5638,-1.84446 -1.4268,-2.26662 -3.4637,-3.24645 -5.3791,-3.26211 z m -0.1715,1.82731 c 1.5698,-0.01 3.3557,0.96279 4.5159,3.28498 -2.5249,4.76964 -7.7971,3.76478 -7.7971,0 0,-2.00055 1.502,-3.27377 3.2812,-3.28498 z m 10.962,0 c 1.7787,0.039 3.3185,1.3444 3.3097,3.2926 -0.017,3.66723 -5.516,4.81177 -7.6808,-0.008 1.0454,-2.36792 2.8016,-3.31941 4.3711,-3.28498 z m -0.7832,1.63297 v 1.04227 h -1.0423 v 1.10515 h 1.0423 v 1.04228 h 1.1051 v -1.04228 h 1.0423 v -1.10515 h -1.0423 v -1.04227 z m -11.4593,1.1223 v 1.04228 h 3.1573 v -1.04228 z" /></g></svg>
