<svg
   width="32"
   height="32"
   viewBox="0 0 32 32"
   fill="currentColor"
   color="#000">
   <g
     transform="translate(-336)"><path
       
       d="M 338,2.0849605 V 29.915039 h 28 V 2.0849605 Z m 2.3457,2.332032 h 23.30664 V 27.583007 H 340.3457 Z m 5.83399,4.929687 c -0.12666,0 -0.13,0.06837 -0.11914,0.191406 0.0398,0.450533 0.0179,0.6999085 -0.0762,1.0527355 l -3.42774,11.718749 c -0.0362,0.110371 -0.0274,0.166015 0.11914,0.166015 l 2.21094,-0.002 c 0.23341,-0.0072 0.2473,-0.06809 0.28711,-0.1875 l 0.76758,-3.060547 3.72265,0.002 0.91407,3.027343 c 0.0489,0.177319 0.14092,0.222512 0.26757,0.220703 h 2.34375 c 0.18094,0 0.19302,-0.0526 0.16407,-0.173828 L 349.48435,9.3974595 c -0.007,-0.02533 -0.0244,-0.04102 -0.0605,-0.04102 z m 1.6289,2.2578125 1.38282,5.263672 h -2.68555 z m 11.33203,1.490235 c -0.21531,0.0018 -0.27343,0.07564 -0.27343,0.265625 l -0.0117,6.359374 c -0.002,0.562713 -2.36455,1.435916 -2.42969,-0.427734 l 0.01,-5.90625 c 0.002,-0.197224 -0.0252,-0.268038 -0.19531,-0.273437 l -2.11133,-0.0039 c -0.1737,0 -0.19531,0.04353 -0.19531,0.222657 l 0.0176,5.677734 c -0.0887,1.807558 0.3767,3.626298 2.70898,3.642578 0.86669,0.0054 1.76697,-0.351925 2.39844,-0.921875 l 0.0215,-0.01758 c 0.002,0.443296 0.0426,0.751954 0.5293,0.751954 h 1.60351 c 0.43606,0 0.15805,-0.567996 0.15625,-1.423828 l -0.0156,-7.632812 c 0,-0.193602 -0.0152,-0.314147 -0.23047,-0.310547 z" /></g></svg>
