<svg
   width="32"
   height="32"
   viewBox="0 0 32 32"
   fill="currentColor"
   color="#000">
   <g
     transform="translate(-1050)"><path
       d="m 1067.9926,2.142525 a 14,14 0 0 0 -15.9922,13.85742 14,14 0 0 0 14,14 14,14 0 0 0 1.9922,-27.85742 z m -1.9922,2.64648 a 11.211,11.211 0 0 1 11.2109,11.21094 11.211,11.211 0 1 1 -11.2109,-11.21094 z m 0.3906,4.96484 a 2.36,2.36 0 0 0 -1.4746,0.3418 3.543,3.543 0 0 0 -0.8125,0.79883 l -6.5703,9.25976 h 3.7519 l 4.8086,-6.79882 1.8379,2.70898 c 0.1734,0.24533 0.3556,0.5084 0.5449,0.78906 0.1894,0.28067 0.356,0.51518 0.5,0.70117 -0.2453,-0.0207 -0.5339,-0.0312 -0.8652,-0.0312 h -3.5312 l -1.9141,2.63281 11.9102,-0.002 -6.4004,-9.26367 a 3.131,3.131 0 0 0 -0.8184,-0.81836 2.36,2.36 0 0 0 -0.9668,-0.31836 z" /></g></svg>
