<svg
   width="32"
   height="32"
   viewBox="0 0 32 32"
   fill="currentColor"
   color="#000">
   <g
     transform="translate(-462)"><path
       d="m 476.35361,29.969091 c -0.084,-0.02 -0.4951,-0.0917 -0.9141,-0.15918 -5.4719,-0.88193 -10.1677,-5.55039 -11.2869,-11.22117 -0.1885,-0.95513 -0.1885,-4.22521 0,-5.18034 1.1168,-5.6590302 5.577,-10.1192302 11.2361,-11.2361102 2.4197,-0.47757 7.1493,0.0995 7.9693,0.9724 0.3731,0.39712 0.3865,1.09699 0.033,1.73138 -0.4882,0.87663 -1.4017,1.21258 -5.7792,2.12541 -3.4257,0.71436 -5.8916,1.83963 -7.9936,3.6477802 -3.9582,3.40492 -4.645,9.00367 -1.6002,13.04448 4.444,5.89764 12.5624,5.6351 16.5154,-0.53411 1.357,-2.11774 2.069,-4.24599 2.6408,-7.89381 0.5215,-3.32614 0.8618,-4.37578 1.6405,-5.05945 0.8607,-0.7557202 1.6906,-0.6109902 2.1247,0.37054 1.2597,2.84844 1.3973,6.76816 0.3475,9.90155 -1.5581,4.65046 -5.505,8.16729 -10.4234,9.28755 -0.6406,0.14591 -4.0978,0.30157 -4.5101,0.20308 z m -1.5905,-3.144 c -3.2259,-0.61495 -5.3393,-2.21354 -6.6867,-5.05791 -2.0184,-4.26079 -0.7081,-8.55091 3.4524,-11.30381 2.0123,-1.3314602 3.8379,-2.0312102 7.0139,-2.6883002 4.0246,-0.83263 5.0797,-1.24312 5.5791,-2.17039 l 0.1925,-0.35739 0.4651,0.23569 c 1.2042,0.61024 2.7058,2.08005 3.3164,3.24638 l 0.2866,0.5474 -0.4242,0.41173 c -0.8583,0.8329502 -1.2407,2.0184402 -1.7992,5.5773302 -0.4902,3.12396 -0.7333,4.00999 -1.5529,5.65915 -2.1763,4.37897 -5.9515,6.64193 -9.843,5.90012 z" /></g></svg>
