<svg
   width="32"
   height="32"
   viewBox="0 0 32 32"
   fill="currentColor"
   color="#000">
   <g
     transform="translate(-1092,-45.299026)"><path
       d="m 1095.6563,47.299026 2.2461,25.20117 10.084,2.79883 10.1093,-2.80274 2.2481,-25.19726 z m 4.6133,4.93554 h 7.7421 7.7383 l -0.074,0.82813 -0.7578,8.51758 v 0 l -0.5254,5.87695 -0.047,0.52148 -6.3242,1.75196 v 0.002 l -0.012,0.002 v 0.002 l -6.33,-1.75796 -0.4336,-4.85351 h 3.1035 l 0.2207,2.46679 3.4414,0.92969 v 0 -0.002 l 0.012,-0.002 3.4355,-0.92773 0.3614,-4.00977 h -3.8164 -3.3985 l -0.062,-0.69336 -0.1386,-1.56836 -0.074,-0.82812 h 3.6738 4.0898 l 0.2832,-3.16602 h -4.3613 -7.4666 l -0.06,-0.69326 -0.1426,-1.56836 z" /></g></svg>
