<svg
   width="32"
   height="32"
   viewBox="0 0 32 32"
   fill="currentColor"
   color="#000">
   <g
     transform="translate(-1344,-45.299026)"><path
       
       d="m 1366.4919,67.316336 -2.1884,5.59314 -8.0672,-0.10747 -2.2318,-5.48795 c 1.9185,-3.42997 3.8667,-7.61454 4.8683,-11.27546 l 1.0633,0.11433 -0.041,9.8646 a 1.0244181,1.0244181 0 1 0 0.638,-0.0274 l 0.034,-9.77313 1.2164,-0.0549 c 0.8918,3.69065 2.8218,7.86149 4.7083,11.15884 z m -8.3304,-20.01731 h 4.2166 a 0.56251531,0.56251531 0 0 1 0.5625,0.5648 v 1.37199 h 6.6496 a 2.2866476,2.2866476 0 0 1 0.5419,-0.85978 v 0 a 2.2866476,2.2866476 0 0 1 3.2356,0 v 0 a 2.2866476,2.2866476 0 0 1 0,3.23561 v 0 a 2.2866476,2.2866476 0 0 1 -3.2401,0 l -0.041,-0.0457 a 2.2592078,2.2592078 0 0 1 -0.5008,-0.81633 h -3.43 a 12.530829,12.530829 0 0 1 2.9727,2.40327 13.322009,13.322009 0 0 1 3.2744,6.7639 h 0.9147 a 0.68599428,0.68599428 0 0 1 0.686,0.686 v 3.08926 a 0.68599428,0.68599428 0 0 1 -0.686,0.68599 h -3.0344 a 0.68599428,0.68599428 0 0 1 -0.686,-0.68599 v -3.08926 a 0.68599428,0.68599428 0 0 1 0.686,-0.686 h 0.7066 a 11.936301,11.936301 0 0 0 -2.888,-5.81266 10.813557,10.813557 0 0 0 -5.161,-3.18072 v 1.20735 a 0.56480196,0.56480196 0 0 1 -0.5625,0.5648 h -4.2166 a 0.56708861,0.56708861 0 0 1 -0.5534,-0.5648 v -1.20507 a 10.779257,10.779257 0 0 0 -5.2593,3.31107 12.05978,12.05978 0 0 0 -2.7828,5.68689 h 0.686 a 0.68599428,0.68599428 0 0 1 0.686,0.686 v 3.0824 a 0.68599428,0.68599428 0 0 1 -0.686,0.68599 h -3.0504 a 0.68599428,0.68599428 0 0 1 -0.686,-0.68599 v -3.08926 a 0.68599428,0.68599428 0 0 1 0.686,-0.686 h 0.9375 a 13.491221,13.491221 0 0 1 3.1533,-6.6107 12.475949,12.475949 0 0 1 3.1144,-2.54961 h -4.0062 a 2.2866476,2.2866476 0 0 1 -0.5419,0.85749 v 0 a 2.2866476,2.2866476 0 0 1 -3.2265,0.005 v 0 a 2.2866476,2.2866476 0 0 1 0,-3.23561 v 0 a 2.2866476,2.2866476 0 0 1 3.2356,0 v 0 a 2.2523479,2.2523479 0 0 1 0.5443,0.86207 h 7.196 v -1.37199 a 0.56480196,0.56480196 0 0 1 0.5534,-0.57395 z m 5.9454,28 h -7.825 v -1.55949 h 7.8295 v 1.55949 z" /></g></svg>
