<svg
   width="32"
   height="32"
   viewBox="0 0 32 32"
   fill="currentColor"
   color="#000">
   <g
     transform="translate(-420)"><path
       d="m 433.11305,6.94319 v 2.85944 h -5.7208 v 2.86139 h -2.8614 v 2.9239 h -2.4454 l -0.041,0.4336 a 8.3161809,8.3161809 0 0 0 0.6602,4.20712 l 0.2519,0.51954 0.029,0.0488 c 1.7651,2.99607 4.8624,4.25986 8.2405,4.25986 6.5381,0 11.9304,-2.91996 14.4104,-9.08808 a 4.1410901,4.1410901 0 0 0 4.1564,-1.98443 l 0.207,-0.4004 -0.3926,-0.22461 a 4.3750952,4.3750952 0 0 0 -3.3204,-0.3086 4.5580991,4.5580991 0 0 0 -1.7949,-2.89264 l -0.3575,-0.28907 -0.3007,0.34962 a 3.907085,3.907085 0 0 0 -0.6993,2.75201 3.584078,3.584078 0 0 0 0.67,1.84965 5.0911107,5.0911107 0 0 1 -0.9669,0.43555 6.2721364,6.2721364 0 0 1 -1.9863,0.334 h -1.4473 v -2.92585 h -2.8595 V 6.94316 Z m 0.459,0.47853 h 2.4805 v 2.48052 h -2.4805 z m -5.7091,2.85944 h 2.4805 v 2.47857 h -2.4766 z m 2.8614,0 h 2.4805 v 2.47857 h -2.4805 z m 2.8496,0 h 2.4806 v 2.47857 h -2.4806 z m -5.713,2.85943 h 2.4806 v 2.48053 h -2.4747 v -2.47858 z m 2.8595,0 h 2.4844 v 2.48053 h -2.4805 v -2.47858 z m 2.8555,0 h 2.4805 v 2.48053 h -2.4805 v -2.47858 z m 2.8555,0 h 2.4786 v 2.48053 h -2.4805 v -2.47858 z m -11.4279,0.002 h 2.4824 v 2.47858 h -2.4824 z m 5.1895,6.4982 a 0.68401488,0.68401488 0 1 1 -0.6856,0.6836 0.68401488,0.68401488 0 0 1 0.6856,-0.6836 z m -1.3223,1.83988 a 6.022131,6.022131 0 0 0 3.1407,3.08795 c -0.2587,0.009 -0.5199,0.0137 -0.7813,0.0137 a 9.0511969,9.0511969 0 0 1 -7.0001,-2.76768 c 0.466,0.0247 0.9107,0.0371 1.3321,0.0371 0.3633,0 0.7116,-0.0106 1.0449,-0.0293 a 10.329225,10.329225 0 0 0 2.2637,-0.3418 z" /></g></svg>
