<svg
   width="32"
   height="32"
   viewBox="0 0 32 32"
   fill="currentColor"
   color="#FFF"
   version="1.1"
   xmlns="http://www.w3.org/2000/svg"><path
     d="m 14.742674,29.950188 c -2.75503,-0.25739 -5.4093996,-1.33357 -7.5418,-3.05774 -0.62817,-0.50791 -1.63987,-1.52273 -2.1374,-2.144 -1.28577,-1.60555 -2.30572,-3.73103 -2.73275,-5.69482 -0.813,-3.73869 -0.11484,-7.55954 1.95928,-10.7226906 0.54501,-0.83117 1.02248,-1.41713 1.77054,-2.17286 2.11242,-2.13408 4.74405,-3.49302 7.70734,-3.97997 3.41864,-0.5617899 6.98203,0.19871 9.90181,2.11326 0.83129,0.54508 1.41709,1.0222 2.17363,1.77036 3.43863,3.40051 4.86066,8.2302806 3.82523,12.9919006 -0.43347,1.9934 -1.45631,4.11008 -2.77668,5.74613 -0.505,0.62572 -1.5207,1.63802 -2.14478,2.13756 -1.60689,1.28626 -3.73126,2.30561 -5.69482,2.73259 -1.39532,0.30342 -2.96746,0.40566 -4.3096,0.28028 z m -7.29802,-7.89788 c 1.20391,-0.10563 1.9529104,-0.40484 2.81581,-1.12487 l 0.18653,-0.15564 0.0359,0.23968 c 0.0402,0.26817 0.25451,0.78798 0.34983,0.84855 0.0682,0.0433 3.23522,0.0573 3.27806,0.0144 0.0146,-0.0146 -0.0566,-0.22817 -0.15818,-0.47457 l -0.18476,-0.448 -0.0307,-2.79611 c -0.0262,-2.39233 -0.043,-2.84056 -0.11648,-3.10393 -0.42641,-1.52931 -1.17142,-2.15823 -2.86646,-2.41982 -0.43776,-0.0676 -0.9133796,-0.0898 -1.96297,-0.0916 -1.51619,-0.003 -2.12675,0.0634 -2.89195,0.31309 -1.06584,0.34781 -1.76196,1.0621 -2.05077,2.1043 l -0.10143,0.366 0.21336,0.0297 c 0.11735,0.0164 0.79054,0.0877 1.49598,0.15849 0.70544,0.0708 1.37497,0.14093 1.48784,0.15582 0.20276,0.0267 0.20634,0.0243 0.2994,-0.20301 0.12898,-0.31512 0.43004,-0.61083 0.73244,-0.71943 0.31467,-0.11301 1.2925604,-0.16456 1.5908304,-0.0838 0.40805,0.11041 0.6109396,0.37876 0.6433196,0.85087 l 0.0175,0.25534 -0.3334796,0.12012 c -0.61992,0.22329 -1.1507404,0.35822 -2.5657504,0.65219 -1.59299,0.33095 -2.07546,0.46788 -2.59038,0.73514 -0.82371,0.42754 -1.25791,1.17445 -1.25636,2.16117 10e-4,0.71534 0.23632,1.27999 0.73811,1.77206 0.49125,0.48173 1.13072,0.74785 2.02491,0.84266 0.55925,0.0593 0.53799,0.0593 1.19975,0.001 z m 0.14253,-2.02529 c -0.36364,-0.16362 -0.52702,-0.4164 -0.53292,-0.82453 -0.006,-0.38179 0.17216,-0.63057 0.60119,-0.84178 0.18175,-0.0895 0.80027,-0.29706 1.3744804,-0.46129 0.5742,-0.16424 1.0844096,-0.31473 1.1337896,-0.33444 0.0799,-0.0319 0.0897,6e-5 0.0888,0.29032 -0.004,1.12261 -0.3060796,1.67901 -1.1213596,2.06207 -0.29757,0.13981 -0.4035904,0.16153 -0.8528604,0.17471 -0.38098,0.0112 -0.55888,-0.006 -0.69109,-0.0651 z m 21.59777,-5.21142 -9.92746,0.0262 -0.002,2.96725 9.92992,-0.0172 z" /></svg>
