<svg
   width="32"
   height="32"
   viewBox="0 0 32 32"
   fill="currentColor"
   color="#000">
   <g
     transform="translate(-672)"><path
       d="M 690.6504,2.01758 674,4.58789 v 22.52735 l 16.6504,2.86718 v -3.53711 h 10.1309 A 1.162,1.162 0 0 0 702,25.34961 V 5.5 a 1.162,1.162 0 0 0 -1.2187,-1.0957 h -10.1309 z m -0.1211,3.42383 h 10.4121 v 20.08984 h -10.3242 l -0.018,-1.88867 h 2.4863 v -2.20117 h -2.5058 l -0.012,-1.29883 h 2.5175 v -2.20117 h -2.5351 l -0.014,-1.29883 h 2.5488 v -2.20117 h -2.5566 v -1.29883 h 2.5566 v -2.20117 h -2.5566 V 9.64258 h 2.5566 V 7.44141 h -2.5566 z m 3.957,1.99805 v 2.19921 h 4.3243 V 7.43946 Z m -8.9043,2.83398 -2.6054,5.26758 2.6054,5.27734 -2.2695,-0.15234 -1.5312,-4.02344 -1.5332,3.87109 -2.086,-0.18359 2.4219,-4.66406 -2.2363,-4.99219 2.1445,-0.12305 1.3496,3.70899 1.5938,-3.86328 z m 8.9043,0.66602 v 2.20117 h 4.3243 v -2.20117 z m 0,3.50195 v 2.19922 h 4.3243 v -2.19922 z m 0,3.5 v 2.20117 h 4.3243 v -2.20117 z m 0,3.50195 v 2.19922 h 4.3243 v -2.19922 z" /></g></svg>
