<svg
   width="32"
   height="32"
   viewBox="0 0 32 32"
   fill="currentColor"
   color="#000">
   <g
     transform="translate(-1302)"><path
       d="m 1317.9695,2.0000937 a 1.7997454,1.7997454 0 0 0 -1.2753,0.52923 l -2.5387,2.5387 3.2203,3.22025 a 2.1406971,2.1406971 0 0 1 0.3827,-0.0879 2.1406971,2.1406971 0 0 1 0.1289,-0.0117 2.1406971,2.1406971 0 0 1 0.2676,-0.006 2.1406971,2.1406971 0 0 1 0.1367,0.01 2.1406971,2.1406971 0 0 1 0.2949,0.0527 2.1406971,2.1406971 0 0 1 0.096,0.0234 2.1406971,2.1406971 0 0 1 0.373,0.15037 2.1406971,2.1406971 0 0 1 0.01,0.002 2.1406971,2.1406971 0 0 1 0.021,0.0137 2.1406971,2.1406971 0 0 1 0.3007,0.19919 2.1406971,2.1406971 0 0 1 0.09,0.0762 2.1406971,2.1406971 0 0 1 0.1992,0.20114 2.1406971,2.1406971 0 0 1 0.088,0.10546 2.1406971,2.1406971 0 0 1 0.1875,0.28707 2.1406971,2.1406971 0 0 1 0.018,0.0274 2.1406971,2.1406971 0 0 1 0,0.006 2.1406971,2.1406971 0 0 1 0.1484,0.3769 2.1406971,2.1406971 0 0 1 0.022,0.0898 2.1406971,2.1406971 0 0 1 0.053,0.3065893 2.1406971,2.1406971 0 0 1 0.01,0.11718 2.1406971,2.1406971 0 0 1 -0.01,0.27535 2.1406971,2.1406971 0 0 1 -0.014,0.14061 2.1406971,2.1406971 0 0 1 -0.09,0.37494 l 3.0991,3.09918 a 2.1426968,2.1426968 0 1 1 -1.283,1.21075 l -2.896,-2.89607 v 7.61612 a 2.1406971,2.1406971 0 0 1 0.6874,3.29835 2.1406971,2.1406971 0 1 1 -2.4509,-3.36084 v -7.68447 a 2.1456964,2.1456964 0 0 1 -0.5312,-0.32417 2.1456964,2.1456964 0 0 1 -0.1425,-0.14256 2.1456964,2.1456964 0 0 1 -0.2773,-0.32418 2.1456964,2.1456964 0 0 1 -0.1133,-0.19528 2.1456964,2.1456964 0 0 1 -0.1562,-0.37689 2.1456964,2.1456964 0 0 1 -0.059,-0.22068 2.1456964,2.1456964 0 0 1 -0.033,-0.42572 2.1456964,2.1456964 0 0 1 0,-0.1992 2.1456964,2.1456964 0 0 1 0.1484,-0.6053693 l -3.1696,-3.17143 -8.3816,8.3835793 a 1.7997454,1.7997454 0 0 0 0,2.55237 l 12.2229,12.21897 a 1.7997454,1.7997454 0 0 0 2.5485,0 l 12.1682,-12.17014 a 1.7997454,1.7997454 0 0 0 0,-2.55042 v 0.004 L 1319.2474,2.5297437 a 1.7997454,1.7997454 0 0 0 -1.2752,-0.52923 z" /></g></svg>
