<svg
   width="32"
   height="32"
   viewBox="0 0 32 32"
   fill="currentColor"
   color="#000">
   <g
     transform="translate(0,-45.299026)"><path
       d="m 16,47.645682 c -7.735,0 -14,6.2685 -14,14 0,6.18683 4.011,11.43333 9.5725,13.2825 0.7,0.13183 0.956667,-0.301 0.956667,-0.67317 0,-0.3325 -0.01167,-1.21333 -0.0175,-2.38 C 8.6173333,72.719682 7.796,69.996682 7.796,69.996682 c -0.637,-1.61583 -1.5575,-2.0475 -1.5575,-2.0475 -1.2681667,-0.868 0.098,-0.8505 0.098,-0.8505 1.4058333,0.098 2.1443333,1.442 2.1443333,1.442 1.2483334,2.14083 3.2771667,1.5225 4.0774997,1.16433 0.126,-0.90533 0.4865,-1.5225 0.886667,-1.8725 -3.109167,-0.35 -6.377,-1.554 -6.377,-6.91833 0,-1.52833 0.5425,-2.77667 1.4408333,-3.75667 -0.1575,-0.3535 -0.63,-1.77683 0.1225,-3.70533 0,0 1.1725,-0.37567 3.8499997,1.435 1.12,-0.3115 2.31,-0.4655 3.5,-0.4725 1.19,0.007 2.38,0.161 3.5,0.4725 2.66,-1.81067 3.8325,-1.435 3.8325,-1.435 0.7525,1.9285 0.28,3.35183 0.14,3.70533 0.8925,0.98 1.435,2.22834 1.435,3.75667 0,5.37833 -3.2725,6.5625 -6.3875,6.90667 0.49,0.42 0.945,1.27866 0.945,2.59 0,1.87366 -0.0175,3.37866 -0.0175,3.83366 0,0.3675 0.245,0.805 0.9625,0.665 C 25.9925,73.073182 30,67.823182 30,61.645682 c 0,-7.7315 -6.2685,-14 -14,-14" /></g></svg>
