<svg
   width="32"
   height="32"
   viewBox="0 0 32 32"
   fill="currentColor"
   color="#000">
   <g
     transform="translate(-630)"><path
       d="m 636.52,20.091319 c -1.7455,-0.49123 -2.4999,-1.73475 -3.2986,-5.43697 -0.053,-0.24372 -0.2707,-0.51875 -0.5115,-0.64492 -0.32,-0.16765 -0.4622,-0.40806 -0.5979,-1.01052 -0.1765,-0.78359 -0.1745,-0.79129 0.2269,-0.87721 3.0621,-0.65547 7.9426,-0.51843 11.7802,0.33076 l 1.8621,0.41204 1.8808,-0.41107 c 3.8932,-0.85086 8.7377,-0.98706 11.7991,-0.33173 0.4014,0.0859 0.4034,0.0936 0.2269,0.87721 -0.1357,0.60246 -0.2779,0.84287 -0.5979,1.01052 -0.2408,0.12617 -0.4589,0.4012 -0.5115,0.64492 -1.0404,4.82267 -2.0917,5.80734 -5.9939,5.614 -2.7514,-0.13632 -3.728,-0.86708 -5.2245,-3.90929 l -0.9364,-1.9036 H 646 645.3762 l -0.9364,1.9036 c -1.5444,3.13961 -2.4757,3.80373 -5.4578,3.89172 -1.1131,0.0328 -1.9776,-0.0232 -2.462,-0.15946 z m 4.2198,-0.8051 c 1.0703,-0.31783 1.706,-0.88618 2.2296,-1.99333 0.5625,-1.18938 0.8862,-2.92462 0.6445,-3.45499 -0.4606,-1.01091 -3.3695,-1.63112 -6.3137,-1.34615 -2.595,0.25117 -3.1489,0.89932 -2.802,3.27901 0.3144,2.157 0.8936,3.11922 2.1445,3.56274 0.7167,0.25411 3.1778,0.22572 4.0971,-0.0473 z m 15.0854,-0.1593 c 1.7707,-0.90581 2.413,-5.31755 0.902,-6.19592 -1.8314,-1.0646 -7.7353,-0.42269 -8.3411,0.9069 -0.4372,0.95944 0.6134,4.03401 1.6481,4.82319 1.2064,0.92019 4.4005,1.17712 5.791,0.46583 z" /></g></svg>
