<svg
   width="32"
   height="32"
   viewBox="0 0 32 32"
   fill="currentColor"
   color="#000">
   <g
     transform="translate(-1134,-45.299026)"><g
       transform="translate(91.406854,245.21616)"><path
         d="m 1058.3706,-196.99349 -1.0293,0.59375 0.416,0.71875 -0.068,0.12109 -8.7226,5.03711 h -0.9141 v 0.52735 l -0.4531,0.26171 0.4531,0.78126 v 10.08593 l -0.068,0.11914 h -0.8398 v 1.1875 h 0.4668 l -0.2305,0.39844 1.0293,0.59375 0.42,-0.72656 h 0.1269 l 10.0957,5.82812 0.5352,-0.92773 8.4882,-4.90039 h 0.2969 l 0.4199,0.72656 1.0274,-0.59375 -0.2305,-0.39844 h 0.457 v -1.1875 h -0.9003 v -10.20312 l 0.4511,-0.78125 -0.4511,-0.25977 v -0.53125 h -0.92 l -8.7109,-5.02929 -0.074,-0.12891 0.4179,-0.7207 -1.0273,-0.5918 -0.2305,0.39844 z m 0.2285,2.77344 8.9336,15.47265 h -17.8653 z m -1.625,0.44531 -7.7344,13.39258 v -8.92774 z m 3.2597,0.008 7.7247,4.46094 v 8.91992 z m -9.3632,16.20703 h 15.5898 l -7.7949,4.5 z" /><path
         d="m 1058.2394,-197.89194 a 2.4991261,2.4991261 0 0 0 0.3553,4.97287 2.4921286,2.4921286 0 0 0 2.4992,-2.49912 2.4991261,2.4991261 0 0 0 -2.8545,-2.47375 z m 10.4358,5.73238 a 2.4991261,2.4991261 0 0 0 -2.2824,3.74869 2.4991261,2.4991261 0 0 0 3.4089,0.91374 2.4991261,2.4991261 0 0 0 -1.1265,-4.66243 z m -20.2058,0.008 a 2.4991261,2.4991261 0 1 0 2.3273,3.74089 2.4991261,2.4991261 0 0 0 -0.9138,-3.41092 2.4991261,2.4991261 0 0 0 -1.4135,-0.32997 z m 0.2928,11.48818 a 2.4991261,2.4991261 0 0 0 -2.2843,3.74869 2.4991261,2.4991261 0 0 0 3.4109,0.91374 2.4991261,2.4991261 0 0 0 -1.1266,-4.66243 z m 19.6201,0.008 a 2.4991261,2.4991261 0 1 0 2.3273,3.74089 2.4991261,2.4991261 0 0 0 -0.9137,-3.41092 2.4991261,2.4991261 0 0 0 -1.4136,-0.32997 z m -10.1429,5.76557 a 2.4991261,2.4991261 0 0 0 0.3553,4.97287 2.4921286,2.4921286 0 0 0 2.4992,-2.49913 2.4991261,2.4991261 0 0 0 -2.8545,-2.47374 z" /></g></g></svg>
