<svg
   width="32"
   height="32"
   viewBox="0 0 32 32"
   fill="currentColor"
   color="#000">
   <g
     transform="translate(-1260)"><path
       d="m 1269.1348,29.912541 c -0.084,-0.0479 -0.1795,-0.12223 -0.2132,-0.16516 -0.079,-0.10048 -0.059,-0.14111 0.2041,-0.41106 0.1106,-0.11359 0.2969,-0.35259 0.4139,-0.5311 0.117,-0.1785 0.3145,-0.44405 0.439,-0.59011 0.4073,-0.47766 0.3998,-0.46393 0.3998,-0.73475 v -0.23763 l 0.118,-0.0193 c 0.082,-0.0134 0.1402,-0.0469 0.1902,-0.10897 0.1162,-0.14441 0.4733,-0.78691 0.9215,-1.65809 0.2296,-0.44627 0.4966,-0.95745 0.5934,-1.13596 0.097,-0.17851 0.2326,-0.47061 0.3019,-0.64912 0.069,-0.17851 0.3101,-0.69633 0.5353,-1.15071 0.2251,-0.45439 0.4736,-0.99876 0.5521,-1.20973 0.1981,-0.53196 0.3196,-0.75079 0.5587,-1.00688 0.2432,-0.26045 0.743,-0.64175 1.1563,-0.88217 0.703,-0.40892 0.9043,-0.57815 2.0359,-1.7111 0.9491,-0.95025 1.43,-1.3826 1.748,-1.57152 0.2504,-0.14876 0.2917,-0.19486 0.3308,-0.36937 0.041,-0.18496 0.016,-0.28629 -0.072,-0.28629 -0.081,0 -0.2524,0.12202 -1.3277,0.94569 -0.4544,0.34807 -0.939,0.70517 -1.0769,0.79356 -0.4879,0.31262 -1.2559,0.68194 -1.736,0.83482 -0.3274,0.10424 -0.8435,0.0619 -1.1709,-0.0961 -0.1355,-0.0653 -0.234,-0.20802 -0.2099,-0.30375 0.01,-0.0355 0.1642,-0.21062 0.3449,-0.38913 0.1808,-0.17851 0.3531,-0.37218 0.3829,-0.43038 0.03,-0.0582 0.082,-0.21639 0.1171,-0.35151 0.034,-0.13513 0.09,-0.29995 0.1239,-0.36627 0.1818,-0.35822 0.9754,-1.51 1.3944,-2.0236 0.4078,-0.49988 0.4693,-0.60067 0.4479,-0.73474 -0.01,-0.063 -0.049,-0.13385 -0.095,-0.17408 -0.076,-0.0658 -0.09,-0.0673 -0.4804,-0.0495 -0.2213,0.0101 -0.7808,0.0437 -1.2433,0.0746 -1.3105,0.0877 -1.3098,0.0877 -2.4538,0.10179 -0.595,0.007 -1.1414,0.0267 -1.2144,0.0431 -0.073,0.0163 -0.2355,0.0766 -0.3611,0.13385 -0.3287,0.14978 -0.4171,0.15772 -0.6614,0.0594 -0.1262,-0.0508 -0.2286,-0.0747 -0.2713,-0.0635 -0.095,0.0251 -0.3318,0.20832 -0.8106,0.62803 -0.5166,0.45272 -2.701,2.15719 -2.9751,2.32142 l -0.2059,0.12333 -0.517,0.005 c -0.5779,0.005 -0.8343,0.0238 -1.0404,0.0748 -0.1304,0.0323 -0.1447,0.03 -0.2129,-0.0342 -0.082,-0.0771 -0.1729,-0.31864 -0.1584,-0.42101 0.017,-0.1199 0.452,-0.28074 0.5231,-0.19343 0.1715,0.21046 0.1568,0.20172 0.3773,0.22504 0.4956,0.0524 0.7649,-0.0275 1.2335,-0.36611 0.1298,-0.0938 0.4817,-0.33849 0.7819,-0.54377 0.7116,-0.48654 1.4629,-1.06122 2.3752,-1.81682 0.4057,-0.33603 0.8107,-0.65891 0.8999,-0.71753 0.16,-0.10508 0.1665,-0.10657 0.4573,-0.1045 0.1623,0.001 0.4331,0.0259 0.6018,0.055 0.4235,0.073 1.0975,0.0525 1.6849,-0.0512 0.7087,-0.12516 1.8302,-0.26324 1.9691,-0.24242 0.1744,0.0262 0.1595,-0.0203 -0.044,-0.13609 -0.093,-0.0531 -0.2493,-0.15516 -0.3467,-0.22666 -0.1766,-0.12971 -0.1775,-0.12997 -0.3656,-0.11081 -0.1688,0.0172 -0.1958,0.0124 -0.2582,-0.0462 -0.077,-0.0727 -0.086,-0.13384 -0.035,-0.24542 0.04,-0.088 0.1758,-0.13405 0.3937,-0.13365 0.1664,0 0.2037,0.0176 0.4553,0.21127 0.1938,0.14916 0.4777,0.27241 0.5642,0.24494 0.03,-0.009 0.069,-0.0662 0.089,-0.12628 0.019,-0.0601 0.1038,-0.20218 0.188,-0.31578 0.084,-0.11359 0.1948,-0.28012 0.2458,-0.37008 0.131,-0.23061 0.4174,-0.56425 0.5389,-0.62763 0.093,-0.0487 0.1606,-0.0519 0.7517,-0.0353 0.7865,0.0221 1.14,0.0541 1.6445,0.14919 0.2114,0.0399 0.424,0.0725 0.4723,0.0725 0.073,0 0.1562,-0.0668 0.4904,-0.39339 0.4397,-0.4296499 0.3496,-0.3755199 1.084,-0.6510499 0.2842,-0.1066 0.4652,-0.2262098 0.5115,-0.3379498 0.064,-0.15426 0.014,-0.32788 -0.2361,-0.82129 -0.1341,-0.26441 -0.2342,-0.49893 -0.2342,-0.54837 0,-0.10384 0.1681,-0.28701 0.2634,-0.28701 0.039,0 0.1219,0.0645 0.2169,0.16822 0.2001,0.21842 0.2898,0.30386 0.3193,0.30386 0.056,0 0.065,-0.22227 0.014,-0.35374 -0.1768,-0.46192 -0.1748,-0.47427 0.078,-0.49485 0.1351,-0.011 0.1644,-0.004 0.2187,0.0565 0.1013,0.1117 0.1342,0.26079 0.1119,0.50674 -0.02,0.22055 0,0.37388 0.042,0.37388 0.013,0 0.054,-0.0731 0.091,-0.16244 0.046,-0.11188 0.087,-0.16679 0.1308,-0.1764 0.035,-0.008 0.2407,-0.0176 0.4571,-0.022 0.3878,-0.008 0.3946,-0.009 0.4628,-0.0886 0.039,-0.0459 0.078,-0.1412 0.091,-0.2213 0.013,-0.085 -0.015,-0.64897 -0.071,-1.42419 -0.051,-0.70592 -0.098,-1.58223 -0.1046,-1.94736 -0.014,-0.73442 -0.034,-0.85963 -0.2544,-1.59329 -0.1343,-0.44591 -0.1698,-0.61962 -0.1266,-0.61962 0.016,0 0.083,0.0395 0.1501,0.0879 0.091,0.0659 0.1511,0.14924 0.2401,0.33322 0.183,0.37815 0.2074,0.48756 0.2078,0.93153 0,0.26992 0.018,0.48328 0.057,0.67863 0.037,0.18667 0.063,0.47828 0.075,0.84554 0.02,0.60917 0.091,1.62624 0.1342,1.93261 0.053,0.37528 0.037,0.6231 -0.06,0.88517 -0.049,0.13203 -0.089,0.25882 -0.089,0.28175 0,0.0658 0.1321,0.0824 0.2409,0.0303 0.1018,-0.0488 0.1408,-0.0993 0.3971,-0.51393 0.2589,-0.41901 0.4187,-0.5549 1.029,-0.87528 0.1786,-0.0937 0.5171,-0.2736 0.7524,-0.3998 0.2689,-0.14421 0.5539,-0.27025 0.7672,-0.33926 0.3252,-0.10523 0.9433,-0.41079 1.2335,-0.60973 0.1499,-0.10283 0.2021,-0.0922 0.2282,0.0466 0.038,0.20506 -0.01,0.24283 -0.5618,0.44798 -0.6058,0.22479 -1.9406,0.95461 -2.449,1.33903 -0.2687,0.20323 -0.8321,0.73096 -1.0085,0.94473 -0.1903,0.23055 -0.1963,0.29433 -0.045,0.47695 0.061,0.0742 0.1559,0.2312 0.2101,0.34888 l 0.099,0.21395 -0.013,0.4405998 c -0.016,0.5511199 -0.01,0.5381499 -0.4464,0.6112599 -0.1736,0.0288 -0.3322,0.0689 -0.3524,0.0891 -0.023,0.0228 -0.041,0.14824 -0.047,0.33122 -0.013,0.36172 0.01,0.40118 0.2811,0.53134 0.1758,0.0839 0.2398,0.0972 0.5684,0.11837 0.6671,0.0429 0.8853,0.0807 1.0427,0.18054 0.1164,0.0739 0.1629,0.087 0.2655,0.0751 0.1303,-0.0152 0.2672,-0.0705 0.4245,-0.17161 0.071,-0.0454 0.1748,-0.0667 0.4238,-0.087 0.3104,-0.0252 0.3395,-0.0332 0.484,-0.13272 0.1675,-0.1154 0.4102,-0.20192 0.4927,-0.17572 0.08,0.0254 0.2139,0.32543 0.2157,0.48301 v 0.13532 l -0.2951,-0.01 c -0.2833,-0.01 -0.2999,-0.007 -0.4186,0.0738 -0.068,0.0461 -0.2237,0.1797 -0.3461,0.2969 -0.2995,0.28693 -0.4714,0.37422 -0.74,0.3758 -0.1771,0.001 -0.2402,-0.0143 -0.4426,-0.10745 -0.1902,-0.0875 -0.3719,-0.135 -0.9348,-0.24415 -0.4173,-0.0809 -0.7652,-0.1649 -0.8639,-0.20852 -0.091,-0.0402 -0.1988,-0.073 -0.2399,-0.073 -0.1215,0 -0.3941,0.15096 -0.5591,0.30963 l -0.1536,0.1477 -0.025,0.33931 c -0.034,0.4673 -0.028,0.63937 0.047,1.29991 0.057,0.50357 0.063,0.66745 0.047,1.34083 -0.01,0.42193 -0.026,0.89786 -0.035,1.05762 -0.014,0.23487 -0.01,0.31599 0.033,0.42386 0.064,0.16853 0.3387,0.46162 0.7818,0.83503 0.4334,0.3653 0.8558,0.84945 1.4285,1.63723 0.2291,0.31516 0.3269,0.41501 0.5084,0.51907 0.1817,0.10413 0.3152,0.24837 0.3624,0.39153 0.047,0.14291 0,0.42725 -0.09,0.49828 -0.076,0.063 -0.094,0.0634 -0.2851,0.007 -0.1782,-0.0529 -0.2293,-0.11546 -0.3455,-0.42293 -0.08,-0.21093 -0.089,-0.22246 -0.3403,-0.40595 -0.257,-0.18792 -0.2805,-0.21899 -0.3551,-0.46867 -0.045,-0.15101 -0.59,-0.69205 -1.9192,-1.9058 -0.4579,-0.41818 -0.4879,-0.52956 -0.4322,-1.60535 0.056,-1.08859 0.039,-1.71168 -0.052,-1.83341 -0.04,-0.0534 -0.044,-0.0533 -0.1508,0.004 -0.1783,0.0957 -0.3261,0.30163 -0.4788,0.66681 -0.1937,0.46297 -0.7104,1.23059 -1.3287,1.97393 -0.3433,0.41267 -0.6291,0.69631 -1.0111,1.00361 -0.3754,0.30197 -1.4193,1.0455 -1.8639,1.32755 -0.8092,0.51346 -1.1415,0.74115 -1.2839,0.87993 -0.083,0.081 -0.2777,0.33998 -0.4323,0.5755 -0.3283,0.5001 -0.417,0.59715 -0.585,0.63955 -0.3387,0.0855 -0.3706,0.10816 -0.5556,0.39425 -0.096,0.14792 -0.5675,1.0524 -1.0484,2.00996 -0.4809,0.95754 -1.1429,2.22562 -1.471,2.81795 -0.7358,1.32833 -0.7105,1.27697 -0.7308,1.48318 -0.024,0.24424 -0.1054,0.35789 -0.3413,0.47732 -0.2114,0.10702 -0.2266,0.12408 -0.6348,0.7122 -0.1582,0.22793 -0.2613,0.34631 -0.3402,0.39068 -0.062,0.035 -0.1289,0.0825 -0.148,0.10545 -0.019,0.023 -0.047,0.18922 -0.061,0.36942 -0.015,0.18019 -0.035,0.34076 -0.045,0.3568 -0.034,0.0544 -0.1761,0.029 -0.3287,-0.0585 z m 8.758,-17.90715 c 0.2929,-0.1676 0.5051,-0.35511 0.5822,-0.51442 0.084,-0.1734 0.08,-0.27247 -0.014,-0.33381 -0.065,-0.0428 -0.1299,-0.0468 -0.4812,-0.03 -0.2232,0.0107 -0.4847,0.0406 -0.5811,0.0667 -0.3739,0.10088 -0.3915,0.10234 -0.6782,0.0562 -0.1531,-0.0246 -0.3368,-0.0448 -0.4082,-0.0448 h -0.1299 l -0.1844,0.31718 c -0.1014,0.17445 -0.2223,0.36556 -0.2688,0.42469 -0.046,0.0591 -0.084,0.12133 -0.084,0.1382 0,0.0505 0.1205,0.0563 1.0921,0.0528 l 0.9297,-0.003 z" /></g></svg>
