<svg
   width="32"
   height="32"
   viewBox="0 0 32 32"
   fill="currentColor"
   color="#000">
   <g
     transform="translate(-588,-45.299026)"><path
       d="m 603.77228,75.168576 c -0.171,-0.11977 -0.1864,-0.1981 -0.1864,-0.95258 v -0.82207 l -0.8879,-0.0999 c -0.7358,-0.0828 -2.1071,-0.38623 -2.8426,-0.62899 -0.1398,-0.0462 -0.1937,0.009 -0.3244,0.32954 -0.1937,0.47537 -0.8733,1.23189 -1.3664,1.52084 -0.5677,0.33268 -1.3117,0.5322 -1.9843,0.53212 -1.6913,0 -2.917,-1.4252 -3.9461,-4.58781 -0.9664,-2.97014 -1.0543,-5.17241 -0.2534,-6.35259 l 0.216,-0.31833 -0.1071,-1.03527 -0.1071,-1.03528 h -0.857 c -0.9285,0 -1.1205,-0.0783 -1.1205,-0.4568 0,-0.3121 0.1695,-0.37393 1.0947,-0.39937 l 0.8754,-0.0241 0.067,-0.50299 c 0.2419,-1.81421 0.6189,-3.05465 1.3597,-4.47419 0.3341,-0.64019 0.3618,-0.73306 0.2408,-0.80725 -0.7693,-0.47138 -1.0352,-0.85134 -1.0374,-1.48257 0,-0.70297 0.3186,-1.20402 0.9627,-1.50221 0.641,-0.29679 1.3814,-0.11577 1.8502,0.45234 l 0.2456,0.29759 0.2815,-0.25176 0.2815,-0.25177 -0.2133,-0.22362 c -0.9415,-0.987 -0.025,-2.67777 1.3076,-2.41134 0.4212,0.0843 0.8694,0.42836 1.029,0.79001 l 0.1451,0.32884 0.5124,-0.2307 c 1.0906,-0.491 3.017,-1.00583 3.7637,-1.00583 0.1599,0 0.4086,-0.0236 0.5527,-0.0524 l 0.2619,-0.0524 v -0.97874 c 0,-1.06085 0.044,-1.17994 0.433,-1.17994 0.3386,0 0.4054,0.20599 0.4054,1.25037 0,1.06338 -0.092,0.96546 0.9915,1.05089 0.5624,0.0443 0.6586,0.0272 1.1401,-0.20256 0.9764,-0.46598 1.4828,-0.54307 3.5271,-0.53695 1.495,0.004 2.0268,0.0389 2.8083,0.18175 1.8755,0.34283 3.1978,0.83721 4.0026,1.49645 1.3206,1.0818 1.0903,3.15477 -0.5131,4.61712 -0.4348,0.39653 -1.3899,0.94533 -1.6452,0.94533 -0.065,0 -0.079,0.053 -0.039,0.1467 0.6174,1.43922 0.913,2.47307 1.0726,3.7515 l 0.1048,0.83832 0.9187,0.0219 c 0.8156,0.0195 0.9353,0.0417 1.0655,0.19791 0.187,0.22429 0.1843,0.28746 -0.021,0.49273 -0.147,0.14706 -0.2794,0.16766 -1.0771,0.16766 h -0.9096 l -0.051,0.77545 c -0.098,1.49175 -0.5098,2.90784 -1.2935,4.45115 l -0.4617,0.90923 0.094,1.22849 c 0.092,1.19881 0.3034,2.324 0.5606,2.97848 0.07,0.17866 0.1112,0.34122 0.091,0.36125 -0.02,0.02 -0.2763,-0.0424 -0.5694,-0.13872 -0.8577,-0.28185 -2.0506,-0.49216 -3.1436,-0.55419 l -1.0179,-0.0578 -0.4492,0.25572 c -1.1496,0.6544 -2.5653,1.10404 -4.2007,1.33412 l -0.985,0.1386 v 0.81902 c 0,0.75131 -0.015,0.82981 -0.1864,0.94952 -0.1024,0.0718 -0.2072,0.1305 -0.2328,0.1305 -0.026,0 -0.1304,-0.0587 -0.2328,-0.1305 z m -6.5963,-1.04471 c 1.1349,-0.5494 1.8985,-2.08533 1.7595,-3.53888 -0.291,-3.04151 -2.8766,-6.14638 -5.269,-6.32731 l -0.6283,-0.0475 -0.1936,0.36782 c -0.1717,0.32629 -0.1938,0.48607 -0.1962,1.41571 0,1.29962 0.057,1.74255 0.416,3.05172 0.3622,1.32162 0.8036,2.51065 1.2456,3.3555 0.3848,0.73545 1.0775,1.54555 1.4993,1.75348 0.3755,0.1851 0.9477,0.17233 1.3667,-0.0305 z m 8.5477,-2.7362 c 3.5669,-0.58514 6.6381,-3.24769 7.821,-6.78052 0.3115,-0.93038 0.4222,-1.51132 0.4926,-2.58534 0.038,-0.57497 0.027,-0.8195 -0.035,-0.79704 -0.049,0.0178 -1.9698,1.88004 -4.2678,4.13828 -2.298,2.25823 -4.6413,4.55856 -5.2074,5.11183 -0.8395,0.82039 -1.0019,1.01669 -0.8803,1.06413 0.1904,0.0743 1.1104,0.007 2.0773,-0.15134 z m -1.4361,-4.48833 c 6.2078,-6.08736 9.1067,-8.97098 9.1067,-9.05856 0,-0.0439 -0.1457,-0.39091 -0.3239,-0.77108 l -0.3239,-0.69121 -0.703,-0.0484 -0.7031,-0.0484 -0.5208,0.47574 c -1.4599,1.33335 -11.3814,11.22099 -11.3693,11.33049 0.01,0.07 0.092,0.4131 0.1868,0.76242 0.095,0.34933 0.2123,0.91357 0.2606,1.25387 0.074,0.52431 0.1692,0.74401 0.324,0.75042 0.017,6.9e-4 1.8466,-1.7792 4.0659,-3.95534 z m -1.0402,-6.53 5.1922,-5.12136 -0.6035,-0.40524 c -0.3319,-0.22289 -0.7526,-0.559 -0.9348,-0.74691 -0.1823,-0.18791 -0.3681,-0.34166 -0.4128,-0.34166 -0.11,0 -0.645,0.51539 -5.7841,5.57245 -2.4378,2.39893 -4.4844,4.39185 -4.5479,4.42872 -0.1921,0.11156 -0.1387,0.18088 0.4504,0.58418 0.3112,0.21308 0.7341,0.55926 0.9396,0.7693 0.2056,0.21003 0.4041,0.38188 0.4412,0.38188 0.037,0 2.404,-2.30462 5.2597,-5.12136 z m -3.7273,-3.72333 c 2.3976,-2.35416 4.5762,-4.48264 4.8413,-4.72997 0.2651,-0.24731 0.482,-0.48192 0.482,-0.52134 0,-0.11764 -1.8519,-0.0812 -2.6088,0.0514 -3.9606,0.6936 -7.1891,3.6997 -8.1511,7.58954 -0.1684,0.681 -0.3195,2.35875 -0.251,2.78698 l 0.051,0.32135 0.6384,-0.60881 c 0.3512,-0.33485 2.6002,-2.53496 4.9978,-4.88912 z m 14.7053,-1.3444 c 1.4462,-0.3409 2.2914,-1.32319 2.3033,-2.67698 0,-0.50003 -0.031,-0.6549 -0.2221,-0.98159 -0.2882,-0.4917 -0.9037,-0.9448 -1.7072,-1.25682 -0.7202,-0.27965 -2.5579,-0.60874 -4.1576,-0.74453 -1.7677,-0.15005 -3.1616,0.10908 -3.8169,0.70962 l -0.2879,0.26386 0.092,0.49754 c 0.2144,1.15967 1.0206,2.25753 2.2532,3.06824 1.5245,1.00267 3.9572,1.49449 5.5432,1.12066 z" /></g></svg>
