<svg
   width="32"
   height="32"
   viewBox="0 0 32 32"
   fill="currentColor"
   color="#000">
   <g
     transform="translate(-714)"><path
       d="m 717.6553,2 2.246,25.20118 L 729.9854,30 740.0947,27.19727 742.3447,2 Z m 4.5938,5.15039 h 7.7401 0.01 7.7324 l -0.074,0.83008 -0.1405,1.56836 -0.062,0.69336 H 730 h -0.01 -4.3613 l 0.2812,3.16406 h 4.0801 0.01 7.1738 l -0.074,0.83008 -0.7264,8.13672 -0.047,0.52344 -6.3262,1.7539 -0.01,0.002 v 0.002 l -6.332,-1.75781 -0.4317,-4.85156 h 3.1015 l 0.2208,2.46484 3.4414,0.92774 v 0 l 0.01,-0.004 v 0.002 l 3.4375,-0.92774 0.3574,-4.00976 h -3.7949 -0.01 -6.9062 l -0.7598,-8.51773 z" /></g></svg>
