<svg
   width="32"
   height="32"
   viewBox="0 0 32 32"
   fill="currentColor"
   color="#000">
   <g><path
       
       d="M 2.0009767,2.0859375 V 29.914062 H 29.999023 V 2.0859375 Z m 2.345703,2.332031 H 27.65332 V 27.580078 H 4.3466797 Z m 8.0917973,5.0625 c -0.126647,0 -0.128045,0.06642 -0.117188,0.189453 0.0398,0.4450765 0.01791,0.6937835 -0.07617,1.0429695 L 8.8525407,22.324218 c -0.03619,0.110364 -0.02755,0.16616 0.1171881,0.167969 l 2.1914052,-0.002 c 0.231584,-0.0072 0.243401,-0.07171 0.283204,-0.1875 l 0.759766,-3.033203 h 3.689452 l 0.90625,3.001953 c 0.04704,0.177307 0.138834,0.220559 0.263672,0.21875 h 2.322267 c 0.179113,0.0018 0.1912,-0.05247 0.164061,-0.171874 L 15.715823,9.5292505 c -0.0072,-0.02352 -0.02437,-0.03906 -0.06055,-0.03906 z m 9.441405,0.06836 c -0.709691,-3.109e-4 -1.285176,0.5498105 -1.285156,1.2285155 -2e-5,0.678705 0.575465,1.228827 1.285156,1.228516 0.709692,3.11e-4 1.285177,-0.549811 1.285157,-1.228516 2e-5,-0.678705 -0.575466,-1.228827 -1.285157,-1.2285155 z m -7.826171,2.1679685 1.371094,5.21875 h -2.662109 z m 6.720703,1.515625 c -0.05713,0 -0.103516,0.04443 -0.103516,0.101563 v 9.078125 c 0,0.05713 0.04638,0.103515 0.103516,0.103515 h 2.210937 c 0.05713,0 0.103516,-0.04638 0.103516,-0.103515 v -9.078125 c 0,-0.05713 -0.04638,-0.101563 -0.103516,-0.101563 z" /></g></svg>
