<svg
   width="32"
   height="32"
   viewBox="0 0 32 32"
   fill="currentColor"
   color="#000">
   <g
     transform="translate(-294)"><path
       
       d="m 296.00098,2.085935 v 27.82813 h 27.99804 V 2.085935 Z m 2.3457,2.33203 h 23.30664 v 23.16406 h -23.30664 z m 14.86914,5 -0.0215,2.89258 c 0,0.009 -0.0874,-0.002 -0.10547,0 -0.33161,0.029 -1.74995,-0.22239 -3.1543,0.73437 -1.1579,0.78825 -2.22547,1.94489 -2.26171,4.52344 -0.0435,3.1095 1.95991,4.86271 4.83203,5.00586 0.82629,0.0399 1.70658,-0.0673 2.47851,-0.3789 0.15403,-0.0616 0.41174,-0.17211 0.63281,-0.2754 0.31349,-0.14677 0.47118,-0.25167 0.37696,-0.57421 l -0.043,-0.25391 V 9.470705 Z m -9.13281,0.10547 c -0.0582,0 -0.10352,0.0453 -0.10352,0.10352 v 12.62109 c 0,0.0582 0.0453,0.10547 0.10352,0.10547 h 2.31445 c 0.0582,0 0.10547,-0.0472 0.10547,-0.10547 V 9.626955 c 0,-0.0582 -0.0472,-0.10352 -0.10547,-0.10352 z m 8.81836,4.87305 c 0.13251,-2.6e-4 0.26547,0.006 0.39843,0.0156 v 5.9961 c -2.15272,0.15946 -2.99849,-1.36308 -3.02929,-2.91602 -0.0127,-0.66502 0.1174,-1.33906 0.37109,-1.88086 0.44395,-0.94657 1.33214,-1.21306 2.25977,-1.21484 z" /></g></svg>
