<svg
   width="32"
   height="32"
   viewBox="0 0 32 32"
   fill="currentColor"
   color="#000">
   <g
     transform="translate(-1218,-45.299026)"><path
       d="m 1234,47.299026 c -7.732,0 -14,6.26802 -14,14 0,7.73202 6.268,14 14,14 7.732,0 14,-6.26798 14,-14 0,-7.73198 -6.268,-14 -14,-14 z m 0,1.42359 c 6.9457,0 12.5764,5.63074 12.5764,12.57641 0,6.94566 -5.6307,12.57642 -12.5764,12.57642 -6.9456,0 -12.5764,-5.63076 -12.5764,-12.57642 0,-6.94567 5.6308,-12.57641 12.5764,-12.57641 z m 0.1573,2.61132 c -1.3452,0 -2.6266,0.26543 -3.7974,0.74854 0.9607,0.70537 1.5842,1.84426 1.5842,3.12744 0,2.14052 -1.7354,3.87427 -3.876,3.87427 -1.2831,0 -2.4203,-0.62365 -3.1257,-1.58423 -0.4831,1.17075 -0.7502,2.45385 -0.7502,3.79907 0,5.5041 4.461,9.9668 9.9651,9.9668 5.5041,0 9.9668,-4.4627 9.9668,-9.9668 0,-5.50418 -4.4627,-9.96509 -9.9668,-9.96509 z" /></g></svg>
