<svg
   width="32"
   height="32"
   viewBox="0 0 32 32"
   fill="currentColor"
   color="#000">
   <g
     transform="translate(-1344)"><path
       d="m 1362.8013,1.9998436 c 1.176,4.6229954 -4.1377,6.0194404 -6.0547,8.8984374 -1.306,1.962998 0.6419,4.068893 3.2949,6.462891 -1.037,-2.337998 -4.546,-4.384613 0,-7.9746097 5.668,-4.4759955 2.7598,-7.3867187 2.7598,-7.3867187 z m 3.5058,5.71875 c 0,0 -9.5848,2.3949274 -5.0058,7.6699224 a 2.051,2.051 0 0 1 -0.3555,2.953125 c 0,0 3.4285,-1.769331 1.8535,-3.986328 -1.471,-2.066998 -2.6002,-3.095723 3.5078,-6.6367194 z m 1.5567,9.4257814 c -0.2936,0.01507 -0.6016,0.07502 -0.9161,0.185547 a 0.957,0.957 0 0 0 -0.4492,0.345703 3.932,3.932 0 0 1 0.5996,-0.160156 c 1.6948,-0.352945 4.1229,2.268504 -1.1269,4.998047 a 0.458,0.458 0 0 0 0,0.002 0.458,0.458 0 0 1 -0.1054,0.136719 c 6.3582,-1.671124 4.8376,-5.653507 2,-5.507813 z m -11.0235,0.267578 c 0,0 -0.012,0.0019 -0.012,0.002 a 9.629,9.629 0 0 1 0.014,0 z m -0.012,0.002 a 9.629,9.629 0 0 0 -4.3926,1.041016 c -2.874,1.389999 7.1094,2.023061 12.2774,0.664062 a 8.934,8.934 0 0 1 1.2793,-0.685546 53.11,53.11 0 0 1 -4.2207,0.554687 38.225,38.225 0 0 1 -6.7325,0.07227 c -3.2763,-0.437312 1.7503,-1.637254 1.7891,-1.646485 z m -1.1719,3.171875 c -4.743,1.573999 2.6387,3.359873 9.2657,1.421875 a 3.32,3.32 0 0 1 -1.1524,-0.701172 22.618,22.618 0 0 1 -7.4805,0.359376 c -1.833,-0.19 -0.6328,-1.078126 -0.6328,-1.078126 z m 0.666,3.070313 c -4.2957,1.203469 2.6264,3.686075 8.1055,1.33789 a 10.088,10.088 0 0 1 -1.541,-0.751953 16.023,16.023 0 0 1 -5.8008,0.246094 c -1.8237,-0.210158 -0.7721,-0.827102 -0.7637,-0.832031 z m -2.7792,2.03125 c -1.8501,-0.07142 -6.0506,1.777297 -2.4649,2.357422 11.176,1.811998 20.3736,-0.817002 17.4746,-2.125 v 0.002 c 0,0 0.791,0.65125 -0.873,1.15625 -3.164,0.957999 -13.1673,1.249061 -15.9473,0.03906 -1,-0.434999 0.8729,-1.038062 1.4629,-1.164062 a 3.8,3.8 0 0 1 0.9668,-0.109375 c -0.1389,-0.09787 -0.3548,-0.146047 -0.6191,-0.15625 z m 16.7812,1.660156 c 0,0 -0.352,0.900048 -4.166,1.623047 a 41.458,41.458 0 0 1 -12.7598,0.199219 c 0,0 0.645,0.533094 3.959,0.746094 v -0.0039 c 5.0419,0.323 12.7857,-0.178455 12.9687,-2.564453 z" /></g></svg>
