<svg
   width="32"
   height="32"
   viewBox="0 0 32 32"
   fill="currentColor"
   color="#000">
   <g
     transform="translate(-756)"><path
       d="m 758,2 v 28 h 28 V 2 Z m 21.3164,12.70703 a 3.889,3.889 0 0 1 3.7422,2.10547 L 781,18.12891 A 1.789,1.789 0 0 0 779.3125,17 a 1.145,1.145 0 0 0 -1.2598,1.12891 c 0,0.789 0.4882,1.1086 1.6172,1.5996 l 0.6582,0.28125 c 2.236,0.959 3.5,1.93582 3.5,4.13282 0,2.369 -1.8603,3.66797 -4.3593,3.66797 a 5.055,5.055 0 0 1 -4.795,-2.69141 l 2.1368,-1.24414 a 2.866,2.866 0 0 0 2.5996,1.59961 c 1.09,0 1.7871,-0.54383 1.7871,-1.29883 0,-0.9 -0.716,-1.22305 -1.916,-1.74805 l -0.6582,-0.28125 c -1.9,-0.809 -3.1602,-1.82284 -3.1602,-3.96484 0,-1.973 1.5005,-3.47461 3.8535,-3.47461 z m -8.6992,0.14844 h 2.6309 v 8.98242 c 0,2.724 -1.5988,3.96484 -3.9278,3.96484 a 4.085,4.085 0 0 1 -3.9472,-2.40039 l 2.1425,-1.29883 c 0.413,0.733 0.7874,1.35352 1.6914,1.35352 0.864,0 1.4102,-0.3393 1.4102,-1.6543 z" /></g></svg>
