<svg
   width="32"
   height="32"
   viewBox="0 0 32 32"
   fill="currentColor"
   color="#000">
   <g
     transform="translate(-798)"><path
       d="m 800.0221,14.804598 a 2.9271239,2.9271239 0 0 0 1.8275,-0.60408 2.7720213,2.7720213 0 0 0 0.9387,-1.58368 17.797147,17.797147 0 0 0 0.2496,-3.4332502 q 0.014,-2.43149 0.088,-3.20351 a 6.1061437,6.1061437 0 0 1 0.4875,-1.96618 3.5277091,3.5277091 0 0 1 0.8804,-1.18718 3.552199,3.552199 0 0 1 1.3435,-0.67639 7.8857418,7.8857418 0 0 1 1.8006,-0.14577 h 0.8163 v 2.28572 h -0.4513 a 2.7265401,2.7265401 0 0 0 -2.0094,0.54578 3.9650284,3.9650284 0 0 0 -0.4956,2.43966 42.045628,42.045628 0 0 1 -0.1598,4.8198402 5.520719,5.520719 0 0 1 -0.8956,2.40234 5.3259661,5.3259661 0 0 1 -1.9872,1.50088 4.441998,4.441998 0 0 1 2.3231,2.04549 10.333564,10.333564 0 0 1 0.7207,4.5073 q 0,2.83966 0.058,3.38194 a 2.0466544,2.0466544 0 0 0 0.5877,1.37726 3.0775618,3.0775618 0 0 0 1.8566,0.393 h 0.4513 v 2.28923 h -0.8163 a 6.5947752,6.5947752 0 0 1 -2.0677,-0.23324 3.4635689,3.4635689 0 0 1 -1.544,-1.08455 3.9102177,3.9102177 0 0 1 -0.7942,-1.90088 28.192518,28.192518 0 0 1 -0.1924,-3.77145 19.205898,19.205898 0 0 0 -0.2495,-3.62217 2.8081731,2.8081731 0 0 0 -0.9388,-1.58717 2.902634,2.902634 0 0 0 -1.8274,-0.61108 z m 27.9558,2.37319 a 2.902634,2.902634 0 0 0 -1.8274,0.61108 2.8081731,2.8081731 0 0 0 -0.9388,1.58718 19.205898,19.205898 0 0 0 -0.2472,3.62567 28.192518,28.192518 0 0 1 -0.1971,3.77144 3.9102177,3.9102177 0 0 1 -0.7942,1.90088 3.4635689,3.4635689 0 0 1 -1.544,1.08455 6.5947752,6.5947752 0 0 1 -2.0676,0.23324 h -0.8164 v -2.28456 h 0.4514 a 3.0775618,3.0775618 0 0 0 1.8565,-0.393 2.0466544,2.0466544 0 0 0 0.5901,-1.3831 q 0.058,-0.53877 0.058,-3.38193 a 10.333564,10.333564 0 0 1 0.7207,-4.50731 4.441998,4.441998 0 0 1 2.3231,-2.04315 5.3259661,5.3259661 0 0 1 -1.9826,-1.49972 5.520719,5.520719 0 0 1 -0.8956,-2.40234 42.045628,42.045628 0 0 1 -0.1598,-4.8198402 3.9650284,3.9650284 0 0 0 -0.4956,-2.43966 2.7265401,2.7265401 0 0 0 -2.0093,-0.54577 h -0.4513 v -2.28689 h 0.8163 a 7.8857418,7.8857418 0 0 1 1.7959,0.14577 3.552199,3.552199 0 0 1 1.34,0.67756 3.5277091,3.5277091 0 0 1 0.8804,1.18717 6.1061437,6.1061437 0 0 1 0.4875,1.96619 q 0.072,0.77201 0.088,3.20351 a 17.797147,17.797147 0 0 0 0.2472,3.4367502 2.7720213,2.7720213 0 0 0 0.9388,1.58018 2.9271239,2.9271239 0 0 0 1.8274,0.60408 z"
        /></g></svg>
