<svg
   width="32"
   height="32"
   viewBox="0 0 32 32"
   fill="currentColor"
   color="#000">
   <g
     transform="translate(-546,-45.299026)"><path
       d="m 561.72765,75.17662 c -0.17319,-0.12131 -0.18475,-0.19087 -0.18475,-1.11148 v -0.98207 l -0.60267,-0.0572 c -1.57634,-0.14963 -3.20239,-0.63424 -4.5512,-1.35637 -0.76441,-0.40925 -1.70939,-1.05422 -2.13972,-1.4604 l -0.26936,-0.25425 -0.69722,0.68054 c -0.69828,0.68158 -0.83882,0.75495 -1.13864,0.59449 -0.33557,-0.17959 -0.20349,-0.491 0.51423,-1.21247 l 0.67502,-0.67854 -0.32882,-0.36228 c -1.16276,-1.2811 -2.17823,-3.25107 -2.58635,-5.01738 -0.13013,-0.5632 -0.34678,-1.9251 -0.34678,-2.17991 0,-0.0126 -0.40936,-0.023 -0.90969,-0.023 -0.8458,0 -0.91877,-0.013 -1.03908,-0.18475 -0.17036,-0.24321 -0.16346,-0.42368 0.0226,-0.59207 0.12124,-0.10972 0.32964,-0.13757 1.02932,-0.13757 h 0.8773 l 0.0572,-0.64424 c 0.13998,-1.5757 0.58278,-3.11279 1.30077,-4.5154 0.22396,-0.43752 0.4072,-0.8164 0.4072,-0.84197 0,-0.0256 -0.10783,-0.0911 -0.23961,-0.14574 -0.73539,-0.3046 -1.11686,-1.29387 -0.79551,-2.06297 0.46557,-1.11427 1.83381,-1.35616 2.6634,-0.47086 l 0.33982,0.36264 0.26094,-0.26922 c 0.24328,-0.251 0.25069,-0.27562 0.10958,-0.36374 -0.43618,-0.27241 -0.57487,-1.36116 -0.23721,-1.86222 0.40559,-0.60186 1.17419,-0.80874 1.85534,-0.4994 0.31886,0.14481 0.69836,0.54865 0.69836,0.74314 0,0.20396 0.21688,0.17211 0.93997,-0.13805 1.06752,-0.4579 3.11004,-0.92974 4.02468,-0.92974 0.0789,0 0.10609,-0.21167 0.10609,-0.82656 0,-0.7599 0.0149,-0.83698 0.18475,-0.95595 0.24321,-0.17036 0.42367,-0.16347 0.59207,0.0226 0.10773,0.11904 0.13757,0.32364 0.13757,0.94309 v 0.79108 l 0.85205,0.10304 c 2.47959,0.29986 4.88982,1.35735 6.5297,2.86494 l 0.35753,0.32869 0.60039,-0.59639 c 0.64194,-0.63766 0.96028,-0.75995 1.13387,-0.43559 0.15218,0.28436 0.0966,0.39283 -0.49583,0.96727 -0.32004,0.31034 -0.58189,0.59834 -0.58189,0.64001 0,0.0417 0.16314,0.26877 0.36253,0.50466 1.50718,1.78306 2.48017,4.17929 2.68037,6.60107 l 0.0567,0.6858 h 0.88956 c 0.75622,0 0.91018,0.0228 1.02713,0.15202 0.17171,0.18972 0.17385,0.34109 0.008,0.57762 -0.12017,0.17157 -0.1936,0.18475 -1.0294,0.18475 h -0.9 l -0.0576,0.56111 c -0.5501,5.35669 -4.62761,9.72186 -9.88203,10.57918 -0.556,0.0907 -1.13248,0.16495 -1.28107,0.16495 l -0.27016,2e-5 v 0.98464 c 0,0.84833 -0.021,1.00368 -0.15202,1.12221 -0.18973,0.17171 -0.34109,0.17385 -0.57762,0.008 z m -1.16677,-4.51758 c 0.0409,-0.56504 0.28616,-0.95599 0.82249,-1.31091 l 0.32578,-0.2156 V 67.6998 66.26707 l -0.34088,-0.0457 c -0.85492,-0.11468 -1.65417,-1.00468 -1.65417,-1.84201 v -0.41847 l -1.53933,1.537 -1.53934,1.53701 0.29188,0.0705 c 0.31549,0.0762 0.67783,0.44289 0.75963,0.76882 0.12324,0.49104 -0.4187,1.11419 -0.96901,1.11419 -0.42204,0 -0.91079,-0.45132 -0.91079,-0.84102 v -0.2536 l -0.33251,0.26335 c -0.18288,0.14484 -0.3322,0.30697 -0.33182,0.36028 8.3e-4,0.11642 0.76375,0.73355 1.45404,1.17615 0.53278,0.34162 1.61511,0.86368 2.1613,1.04251 0.33476,0.10961 1.49865,0.39207 1.67332,0.40609 0.0564,0.005 0.10808,-0.18825 0.12941,-0.48309 z m -0.56246,-1.8274 c -0.5459,-0.3329 -0.58,-1.05258 -0.071,-1.49946 0.46185,-0.40551 1.13149,-0.29108 1.40628,0.24031 0.45421,0.87835 -0.49375,1.77229 -1.33525,1.25915 z m 5.20206,1.9246 c 0.97397,-0.31669 2.51589,-1.18201 3.36128,-1.88634 l 0.24402,-0.20331 -1.30221,-1.35618 c -0.71621,-0.74589 -2.18047,-2.25394 -3.25392,-3.35121 -1.8265,-1.86704 -1.95195,-1.97836 -1.95517,-1.73497 -0.003,0.21163 0.0426,0.27916 0.24385,0.36251 0.33905,0.14044 0.87259,0.7382 0.99797,1.1181 0.0569,0.17244 0.0881,0.52562 0.0694,0.78483 -0.0426,0.58963 -0.40558,1.15543 -0.94323,1.47052 l -0.37142,0.21767 v 1.39728 1.39728 l 0.42601,0.003 c 0.53459,0.004 1.24158,0.33473 1.50468,0.70359 0.14786,0.20729 0.18904,0.37741 0.18904,0.78094 0,0.58236 -0.0423,0.56652 0.78971,0.296 z m -1.387,-3.21957 c -0.31587,-0.13738 -0.52492,-0.5044 -0.52492,-0.9216 0,-0.42942 0.4399,-0.86865 0.86999,-0.86865 0.60247,0 0.95411,0.33684 0.95695,0.91668 0.002,0.42747 -0.14802,0.69013 -0.49783,0.87103 -0.29322,0.15163 -0.46019,0.15216 -0.80419,0.003 z m -8.78277,0.22558 c 0.17809,-0.17145 1.69401,-1.66773 3.36873,-3.32508 l 3.04494,-3.01334 h -1.43631 -1.43632 l -0.0531,0.39485 c -0.11905,0.88436 -0.76471,1.73307 -1.61255,2.11966 -0.29976,0.13668 -0.55905,0.17986 -1.09891,0.183 -0.62147,0.004 -0.76459,-0.0253 -1.1882,-0.23992 -0.82545,-0.41826 -1.43293,-1.23148 -1.52959,-2.04764 l -0.0485,-0.40995 h -0.58263 -0.58263 l 0.0507,0.64423 c 0.0628,0.79846 0.40901,2.19388 0.742,2.99086 l 0.2511,0.60097 0.23658,-0.19908 c 0.34386,-0.28933 0.67892,-0.33955 1.05074,-0.15748 0.36268,0.1776 0.51692,0.44162 0.51863,0.88783 9.7e-4,0.25402 -0.0571,0.37832 -0.28141,0.60266 -0.15545,0.15545 -0.34248,0.28264 -0.41563,0.28264 -0.0732,0 -0.13301,0.0246 -0.13301,0.0547 0,0.0877 0.67887,0.94286 0.74847,0.94286 0.0348,0 0.20894,-0.14028 0.38702,-0.31173 z m 14.72784,-0.099 c 0.14481,-0.1802 0.26329,-0.34588 0.26329,-0.36817 0,-0.0223 -0.19639,-0.0977 -0.43642,-0.16748 -0.43753,-0.12726 -1.00071,-0.60049 -1.21616,-1.02193 -0.15011,-0.29362 -0.18304,-0.78497 -0.0848,-1.26526 0.0745,-0.36409 0.16664,-0.52369 0.48809,-0.84515 0.43805,-0.43805 0.79058,-0.57517 1.48057,-0.5759 0.48409,-6.2e-4 0.95535,0.16331 1.24055,0.43124 l 0.18563,0.17439 0.0762,-0.20053 c 0.21291,-0.56 0.44775,-2.24192 0.32954,-2.36014 -0.0231,-0.023 -2.05264,-0.0322 -4.51018,-0.0204 l -4.46824,0.0215 3.14587,3.2592 c 1.73023,1.79257 3.16766,3.2608 3.1943,3.26274 0.0266,0.002 0.16691,-0.14392 0.31173,-0.32411 z m -2.66062,-3.13977 c -0.27678,-0.17171 -0.40117,-0.43611 -0.40117,-0.85272 0,-0.45735 0.38002,-0.83374 0.84179,-0.83374 0.63671,0 0.98701,0.3436 0.98701,0.96818 0,0.43067 -0.44428,0.86144 -0.88531,0.85839 -0.17602,-0.001 -0.42006,-0.0643 -0.54232,-0.14011 z m -5.38878,-2.3201 c 0,-0.11045 -0.0226,-0.11613 -0.12469,-0.0314 -0.0686,0.0569 -0.12469,0.11761 -0.12469,0.13486 0,0.0173 0.0561,0.0314 0.12469,0.0314 0.0686,0 0.12469,-0.0607 0.12469,-0.13487 z m -8.55464,-1.58876 c 0.20231,-0.53213 0.37012,-0.80209 0.70959,-1.14157 0.52641,-0.52641 1.01306,-0.73413 1.81491,-0.77469 0.82051,-0.0415 1.4197,0.15522 1.98296,0.65102 0.37066,0.32627 0.80523,1.05087 0.80523,1.34266 0,0.13849 0.1057,0.14993 1.38567,0.14993 h 1.38567 l -1.40645,-1.43512 -1.40645,-1.43513 -0.39723,0.0677 c -0.72596,0.12377 -1.7784,-0.26941 -2.21847,-0.82879 -0.41525,-0.52785 -0.55886,-1.19734 -0.39249,-1.82978 l 0.11362,-0.4319 -0.4087,-0.39936 -0.40869,-0.39937 -0.37713,0.41334 c -0.20741,0.22734 -0.52669,0.63359 -0.70949,0.90279 -0.35111,0.51702 -1.17935,2.19747 -1.25646,2.54927 -0.0251,0.1143 -0.12312,0.50708 -0.21793,0.87283 -0.0948,0.36576 -0.19594,0.95493 -0.22475,1.30925 l -0.0524,0.64424 h 0.59626 c 0.57319,0 0.59961,-0.009 0.68271,-0.22735 z m 15.15899,-0.0609 c -0.1533,-0.36688 -0.15197,-0.57343 0.006,-0.87822 0.37545,-0.72603 1.48023,-0.60632 1.71765,0.18612 0.0903,0.30133 0.0822,0.37299 -0.0746,0.65923 l -0.17592,0.32115 h 1.15687 1.15687 v -0.40645 c 0,-0.9069 -0.49239,-2.74906 -1.00779,-3.77043 -0.30271,-0.59986 -0.95751,-1.5908 -1.33619,-2.02209 l -0.26078,-0.29701 -1.51466,1.513 -1.51466,1.513 0.28051,0.2463 c 0.68421,0.60074 0.52464,1.84177 -0.29105,2.26358 -0.60379,0.31223 -1.30684,0.22075 -1.78751,-0.23258 l -0.29028,-0.27376 -0.72982,0.73322 -0.72982,0.73322 h 2.75799 2.758 z m 0.87707,-3.4278 c -0.23306,-0.0848 -0.57363,-0.4628 -0.62413,-0.69272 -0.0671,-0.30544 0.13962,-0.77924 0.42015,-0.96305 0.43952,-0.28798 1.10252,-0.13143 1.33329,0.31482 0.15681,0.30324 0.14883,0.73597 -0.018,0.97409 -0.2193,0.3131 -0.7645,0.49307 -1.11135,0.36686 z m -4.96116,1.34041 c 0.0466,-0.31631 0.23808,-0.69587 0.44606,-0.88409 0.20446,-0.18503 0.71771,-0.39783 0.95954,-0.39783 0.1368,0 0.65531,-0.46526 1.83984,-1.6509 l 1.64936,-1.65091 -0.27303,-0.19442 c -0.19323,-0.13758 -0.2832,-0.16393 -0.30781,-0.0901 -0.0658,0.19728 -0.37988,0.42552 -0.65722,0.47755 -0.36994,0.0694 -0.75618,-0.10042 -0.94953,-0.41748 -0.19659,-0.3224 -0.19803,-0.59705 -0.005,-0.97544 l 0.15161,-0.29738 -0.48244,-0.26522 c -0.92161,-0.50666 -2.53539,-0.97412 -3.66541,-1.06176 l -0.64423,-0.05 6e-5,1.57095 7e-5,1.57095 0.16769,-0.33876 c 0.40677,-0.82176 1.38172,-1.08063 2.15145,-0.57125 0.78928,0.52232 0.87294,1.59918 0.17335,2.23122 -0.72677,0.65659 -1.99108,0.39679 -2.37678,-0.4884 -0.0931,-0.21365 -0.10982,0.18737 -0.11259,2.69964 l -0.003,2.95056 0.95035,-0.95551 c 0.7081,-0.71195 0.95995,-1.02075 0.98802,-1.21145 z m -2.52026,-2.95162 V 51.0187 l -0.67101,0.048 c -1.61655,0.11565 -3.48389,0.82847 -4.96084,1.8937 -0.37719,0.27205 -0.68579,0.51872 -0.68579,0.54816 0,0.0294 0.15568,0.21217 0.34596,0.40606 l 0.34597,0.35251 0.23043,-0.16408 c 0.89667,-0.63849 2.3286,-0.50262 3.1025,0.29438 0.79324,0.8169 0.82356,2.0797 0.0693,2.88626 l -0.20944,0.22396 1.18983,1.25153 c 0.65441,0.68836 1.20181,1.25155 1.21645,1.25155 0.0146,0 0.0266,-2.02321 0.0266,-4.49602 z" /></g></svg>
