<svg
   width="32"
   height="32"
   viewBox="0 0 32 32"
   xmlns="http://www.w3.org/2000/svg"
   fill="currentColor"
   color="#000"
   >
   <path
     d="m 10.83054,29.769512 c -0.245072,-0.349894 -0.05941,-0.65834 0.396267,-0.65834 0.1441,0 0.234577,0.02741 0.201059,0.06097 -0.03351,0.03347 -0.140259,0.06208 -0.2372,0.06344 -0.212294,0.0034 -0.369752,0.223135 -0.296406,0.414268 0.03334,0.08687 0.15063,0.138482 0.314731,0.138482 0.15284,0 0.239845,0.03518 0.209278,0.08462 -0.09427,0.152537 -0.452596,0.08944 -0.587729,-0.103482 z m 1.425578,0.06925 c -0.139061,-0.362386 0.002,-0.684965 0.304884,-0.697158 0.221391,-0.0089 0.237435,-0.0017 0.06349,0.02681 -0.266203,0.04423 -0.319702,0.281404 -0.06349,0.281404 0.09311,0 0.169294,0.03979 0.169294,0.08836 0,0.04859 -0.06271,0.07719 -0.13935,0.06344 -0.07664,-0.01366 -0.155999,0.02271 -0.176348,0.08095 -0.02167,0.06199 0.03398,0.105813 0.134355,0.105813 0.09424,0 0.194894,0.03808 0.223667,0.08462 0.03057,0.04944 -0.05643,0.08462 -0.209279,0.08462 -0.146562,0 -0.281658,-0.05226 -0.307223,-0.118912 z m 1.3719,0.02118 c -0.152302,-0.337658 -0.0242,-0.704903 0.255368,-0.732116 0.309619,-0.03014 0.424563,0.151051 0.263375,0.415139 -0.08833,0.144715 -0.0791,0.189886 0.05987,0.292915 0.142289,0.105488 0.145221,0.121814 0.02188,0.121814 -0.07834,0 -0.190007,-0.07617 -0.248157,-0.16929 -0.137691,-0.22048 -0.214682,-0.21411 -0.25584,0.02118 -0.02789,0.159411 -0.04362,0.167625 -0.0965,0.05038 z m 0.414306,-0.49478 c 0,-0.06857 -0.06666,-0.137483 -0.148132,-0.153177 -0.103934,-0.01998 -0.148132,0.0257 -0.148132,0.153177 0,0.127492 0.0442,0.173201 0.148132,0.153186 0.08147,-0.01571 0.148132,-0.08462 0.148132,-0.153186 z m 0.980123,0.49706 c -0.0096,-0.198399 0.234598,-0.750995 0.331904,-0.750995 0.09731,0 0.341527,0.552596 0.331906,0.750995 -0.0043,0.08773 -0.0222,0.09935 -0.04938,0.03202 -0.02348,-0.05823 -0.15062,-0.105804 -0.282528,-0.105804 -0.131908,0 -0.259046,0.04765 -0.282528,0.105804 -0.02718,0.06737 -0.04512,0.05576 -0.04938,-0.03202 z m 0.416551,-0.370088 c 0,-0.06985 -0.03809,-0.126972 -0.08465,-0.126972 -0.04655,0 -0.08464,0.05712 -0.08464,0.126972 0,0.06985 0.03809,0.126971 0.08464,0.126971 0.04655,0 0.08465,-0.05712 0.08465,-0.126971 z m 1.016695,0.37668 c 0.005,-0.653269 0.172295,-0.902866 0.337657,-0.503652 0.05785,0.139669 0.13493,0.253943 0.171283,0.253943 0.03635,0 0.105932,-0.114274 0.154621,-0.253943 0.110791,-0.317814 0.264576,-0.329734 0.272914,-0.02118 0.0035,0.12803 0.02227,0.318488 0.0418,0.423233 0.01953,0.104754 6.4e-5,0.190458 -0.04325,0.190458 -0.04332,0 -0.09078,-0.123795 -0.105487,-0.275103 l -0.02674,-0.275102 -0.162,0.296261 L 16.934493,30 16.805042,29.703729 c -0.124027,-0.283846 -0.130831,-0.28739 -0.162385,-0.08462 -0.03754,0.241229 -0.188427,0.442753 -0.186961,0.249708 z m 1.850584,0.06771 c -0.05689,-0.112336 -0.04176,-0.825308 0.01751,-0.825308 0.04282,0 0.07785,0.190458 0.07785,0.423234 0,0.349185 -0.03896,0.513446 -0.09537,0.402074 z m 1.089966,-0.07027 c -0.170161,-0.09911 -0.198809,-0.501218 -0.04655,-0.653465 0.123573,-0.123573 0.575599,-0.135604 0.575599,-0.01528 0,0.04893 -0.0885,0.06404 -0.204661,0.03492 -0.151805,-0.03808 -0.228243,-0.0077 -0.295961,0.119227 -0.136046,0.254209 -0.02705,0.436802 0.260734,0.436802 0.145032,0 0.227929,0.03552 0.197565,0.08462 -0.06658,0.107716 -0.295611,0.104531 -0.48672,-0.0068 z m 1.347297,0.03501 c -0.115888,-0.115888 -0.04981,-0.172765 0.155185,-0.133581 0.125746,0.02408 0.211618,8.54e-4 0.211618,-0.05618 0,-0.05311 -0.09523,-0.132821 -0.211618,-0.177069 -0.343333,-0.130532 -0.155623,-0.571159 0.190456,-0.447065 0.175181,0.06285 0.118911,0.180698 -0.06349,0.133 -0.236487,-0.06182 -0.210938,0.06285 0.05657,0.276187 0.149679,0.119355 0.20768,0.227499 0.17195,0.320606 -0.05292,0.137927 -0.399733,0.195026 -0.51068,0.08411 z M 4.7946463,29.513297 c 0.027145,-0.08146 0.6071069,-0.105812 2.5182465,-0.105812 1.9111395,0 2.4910991,0.02434 2.5182464,0.105812 0.0277,0.08308 -0.5130547,0.105804 -2.5182464,0.105804 -2.0051909,0 -2.5459429,-0.02271 -2.5182465,-0.105804 z m 17.3526217,0 c 0.02714,-0.08146 0.607107,-0.105812 2.518246,-0.105812 1.91114,0 2.491099,0.02434 2.518247,0.105812 0.02769,0.08308 -0.513055,0.105804 -2.518247,0.105804 -2.005192,0 -2.545942,-0.02271 -2.518246,-0.105804 z m -17.2674533,-2.835671 0.020638,-1.163897 0.2327793,-0.02681 0.2327794,-0.02681 v 0.979065 0.979058 H 5.95854 c 0.5755989,0 0.5925287,0.006 0.5925287,0.211617 0,0.211608 -3.5e-5,0.211616 -0.8459479,0.211616 h -0.845948 z m 2.6434405,1.015757 c 0.03255,-0.08146 0.2045253,-0.548088 0.3821663,-1.036925 0.1776418,-0.488837 0.3496164,-0.955448 0.3821654,-1.036925 0.039406,-0.09862 0.1512808,-0.148131 0.3347589,-0.148131 H 8.897924 l 0.3925409,1.122714 c 0.4630824,1.324477 0.4533721,1.247398 0.157159,1.247398 -0.1838043,0 -0.2563857,-0.05567 -0.331235,-0.253935 -0.088859,-0.235415 -0.1266609,-0.253944 -0.5181584,-0.253944 -0.3931258,0 -0.4284234,0.01759 -0.5108312,0.253944 -0.073169,0.209883 -0.1349163,0.253935 -0.355924,0.253935 -0.2207815,0 -0.2570833,-0.02579 -0.2082201,-0.148131 z M 8.8724733,26.804589 C 8.8394111,26.699844 8.764859,26.480815 8.7068089,26.317869 L 8.6012644,26.021608 8.501124,26.275551 c -0.2418193,0.613222 -0.2242533,0.719496 0.1189197,0.719496 0.2855063,0 0.3073468,-0.01648 0.2524296,-0.190458 z m 1.8262977,-0.148131 v -1.185056 l 0.275101,0.0017 c 0.25489,8.54e-4 0.306202,0.05397 0.698338,0.717258 0.524995,0.888009 0.550204,0.888051 0.550204,8.54e-4 0,-0.711042 0.0025,-0.719504 0.211618,-0.719504 h 0.211618 v 1.185056 1.185064 l -0.23278,-0.0026 c -0.201059,-0.0026 -0.296218,-0.10588 -0.698336,-0.760951 -0.570102,-0.928712 -0.552829,-0.928764 -0.538345,0.0017 l 0.01186,0.761865 H 10.94341 10.698771 v -1.185056 z m 3.030588,-0.0077 -0.02562,-1.193005 0.69674,0.02912 c 0.982919,0.04107 1.25014,0.293299 1.25014,1.179984 0,0.869786 -0.329862,1.176918 -1.263999,1.176918 h -0.631633 l -0.02562,-1.193005 z m 1.300902,0.629693 c 0.464424,-0.420296 0.121067,-1.383557 -0.493175,-1.383557 h -0.367791 v 0.761822 0.761822 h 0.353084 c 0.209762,0 0.415918,-0.05687 0.507882,-0.140087 z m 1.695602,-0.597672 0.02516,-1.166792 0.867631,-0.02416 c 0.477197,-0.01324 0.867631,0.0094 0.867631,0.05038 0,0.205939 -0.331141,0.354668 -0.789649,0.354668 -0.476963,0 -0.480055,0.0017 -0.480055,0.253943 0,0.214435 0.03292,0.253944 0.211617,0.253944 0.169294,0 0.211617,0.04235 0.211617,0.211616 0,0.16929 -0.04233,0.211617 -0.211617,0.211617 -0.184927,0 -0.211617,0.03689 -0.211617,0.292701 v 0.292701 l 0.656014,0.02476 c 0.591341,0.02229 0.656013,0.04141 0.656013,0.19401 0,0.157361 -0.06445,0.170997 -0.913956,0.193361 l -0.913955,0.02408 0.02516,-1.1668 z m 2.776188,-0.02408 v -1.185055 h 0.253941 0.25394 v 0.973438 0.973439 h 0.592529 c 0.5756,0 0.592529,0.006 0.592529,0.211617 v 0.211632 h -0.846469 -0.84647 z m 3.246786,1.062661 c -0.192041,-0.08359 -0.291733,-0.09009 -0.358338,-0.02348 -0.124337,0.124342 -0.227512,0.0091 -0.114153,-0.127416 0.06409,-0.07719 0.0563,-0.168487 -0.02726,-0.31947 -0.529071,-0.955968 0.197252,-1.77734 1.571674,-1.77734 h 0.675462 l -1.7e-4,0.698336 c -2.53e-4,1.32534 -0.744801,1.985576 -1.747251,1.54938 z m 0.902609,-0.344036 c 0.32946,-0.170366 0.421539,-0.366374 0.421539,-0.89729 v -0.443736 l -0.624358,0.586308 c -0.703052,0.660193 -0.719485,0.688926 -0.45489,0.795277 0.2733,0.10986 0.379502,0.103311 0.657709,-0.04056 z m -0.342743,-0.84312 c 0.719474,-0.724303 0.718884,-0.717259 0.05362,-0.64076 -0.723106,0.08317 -1.012631,0.454443 -0.844269,1.082685 0.07266,0.271132 0.09448,0.25893 0.790658,-0.441925 z m 2.118633,0.124495 v -1.185055 h 0.84647 c 0.465558,0 0.84647,0.03219 0.84647,0.07156 0,0.194821 -0.333365,0.351704 -0.747326,0.351704 -0.429938,0 -0.437732,0.0043 -0.437732,0.253943 0,0.197511 0.03762,0.253944 0.169294,0.253944 0.124149,0 0.169294,0.05644 0.169294,0.211617 0,0.155183 -0.04515,0.211616 -0.169294,0.211616 -0.150484,0 -0.169294,0.05644 -0.169294,0.507879 v 0.507878 H 25.681277 25.427336 Z M 4.8369696,23.898669 c -0.034915,-0.03492 -0.063486,-1.544957 -0.063486,-3.355607 V 17.250975 L 4.5269732,16.938515 C 3.9707369,16.233467 3.8938545,15.366524 4.3109111,14.502151 c 0.3242998,-0.67213 0.4943318,-0.790632 0.7679615,-0.535237 0.7576091,0.707132 0.8264095,2.119157 0.146646,3.009693 l -0.280775,0.367833 -0.022141,3.308875 c -0.012176,1.81988 -0.050712,3.280294 -0.08563,3.245354 z M 4.6106636,16.379002 C 4.3917393,16.14597 4.3780405,15.998155 4.5934323,16.193087 c 0.2965581,0.268374 0.2976049,-0.158514 0.0012,-0.496086 -0.1375445,-0.156653 -0.215028,-0.306491 -0.1721855,-0.33297 0.042839,-0.02647 0.1249686,0.0085 0.1825004,0.07787 0.169833,0.204632 0.217348,0.147328 0.1823279,-0.219891 -0.018145,-0.190261 0.00942,-0.388336 0.061249,-0.440166 0.069215,-0.06925 0.094237,0.03774 0.094237,0.403005 v 0.497248 l 0.2116167,-0.198809 c 0.1561787,-0.146722 0.2116177,-0.165541 0.2116177,-0.07181 0,0.06985 -0.095228,0.216433 -0.2116177,0.325772 -0.1163896,0.109339 -0.2116167,0.28739 -0.2116167,0.395662 0,0.234705 0.069215,0.250323 0.2165265,0.04884 0.059524,-0.08137 0.1371253,-0.11909 0.1724545,-0.08376 0.035334,0.03535 -0.037741,0.170673 -0.1623727,0.300762 -0.258341,0.269655 -0.3336514,0.717488 -0.086224,0.512737 0.5914365,-0.489435 0.6033063,-1.891239 0.022918,-2.706326 -0.3326037,-0.467098 -0.8755391,0.347375 -0.8772904,1.316049 -0.00128,0.687304 0.4638371,1.819607 0.5283912,1.286445 0.019195,-0.158531 -0.031175,-0.305919 -0.1465153,-0.42869 z m 1.6018193,6.166687 c 0,-1.345422 -0.0082,-1.413254 -0.2016247,-1.671775 -0.6972321,-0.931795 -0.7142858,-2.126636 -0.041294,-2.893129 0.3223067,-0.367091 0.433656,-0.370558 0.6914018,-0.02152 0.6411333,0.868173 0.6465452,1.984107 0.013645,2.813249 l -0.292836,0.383639 v 1.395938 c 0,0.874201 -0.031636,1.395947 -0.084645,1.395947 -0.053026,0 -0.084645,-0.523872 -0.084645,-1.402325 z M 5.9929592,20.2153 C 5.7329079,19.943861 5.775408,19.769593 6.0426722,20.011462 6.319883,20.262332 6.279188,19.723193 6.0011992,19.462043 5.753284,19.229139 5.7926119,19.107982 6.0426722,19.334285 c 0.1678751,0.151922 0.1698134,0.148755 0.1698134,-0.277681 0,-0.237242 0.038092,-0.454895 0.084645,-0.483671 0.052659,-0.03253 0.084645,0.130464 0.084645,0.431362 0,0.478804 0.00171,0.482126 0.1698134,0.32999 0.2630818,-0.238087 0.3117682,-0.06968 0.056792,0.196444 -0.3427504,0.357749 -0.3048544,0.781828 0.041831,0.468079 0.237772,-0.215177 0.1836685,-8.54e-4 -0.056817,0.224741 -0.2032009,0.190893 -0.294396,0.592532 -0.1345414,0.592532 0.042387,0 0.1757103,-0.197938 0.2962644,-0.439859 0.3669713,-0.736419 0.2738933,-1.721564 -0.216082,-2.28702 L 6.2980672,17.811111 6.0868748,18.065054 c -0.5720868,0.687885 -0.6044215,1.775718 -0.076089,2.559801 l 0.1573707,0.233544 0.029245,-0.199585 C 6.2165115,20.528401 6.1456475,20.374677 5.9929556,20.2153 Z m 2.3534129,2.956223 C 8.3304388,22.43518 8.3073157,22.327344 8.1167505,22.100878 7.427713,21.282 7.3713767,20.064386 7.9820409,19.189297 8.2727652,18.772681 8.3713472,18.746689 8.6246547,19.01987 c 0.739862,0.797916 0.7391721,2.291982 -0.00145,3.06709 C 8.4412662,22.277383 8.4169485,22.388652 8.39197,23.145052 L 8.364057,23.990341 8.346339,23.171523 Z m -0.017718,-1.333187 c 0,-0.08954 -0.099967,-0.281609 -0.2221503,-0.426811 -0.2308469,-0.274343 -0.2352948,-0.448269 -0.00555,-0.218568 0.3176079,0.317609 0.3187077,-0.145697 0.00111,-0.477173 -0.2549725,-0.266137 -0.2062869,-0.43453 0.0568,-0.196443 0.1681381,0.152161 0.1698126,0.148823 0.1698126,-0.339101 0,-0.271038 0.02583,-0.466952 0.057406,-0.435384 0.031576,0.03159 0.048372,0.255361 0.037332,0.497299 -0.020058,0.439568 -0.019938,0.439782 0.1547297,0.281703 0.2666919,-0.241349 0.3195573,-0.07711 0.061787,0.191926 -0.1246347,0.130089 -0.2266083,0.320145 -0.2266083,0.422354 0,0.216655 0.1038231,0.239735 0.2556394,0.05678 0.058892,-0.07096 0.1254305,-0.110654 0.147867,-0.08821 0.02244,0.02246 -0.059174,0.159599 -0.1813562,0.304801 -0.3065885,0.364358 -0.3155585,0.744172 -0.00936,0.396174 0.5931606,-0.67412 0.5412695,-1.977677 -0.1077364,-2.706412 -0.4032759,-0.452812 -0.9994916,1.130647 -0.7495032,1.99058 0.1775376,0.610711 0.5597987,1.120434 0.5597987,0.746469 z m 15.2364489,1.300568 c 0,-0.766791 -0.01295,-0.825453 -0.247634,-1.121569 -0.700267,-0.883594 -0.621189,-2.397376 0.162223,-3.105361 l 0.186828,-0.168837 0.207876,0.253482 c 0.761088,0.928089 0.805918,2.194486 0.106647,3.012655 -0.235324,0.275342 -0.246258,0.324739 -0.246448,1.113432 -8.5e-5,0.493645 -0.03421,0.825308 -0.08484,0.825308 -0.05052,0 -0.08465,-0.326139 -0.08465,-0.80911 z m -0.219524,-1.738548 c -0.260051,-0.271439 -0.217551,-0.445708 0.04971,-0.203838 0.166007,0.150232 0.169813,0.148549 0.169813,-0.07514 0,-0.144596 -0.08567,-0.302538 -0.232779,-0.429151 -0.128029,-0.110202 -0.204444,-0.228763 -0.169813,-0.263473 0.03463,-0.03467 0.139382,0.006 0.232779,0.09056 0.168083,0.152119 0.169813,0.148806 0.169813,-0.324994 0,-0.263277 0.03809,-0.478676 0.08465,-0.478676 0.04655,0 0.08464,0.215399 0.08464,0.478676 0,0.4738 0.0017,0.477113 0.169813,0.324994 0.0934,-0.08453 0.19444,-0.129046 0.22454,-0.09895 0.0301,0.03006 -0.04631,0.134204 -0.169813,0.23135 -0.156191,0.122856 -0.22454,0.256044 -0.22454,0.437536 0,0.255822 0.0033,0.257914 0.169813,0.107238 0.267262,-0.241869 0.309762,-0.06763 0.04971,0.203838 -0.154478,0.161238 -0.223148,0.311572 -0.202583,0.443514 0.02963,0.190073 0.0401,0.185471 0.219739,-0.09668 0.511328,-0.803107 0.411524,-2.121214 -0.198975,-2.627888 -0.302575,-0.251118 -0.799527,0.657094 -0.799527,1.461183 0,0.643645 0.508869,1.755054 0.578451,1.263382 0.01834,-0.129585 -0.05373,-0.285153 -0.205446,-0.443514 z m 2.25105,1.145333 c 0,-1.345422 -0.0082,-1.413254 -0.201625,-1.671775 -0.662028,-0.884746 -0.70544,-1.901229 -0.118043,-2.763911 0.320276,-0.470377 0.433667,-0.496847 0.731478,-0.170793 0.691672,0.757288 0.69002,2.104836 -0.0037,2.959637 l -0.238885,0.294392 v 1.377384 c 0,0.861828 -0.03169,1.377391 -0.08465,1.377391 -0.05303,0 -0.08464,-0.523871 -0.08464,-1.402325 z m 0.556258,-2.164796 c 0.370339,-0.730826 0.217488,-1.930073 -0.306432,-2.404215 -0.413231,-0.373965 -0.997821,1.11105 -0.767871,1.950609 0.145404,0.530874 0.460647,0.991072 0.501104,0.731527 0.02059,-0.13207 -0.04824,-0.282421 -0.203429,-0.444402 -0.179803,-0.187674 -0.202192,-0.244807 -0.09594,-0.244807 0.07623,0 0.177427,0.06669 0.224879,0.148131 0.07162,0.122976 0.08672,0.101996 0.08885,-0.123539 0.0018,-0.188605 -0.06735,-0.336522 -0.226128,-0.483748 -0.125787,-0.116631 -0.202203,-0.238565 -0.169814,-0.270953 0.03239,-0.03236 0.135307,0.01025 0.228704,0.09479 0.167899,0.151948 0.169813,0.148763 0.169813,-0.282676 0,-0.239991 0.03809,-0.436349 0.08465,-0.436349 0.04655,0 0.08464,0.190449 0.08464,0.423233 0,0.457406 0.0274,0.492569 0.22774,0.292232 0.233693,-0.23369 0.232619,-0.04397 -0.0011,0.200004 -0.287263,0.299839 -0.339653,0.821363 -0.05679,0.565378 0.253724,-0.229616 0.287267,-0.103097 0.04264,0.160863 -0.116853,0.126083 -0.212458,0.324755 -0.212458,0.441498 0,0.29399 0.131921,0.185727 0.386964,-0.317575 z m 0.88274,0.220028 c 0,-3.297159 -0.0026,-3.349886 -0.179794,-3.534008 -0.586546,-0.609781 -0.719759,-1.790166 -0.290755,-2.576332 0.356613,-0.653507 0.507363,-0.769729 0.733262,-0.565293 0.792756,0.717437 0.880855,2.145362 0.188338,3.052608 l -0.281757,0.369123 v 3.300498 c 0,2.143901 -0.02966,3.300497 -0.08464,3.300497 -0.05501,0 -0.08464,-1.172128 -0.08464,-3.347093 z m 0,-3.799078 c 0,-0.112823 -0.09861,-0.322322 -0.219142,-0.46556 -0.233601,-0.277622 -0.193114,-0.353344 0.06435,-0.120346 0.263996,0.238915 0.208518,-0.314056 -0.05648,-0.563013 -0.247914,-0.232904 -0.208587,-0.354053 0.04147,-0.127749 0.168084,0.15211 0.169814,0.148805 0.169814,-0.325003 0,-0.263268 0.03809,-0.478676 0.08465,-0.478676 0.04655,0 0.08464,0.190457 0.08464,0.423233 0,0.436768 0.07024,0.517613 0.255638,0.294221 0.05889,-0.07096 0.125432,-0.110654 0.147868,-0.08822 0.02244,0.02246 -0.05917,0.159599 -0.181356,0.30481 -0.280553,0.333414 -0.324557,0.793168 -0.05233,0.546815 0.263082,-0.238087 0.311768,-0.06968 0.0568,0.196435 -0.124635,0.130097 -0.225239,0.329674 -0.223565,0.443513 l 0.0031,0.206989 0.20135,-0.246276 c 0.488151,-0.597058 0.507951,-1.700995 0.04349,-2.424794 -0.722982,-1.126667 -1.366239,1.177772 -0.656996,2.35364 0.198485,0.329077 0.236772,0.340391 0.236772,0.07002 z m -14.298821,6.716423 c -0.143248,-0.143247 -0.26471,-0.324175 -0.269914,-0.402075 -0.03699,-0.553638 -0.113174,-0.815847 -0.41541,-1.429768 C 11.65086,20.872659 10.727525,19.842403 9.6325381,18.98738 9.2528516,18.690896 8.8829154,18.357841 8.8104587,18.247264 8.7253526,18.117372 8.5643239,18.0278 8.3555539,17.994208 7.4218127,17.843977 6.80006,16.605374 7.1899607,15.672213 c 0.3333543,-0.79783 1.3219495,-1.261504 2.1332949,-1.000558 0.1838119,0.05909 0.1904909,0.04261 0.1914609,-0.473493 0.00623,-3.299464 3.1908575,-5.016136 6.9310455,-3.736146 1.21348,0.415283 2.034427,0.445374 2.343925,0.0859 0.277251,-0.322023 0.267238,-0.34238 -0.225999,-0.459549 C 16.888389,9.6904169 15.181074,8.0356425 14.876966,6.5151065 l -0.05701,-0.285076 0.587992,0.049269 c 0.323395,0.027068 0.790325,0.1261777 1.037622,0.2201385 l 0.449632,0.1708441 -0.05234,-0.1855906 c -0.306334,-1.0861082 -0.254798,-2.1387787 0.100347,-2.0496423 1.72447,0.4328141 3.387334,2.3213807 4.042038,4.5906745 l 0.214622,0.7438992 1.90364,1.9067531 1.90364,1.906754 -0.246556,0.38878 c -0.802213,1.264953 -2.569259,1.617647 -3.947273,0.787857 -0.543242,-0.32713 -0.682458,-0.350543 -0.953836,-0.16047 -0.333009,0.233254 -0.236541,0.507443 0.698164,1.984406 1.779603,2.812019 1.790209,2.838575 1.321039,3.307747 -0.588656,0.588655 -0.934517,0.382247 -1.996656,-1.191571 -0.361326,-0.53539 -0.693213,-1.019471 -0.737527,-1.075733 -0.05686,-0.07224 -0.169622,0.07728 -0.383163,0.507878 -0.825463,1.66456 -2.887461,2.861911 -4.730549,2.746928 -0.782691,-0.04884 -0.772288,-0.05379 -0.550381,0.262619 0.392721,0.559974 0.858187,1.52823 0.858187,1.785179 0,0.748638 -1.05504,1.138229 -1.60178,0.59149 z m 0.661431,-0.457782 c -0.01183,-0.255361 0.0065,-0.492329 0.04079,-0.526595 0.112648,-0.112644 0.219722,0.179237 0.223764,0.609976 l 0.0039,0.423234 0.208942,-0.237498 c 0.325738,-0.370259 0.26717,-0.564064 -0.652934,-2.16068 -1.713937,-2.97412 -1.671856,-2.89225 -1.486616,-2.89225 0.05845,0 0.395601,0.5039 0.74923,1.119777 0.726414,1.265115 0.675888,1.229671 1.768558,1.240762 3.178898,0.03228 5.855968,-3.517246 4.029931,-5.343283 -0.810305,-0.810305 -2.291343,-0.93071 -3.799316,-0.308873 -0.853827,0.352097 -1.102999,0.260544 -0.336424,-0.123608 2.365353,-1.185329 4.921571,-0.255139 4.963412,1.80615 0.01304,0.642237 1.66356,3.163912 2.11718,3.234638 0.224119,0.03492 0.236065,-0.280875 0.02663,-0.704168 -0.09141,-0.184754 -0.142615,-0.359483 -0.113799,-0.388301 0.10784,-0.107837 0.396479,0.269134 0.446742,0.583472 0.06654,0.416121 0.159849,0.472494 0.268096,0.161981 0.105893,-0.303767 0.16258,-0.194129 -1.280331,-2.47624 -1.279046,-2.022941 -1.338595,-2.190566 -0.92507,-2.6041 0.128476,-0.128474 0.280781,-0.249341 0.338454,-0.268587 0.07652,-0.02553 0.05516,-0.135442 -0.07903,-0.406651 -0.192453,-0.388951 -0.25538,-0.952545 -0.114445,-1.025022 0.04526,-0.02331 0.110613,0.123496 0.14521,0.326165 0.345347,2.022966 3.543065,2.569594 4.585946,0.783937 l 0.165944,-0.284094 -1.685544,-1.680331 c -1.81434,-1.808737 -1.812513,-1.807285 -1.812513,-1.438068 0,0.297492 -0.07529,0.514803 -0.178351,0.514803 -0.04157,0 -0.07559,-0.276921 -0.07559,-0.61539 0,-2.0645249 -1.504061,-4.4922303 -3.361902,-5.4264334 -0.703287,-0.3536427 -0.734651,-0.3340547 -0.666651,0.4163598 0.139,1.5339249 0.926363,3.0703346 2.146313,4.1881985 0.501452,0.4594891 0.603647,0.6754441 0.319638,0.6754441 -0.06249,0 -0.193376,0.135186 -0.290862,0.300411 -0.379125,0.642569 -1.102418,0.68978 -2.645599,0.172689 -2.25623,-0.7560246 -4.169628,-0.544826 -5.402172,0.596297 -1.4599389,1.351647 -1.698908,3.685887 -0.548548,5.358217 0.313774,0.456151 0.262049,0.635218 -0.100996,0.349646 -0.5791987,-0.455604 -1.469089,-0.02314 -1.469089,0.713997 0,0.347605 0.1251197,0.50746 0.7872378,1.005784 1.5625072,1.175979 2.9272762,2.97867 2.9352172,3.877062 0.0044,0.492201 0.286887,0.90693 0.621837,0.912779 0.133393,0.0026 0.151359,-0.06011 0.132762,-0.461607 z m 8.466142,-9.915086 c -0.09229,-0.11179 -0.09531,-0.152409 -0.01338,-0.179981 0.05819,-0.01955 0.105809,-0.111414 0.105809,-0.20406 0,-0.204956 0.234333,-0.183242 0.371405,0.03441 0.193367,0.307055 -0.233405,0.628729 -0.463836,0.349621 z M 8.6672419,17.680766 c 0,-0.558898 0.5619487,-1.097038 1.1455842,-1.097038 0.1691372,0 0.2928169,-0.02861 0.2748419,-0.06353 C 9.9047658,16.164884 9.7257006,15.711653 9.6445488,15.39863 9.5292034,14.953717 9.1368496,14.754788 8.5651829,14.851371 7.1270802,15.094333 6.8649027,17.088857 8.1918577,17.691448 8.6328451,17.891717 8.6672419,17.89094 8.6672419,17.680689 Z M 18.603474,9.4531667 C 18.021219,8.8313892 17.6062,8.2408638 17.26198,7.5443634 16.931151,6.8749566 16.56577,6.6596596 15.559908,6.5414401 l -0.46812,-0.05499 0.220506,0.4986054 c 0.631085,1.4269937 1.643893,2.3540242 3.047022,2.7889559 0.743321,0.2304106 0.750955,0.2203776 0.244158,-0.3208193 z M 4.8118861,12.541842 C 5.6738741,1.6146874 19.785299,-1.9531767 25.53612,7.3020241 c 1.145295,1.8432083 2.211927,5.9804719 1.54183,5.9804719 -0.100458,0 -0.12697,-0.12061 -0.12697,-0.577606 0,-4.8091128 -3.964661,-9.3439949 -9.014899,-10.3114737 C 11.527406,1.1657094 5.0274239,6.4517657 5.0274239,12.891292 c 0,0.304015 -0.030526,0.391204 -0.1369818,0.391204 -0.120227,0 -0.1298357,-0.0906 -0.078556,-0.740654 z"
     /></svg>
