<svg
   width="32"
   height="32"
   viewBox="0 0 32 32"
   fill="currentColor"
   color="#000">
   <g
     transform="translate(-1176)"><path
       d="m 1205.98,8.3309984 a 0.5,0.5 0 0 1 0.02,0.12 v 6.0110006 a 0.427,0.427 0 0 1 -0.224,0.38 l -5.193,2.9 v 5.758 a 0.427,0.427 0 0 1 -0.224,0.38 l -10.843,6.065 a 0.735,0.735 0 0 1 -0.082,0.03 c -0.01,0 -0.02,0.01 -0.03,0.01 a 0.467,0.467 0 0 1 -0.235,0 c -0.01,0 -0.02,-0.01 -0.03,-0.01 -0.01,0 -0.051,-0.02 -0.071,-0.03 l -10.834,-6.061 a 0.438,0.438 0 0 1 -0.234,-0.384 V 5.4709984 a 0.5,0.5 0 0 1 0.02,-0.12 c 0,-0.01 0.011,-0.02 0.021,-0.04 0.01,-0.02 0.02,-0.05 0.03,-0.07 0.01,-0.02 0.021,-0.03 0.031,-0.04 a 0.1,0.1 0 0 1 0.041,-0.05 c 0.01,-0.01 0.03,-0.02 0.04,-0.03 0.01,-0.01 0.031,-0.02 0.041,-0.03 l 5.417,-3.031 a 0.448,0.448 0 0 1 0.448,0 l 5.416,3.031 a 0.166,0.166 0 0 1 0.051,0.04 c 0.011,0.01 0.031,0.02 0.041,0.03 a 0.181,0.181 0 0 1 0.041,0.05 0.138,0.138 0 0 1 0.03,0.04 0.392,0.392 0 0 1 0.031,0.07 c 0,0.01 0.01,0.02 0.02,0.04 a 0.524,0.524 0 0 1 0.021,0.11 V 16.732999 l 4.51,-2.533 V 8.4509984 a 0.331,0.331 0 0 1 0.021,-0.11 c 0,-0.01 0.01,-0.02 0.02,-0.04 0.01,-0.02 0.02,-0.05 0.03,-0.07 0.01,-0.02 0.021,-0.03 0.031,-0.04 a 0.1,0.1 0 0 1 0.041,-0.05 c 0.01,-0.01 0.03,-0.02 0.04,-0.03 0.01,-0.01 0.031,-0.03 0.051,-0.04 l 5.416,-3.03 a 0.448,0.448 0 0 1 0.448,0 l 5.417,3.03 a 0.193,0.193 0 0 1 0.051,0.04 c 0.01,0.01 0.03,0.02 0.04,0.03 a 0.164,0.164 0 0 1 0.041,0.05 0.139,0.139 0 0 1 0.031,0.04 0.488,0.488 0 0 1 0.03,0.07 c 0.011,0.01 0.022,0.02 0.022,0.03 z m -0.886,5.8810006 V 9.2119984 l -1.894,1.0590006 -2.617,1.471 v 5 z m -5.417,9.042 v -5 l -2.577,1.429 -7.36,4.081 v 5.051 c 0,-0.01 9.937,-5.561 9.937,-5.561 z M 1178.906,6.2309984 V 23.253999 l 9.938,5.561 v -5.051 l -5.193,-2.851 c -0.02,-0.02 -0.041,-0.03 -0.051,-0.05 -0.01,-0.02 -0.031,-0.02 -0.041,-0.03 -0.01,-0.01 -0.02,-0.03 -0.04,-0.05 -0.02,-0.02 -0.021,-0.03 -0.031,-0.04 a 0.169,0.169 0 0 1 -0.02,-0.05 c -0.011,-0.02 -0.021,-0.03 -0.021,-0.05 a 0.127,0.127 0 0 1 -0.01,-0.06 c 0,-0.02 -0.01,-0.03 -0.01,-0.05 V 8.7509984 l -2.627,-1.46 z m 4.969,-3.291 -4.521,2.531 4.511,2.52 4.51,-2.53 z m 2.342,15.7600006 2.616,-1.46 V 6.2309984 l -1.893,1.06 -2.617,1.46 V 19.762999 Z m 13.908,-12.7790006 -4.51,2.53 4.51,2.5210006 4.511,-2.5310006 c 0.01,0.01 -4.511,-2.52 -4.511,-2.52 z m -0.448,5.8110006 -2.617,-1.471 -1.893,-1.0610006 v 5.0000006 l 2.616,1.46 1.894,1.061 z m -10.385,11.268 6.618,-3.671 3.309,-1.84 -4.511,-2.521 -5.192,2.9 -4.735,2.65 z"
        /></g></svg>
