<svg
   width="32"
   height="32"
   viewBox="0 0 32 32"
   fill="currentColor"
   color="#000">
   <g
     transform="translate(-84)"><path
       
       d="m 86,2.08496 v 27.83008 h 28 V 2.08496 Z m 2.345703,2.33398 H 111.65234 V 27.58301 H 88.345703 Z m 6.802734,5.03711 -2.167968,0.0508 h -0.04883 c -0.200839,0.0108 -0.16254,0.0953 -0.167968,0.21289 v 0.041 c 0.0054,1.63929 0.03558,10.75447 0.04102,12.48242 v 0.0723 c -0.0018,0.2515 0.186013,0.20493 0.265625,0.20312 l 6.662114,-0.0176 c 0.26778,-0.005 0.331,-0.0893 0.36718,-0.2539 l 0.3418,-1.7207 c 0.0253,-0.12123 0.0244,-0.27063 -0.20898,-0.25977 H 95.367191 V 9.70019 c -0.0054,-0.10676 0.01646,-0.25137 -0.21875,-0.24414 z m 11.646483,3.09375 c -1.0042,0.0326 -1.29558,0.11328 -1.99219,0.70313 -0.15017,0.12666 -0.58789,0.65429 -0.58789,0.65429 0,-0.63869 -0.14494,-1.0727 -0.32226,-1.20117 -0.12123,-0.0887 -0.15276,-0.084 -0.33008,-0.084 h -0.33789 l -1.41211,-0.0195 c -0.15561,0.0271 -0.16558,0.0629 -0.16016,0.24023 0.0181,0.79974 0.10547,1.36494 0.10547,2.36914 l 0.006,7.32227 2.54883,0.0117 0.008,-6.29688 -0.008,-0.27734 c 0.92278,-0.80697 1.52041,-1.07373 2.78516,-1.04297 0.10313,0.002 0.13476,0.002 0.13476,-0.125 v -1.85156 c 0.009,-0.32749 -0.063,-0.41502 -0.4375,-0.40235 z" /></g></svg>
