<svg
   width="32"
   height="32"
   viewBox="0 0 32 32"
   fill="currentColor"
   color="#000">
   <g
     transform="translate(-714,-45.299026)"><path
       d="m 716,61.299026 v -14 h 14 14 v 14 14 h -14 -14 z m 15.18114,4.65856 c 0.64761,-1.33924 0.94062,-1.94446 1.2356,-2.55207 1.25391,-2.58298 1.62096,-3.35626 1.59982,-3.37038 -0.0656,-0.0437 -1.55895,-0.0117 -1.5874,0.0344 -0.0159,0.0257 -0.36847,0.80115 -0.78345,1.7234 -0.41497,0.92225 -0.76319,1.67693 -0.77379,1.67708 -0.0105,1.3e-4 -0.36573,-0.769 -0.78915,-1.70922 -0.42341,-0.94023 -0.77598,-1.71587 -0.78347,-1.72367 -0.0194,-0.0202 -1.53599,-0.0217 -1.5685,-10e-4 -0.0239,0.0148 0.5999,1.32209 2.40431,5.03892 0.30286,0.62384 0.58785,1.21812 0.6333,1.32061 0.0455,0.10255 0.089,0.18634 0.0968,0.18634 0.008,0 0.14995,-0.28074 0.31587,-0.62384 z m 6.39537,0.36254 c 0.83955,-0.0919 1.44766,-0.37723 1.96029,-0.91973 0.16,-0.16931 0.44469,-0.56977 0.44469,-0.62551 0,-0.0287 -1.16823,-0.70442 -1.17939,-0.68215 -0.57432,1.14674 -2.18511,1.32095 -2.84259,0.30743 -0.12447,-0.19187 -0.26677,-0.5765 -0.30506,-0.82452 l -0.0212,-0.13774 h 2.20656 2.20655 v -0.26052 c 0,-2.02219 -1.10824,-3.3165 -2.83564,-3.31179 -1.81417,0.005 -3.07676,1.50449 -3.01902,3.50751 0.0505,1.75406 1.46028,3.15773 3.38487,2.94702 z m -1.8197,-4.074 c -0.008,-0.0138 0.0292,-0.13223 0.0839,-0.26314 0.50783,-1.21639 2.26443,-1.19383 2.67922,0.0344 0.0374,0.11083 0.0681,0.21337 0.0681,0.22773 0,0.0335 -2.81044,0.0345 -2.83115,10e-4 z m -10.87718,3.21725 v -0.69676 h -1.42593 -1.42592 v -4.16435 -4.16435 h -0.74537 -0.74537 v 4.86111 4.86112 h 2.17129 2.1713 z m 2.2037,-2.36227 c 0,-2.41895 -0.008,-3.06165 -0.0405,-3.07154 -0.0337,-0.0105 -1.21525,-0.008 -1.34491,0.002 -0.0321,0.002 -0.0405,0.63922 -0.0405,3.06584 v 3.0625 h 0.71296 0.71296 v -3.05904 z m -0.30764,-4.79494 c 0.41836,-0.19482 0.61053,-0.68244 0.45432,-1.15277 -0.23606,-0.71067 -1.24939,-0.80248 -1.65293,-0.14978 -0.12205,0.19742 -0.14483,0.69336 -0.0406,0.88409 0.18275,0.3344 0.45218,0.49402 0.83389,0.49402 0.18659,0 0.28076,-0.0176 0.40532,-0.0756 z" /></g></svg>
