<svg
   width="32"
   height="32"
   viewBox="0 0 32 32"
   fill="currentColor"
   color="#000">
   <g
     transform="translate(-210,-45.299026)"><path
       
       d="m 212,47.292271 v 28.01015 h 8.09744 c 0.0251,-0.34103 0.0568,-0.6806 0.0946,-1.01979 0.1133,-1.01756 0.2856,-2.02739 0.52678,-3.03231 0.32849,-1.39349 0.7585,-2.75833 1.31693,-4.07575 0.44433,-1.02696 0.88976,-2.05351 1.3946,-3.04244 0.59647,-1.17219 1.26339,-2.31129 1.89098,-3.46792 0.0225,-0.0294 0.0314,-0.0612 0.0608,-0.11482 -0.40629,-0.25242 -0.81123,-0.49063 -1.20888,-0.73613 -0.90421,0.58091 -1.81582,0.26832 -2.57308,-0.37481 -0.81258,-0.68983 -1.40156,-1.55595 -1.96864,-2.45152 -0.62067,-0.98201 -1.07524,-2.02194 -1.37433,-3.13362 -0.39765,-1.47129 -0.57362,-2.97279 -0.52002,-4.50459 0,-0.0536 0.0167,-0.0997 0.0236,-0.16884 0.0692,0.0156 0.14414,0.0162 0.18909,0.0473 0.75034,0.491 1.5265,0.94793 2.2388,1.49253 0.63623,0.48237 1.24828,1.02642 1.7998,1.60732 0.69847,0.73651 1.29487,1.55729 1.73228,2.46842 0.34403,0.72786 0.68088,1.44791 0.94885,2.19825 0.26107,0.71922 0.33714,1.47024 0,2.20502 -0.0233,0.0467 0.006,0.1351 0.0473,0.19248 0.0138,0.0191 0.0288,0.0378 0.0439,0.0473 0.2991,0.20054 0.61377,0.36525 0.93535,0.55716 0.28353,-0.46853 0.5627,-0.90959 0.83068,-1.36083 0.74342,-1.29495 1.51315,-2.58422 2.21852,-3.91028 0.70366,-1.33298 1.33464,-2.70106 1.73228,-4.15677 0.21438,-0.78146 0.39958,-1.56522 0.56729,-2.3536 0.007,-0.0242 0.0167,-0.0599 0.0237,-0.0979 -2e-5,-0.0156 0.007,-0.0385 0.007,-0.054 v -0.0169 c 0.038,-0.2455 0.0451,-0.49721 0.0675,-0.74963 v -0.003 z m 20.51037,0.0101 c -0.0536,1.14972 -0.22297,2.29193 -0.50651,3.41052 -0.2991,1.22579 -0.70669,2.40938 -1.24265,3.55909 -0.491,1.04944 -0.98901,2.09975 -1.50941,3.13362 -0.65871,1.26383 -1.36396,2.50464 -2.02267,3.76846 -0.52904,1.02005 -1.04878,2.0472 -1.53979,3.08973 -0.5446,1.13415 -1.05554,2.29103 -1.54655,3.44766 -0.22129,0.5204 -0.38082,1.06932 -0.55717,1.62084 -0.0156,0.0622 -0.0269,0.20714 0.11143,0.22961 0.32158,0.0536 0.58355,0.0634 0.89821,0.0946 0.11411,-1.22579 0.96314,-1.87902 1.86735,-2.46166 1.50241,-0.97164 3.15819,-1.56897 4.91993,-1.83695 0.85927,-0.12275 1.75534,-0.0899 2.64399,-0.0743 0.61203,0 1.2298,0.0915 1.85045,0.15195 0.10719,0.007 0.20977,0.0445 0.40859,0.0912 -0.56708,0.66736 -1.07475,1.28793 -1.61071,1.87748 -0.88865,0.97337 -1.90607,1.83216 -3.0627,2.4684 -1.24999,0.68291 -2.56672,1.17272 -3.99133,1.41823 -0.59128,0.10027 -1.15169,0.12249 -1.71876,-0.0608 -0.42012,-0.14696 -0.79511,-0.35144 -1.0164,-0.77329 -0.0225,-0.0536 -0.10158,-0.0944 -0.16209,-0.10129 -0.35961,-0.0622 -0.71082,-0.10849 -1.07043,-0.16209 -0.20055,-0.038 -0.30755,0.0166 -0.36806,0.24651 -0.31293,1.09612 -0.45129,1.96894 -0.57405,2.96478 -0.0778,0.63623 -0.11728,1.28044 -0.15532,1.90111 H 240 v -28.00339 z" /></g></svg>
