<svg
   width="32"
   height="32"
   viewBox="0 0 32 32"
   fill="currentColor"
   color="#000">
   <g
     transform="translate(-546)"><path
       d="m 575.38234,6.7042407 c -0.4331,0.014 -0.2995,0.13915 -1.2306,0.36916 a 18.911994,18.911994 0 0 0 -3.1134,0.58793 c -3.0352,1.27306 -3.6446,5.6239403 -6.4007,7.1820203 -2.0632,1.16504 -4.1429,1.25781 -6.014,1.84384 a 11.000578,11.000578 0 0 0 -3.6897,2.13683 c -0.865,0.74504 -0.887,1.40001 -1.7911,2.33606 -0.966,1.00005 -3.8408,0.0169 -5.1428,1.54696 0.42,0.42402 0.6006,0.54362 1.4317,0.43361 -0.171,0.32502 -1.1795,0.59926 -0.9825,1.07428 0.208,0.50003 2.6474,0.84304 4.8655,-0.50003 1.033,-0.62403 1.8559,-1.52241 3.465,-1.73642 a 26.675402,26.675402 0 0 1 6.891,0.52542 10.738564,10.738564 0 0 1 -1.6505,2.62319 c -0.178,0.19201 0.3558,0.21263 0.9669,0.0996 a 9.6445069,9.6445069 0 0 0 2.7208,-0.97271 c 1.0191,-0.59303 1.1739,-2.11447 2.424,-2.44349 a 2.8001472,2.8001472 0 0 0 3.7658,0.46878 c -1.031,-0.29202 -1.3168,-2.48722 -0.9688,-3.45526 0.33,-0.91604 0.6563,-2.38192 0.9883,-3.59198 0.3571,-1.30007 0.488,-2.93877 0.92,-3.5998 a 8.5174477,8.5174477 0 0 1 1.9903,-1.9004903 2.7921468,2.7921468 0 0 0 1.17,-2.39076 c -0.01,-0.41402 -0.2212,-0.64584 -0.6152,-0.63284 z m -0.8477,0.76762 c 0.104,0.35402 0.2687,0.51706 0.9688,0.58206 a 2.625138,2.625138 0 0 1 -1.3653,1.85167 5.6082948,5.6082948 0 0 0 -1.629,1.4473303 c -0.4241,0.65904 -0.6937,2.91379 -1.3497,5.1409 -0.5681,1.92409 -1.422,3.82636 -2.922,4.6604 -0.1561,-0.39302 0.02,-1.11848 -0.2911,-1.35749 a 12.259644,12.259644 0 0 1 -0.6992,1.62899 5.8353067,5.8353067 0 0 1 -4.3518,3.32049 8.2634343,8.2634343 0 0 0 2.0391,-5.24052 c -0.725,0.15702 -0.7101,1.87023 -1.4551,2.32826 a 8.6164529,8.6164529 0 0 1 -1.4493,0.0215 c -2.0011,-0.12101 -4.054,-0.71918 -5.9261,-0.11915 a 34.320804,34.320804 0 0 0 -3.3986,1.8419 6.2163267,6.2163267 0 0 1 -3.8108,0.54886 v 0.004 c -0.2,-0.27001 1.1553,-0.61811 1.0743,-1.20514 -0.614,-0.069 -0.9767,0.0819 -1.5137,-0.16212 a 0.80004205,0.80004205 0 0 1 0.2558,-0.2754 c 0.9851,-0.68604 3.7825,-0.1654 4.5315,-0.90044 a 8.4734454,8.4734454 0 0 0 1.0782,-1.38875 5.6202954,5.6202954 0 0 1 1.1016,-1.27546 c 0.174,-0.14501 0.3743,-0.28774 0.5743,-0.42775 a 12.500657,12.500657 0 0 1 2.8185,-1.41609 c 1.355,-0.47603 2.728,-0.51443 4.1721,-1.06646 a 11.107584,11.107584 0 0 0 2.6525,-1.35163 5.3002786,5.3002786 0 0 0 0.5312,-0.45121 c 2.2582,-2.20209 2.7057,-6.0855803 6.2289,-6.4475903 0.426,-0.039 0.7748,-0.0291 1.0918,-0.0391 a 2.1001104,2.1001104 0 0 0 1.0431,-0.25197 z m -0.1817,0.22853 c -0.022,0.005 -0.053,0.0251 -0.096,0.0645 a 5.193273,5.193273 0 0 0 -1.1329,1.67781 c -0.056,0.17901 0.057,0.12673 0.096,0.0117 a 5.2232745,5.2232745 0 0 1 1.1212,-1.63875 c 0.057,-0.066 0.059,-0.12581 0.012,-0.11524 z m 0.1035,0.15235 c -0.021,0.002 -0.056,0.0249 -0.1015,0.0781 a 3.9282065,3.9282065 0 0 0 -0.8849,1.5704 c -0.026,0.18601 0.078,0.119 0.1,0 a 3.7851989,3.7851989 0 0 1 0.8809,-1.53133 c 0.042,-0.0663 0.042,-0.12058 0.01,-0.1172 z m 0.1114,0.13673 c -0.021,0.003 -0.052,0.0285 -0.092,0.084 a 3.2631715,3.2631715 0 0 0 -0.5997,1.49618 c -0.015,0.19101 0.082,0.11124 0.094,-0.01 a 3.2001682,3.2001682 0 0 1 0.5996,-1.45516 c 0.037,-0.0675 0.033,-0.12107 0,-0.11523 z m 0.1328,0.10547 c -0.02,-0.002 -0.053,0.0257 -0.092,0.0957 a 2.6491392,2.6491392 0 0 0 -0.3848,1.38484 c 0,0.18301 0.094,0.10443 0.094,-0.0176 a 2.5941363,2.5941363 0 0 1 0.3867,-1.34382 c 0.028,-0.0658 0.022,-0.11676 0,-0.11915 z m -2.3908,0.33986 c -0.607,0.0147 -0.9648,0.27943 -1.0821,0.7852 a 0.83204373,0.83204373 0 0 0 1.3575,-0.77543 c -0.097,-0.008 -0.1887,-0.0119 -0.2754,-0.01 z" /></g></svg>
