<svg
   width="32"
   height="32"
   viewBox="0 0 32 32"
   xmlns="http://www.w3.org/2000/svg"
   fill="currentColor"
   color="#000"
   ><path
     d="m 16.254742,1.9999984 -10.6930501,3.790949 11.8432901,1.987072 10.5625,-3.84329 z m -10.5621901,3.851269 -0.78098,0.998324 1.55302,0.0048 z m 14.6920801,1.196839 -2.9404,1.069815 -5.20896,-0.873852 a 4.3399727,4.9412942 24.485486 0 0 -0.009,0.01628 4.3399727,4.9412942 24.485486 0 0 1.90154,6.2956946 4.3399727,4.9412942 24.485486 0 0 5.9976,-2.698155 4.3399727,4.9412942 24.485486 0 0 0.25884,-3.8097796 z m -4.55469,7.6118986 -0.54321,0.538738 c -0.46916,0.465418 -0.55884,0.539056 -0.6597,0.539056 -0.10237,0 -0.12758,-0.02155 -0.20426,-0.175536 -0.0481,-0.09659 -0.14402,-0.339054 -0.21319,-0.538738 l -0.12575,-0.363201 -3.0505,0.01596 c -3.0639701,0.01589 -3.4936301,0.03383 -3.6789301,0.153195 -0.10831,0.06977 -0.53384,1.247114 -1.56419,4.328409 -1.06584,3.187444 -1.74306,5.333814 -1.756,5.564505 -0.007,0.124637 -3.3e-4,0.131853 0.18128,0.192133 0.36135,0.119947 0.81679,0.159259 1.84505,0.159259 1.05387,0 1.35903,-0.03427 1.47706,-0.164685 0.15076,-0.166591 0.67562,-1.598443 1.64717,-4.494052 0.9614801,-2.865597 1.1880701,-3.430358 1.4844001,-3.698073 0.12629,-0.114099 0.1655,-0.12894 0.34564,-0.12894 0.15817,0 0.22078,0.01747 0.28214,0.07883 0.0715,0.07149 0.0772,0.107077 0.0587,0.379159 -0.0334,0.492666 -0.25202,1.235269 -1.3704602,4.656183 -0.6728899,2.058129 -0.7418699,2.311777 -0.7436299,2.731028 -0.001,0.302994 0.004,0.327161 0.1034,0.430543 0.1889999,0.197438 0.3036899,0.210005 1.9471801,0.210005 1.4661,0 1.50181,-0.0018 1.70239,-0.08298 0.37088,-0.150177 0.6173,-0.48944 0.91917,-1.265139 0.0992,-0.255016 0.44861,-1.279147 0.77651,-2.27559 1.32246,-4.018821 1.55776,-4.618456 1.8693,-4.766293 0.20238,-0.09603 0.44623,-0.115643 0.55501,-0.04436 0.0852,0.05585 0.0935,0.08423 0.0935,0.321392 0,0.440946 -0.22452,1.293525 -0.85087,3.232423 -2.68015,8.296391 -2.59955,8.0406 -2.66816,8.456069 -0.0523,0.316516 -0.008,0.489581 0.19469,0.75353 0.22649,0.29553 0.55293,0.444571 1.20801,0.551822 0.70347,0.115175 1.69865,-9.31e-4 1.83643,-0.214473 0.41355,-0.640995 4.29316,-12.560394 4.51064,-13.858122 0.0319,-0.19053 -0.0418,-0.653811 -0.12574,-0.789595 -0.0954,-0.15444 -0.31056,-0.269555 -0.63736,-0.341179 -0.22558,-0.04944 -0.64183,-0.06188 -2.55741,-0.07532 z" /></svg>
