<svg
   width="32"
   height="32"
   viewBox="0 0 32 32"
   fill="currentColor"
   color="#000">
   <g
     transform="translate(-294,-45.299026)"><path
       d="m 323.99219,52.304901 c 0,0 -0.20341,0.0156 -0.30469,0.0156 -1.55743,0 -2.65459,0.86202 -3.76953,2.46094 -0.97055,1.39183 -2.08918,3.07415 -3.2793,3.93164 -1.19013,0.85747 -2.19829,1.47962 -4.12109,1.41992 -1.9228,-0.0597 -2.5637,-0.28467 -3.57422,-0.45117 -1.01052,-0.1665 -2.01107,-0.21165 -3.14453,0.0254 -0.98408,0.20579 -1.70943,0.67941 -2.18555,1.21875 -0.39091,-0.81724 -0.77336,-1.64544 -1.22461,-2.4043 -1.35829,-2.28419 -3.24308,-3.4036 -6.08594,-3.61914 -0.0983,-0.007 -0.29492,-0.0215 -0.29492,-0.0215 v 15.41211 h 6.8125 13.75586 7.41602 z m -1.5,1.86719 v 14.62109 h -6.16602 c -0.42431,-1.70853 -1.5255,-2.87227 -3.23828,-3.41406 -1.10115,-0.34832 -1.79954,-0.40233 -2.99023,-0.23047 -0.82729,0.11904 -1.58809,0.16533 -2.03907,0.11133 -0.84075,-0.10064 -1.78953,-0.51675 -2.4375,-1.15625 -0.46695,-0.46085 -0.85299,-1.00895 -1.19921,-1.60352 0.01,-0.0375 0.0122,-0.0531 0.0234,-0.0918 0.0801,-0.2759 0.54864,-1.00193 1.66016,-1.23438 0.92181,-0.19277 1.69572,-0.1597 2.59375,-0.0117 0.89785,0.14794 1.74266,0.40576 3.77148,0.46875 2.26194,0.0702 3.80801,-0.80997 5.04493,-1.70117 1.58278,-1.14042 2.67696,-2.91829 3.63281,-4.28906 0.52774,-0.75683 0.93507,-1.19809 1.34375,-1.46875 z" /></g></svg>
