<svg
   width="32"
   height="32"
   viewBox="0 0 32 32"
   fill="currentColor"
   color="#000">
   <g
     transform="translate(-1218)"><path
       d="m 1233.8434,2.000045 a 1.725,1.725 0 0 1 -0.6054,1.37695 15.54,15.54 0 0 0 -5.5196,11.64649 c -0.3396,7.0754 5.2245,11.15899 5.6817,11.48242 0.5178,1.19387 0.4668,3.24414 0.4668,3.24414 l 0.7519,0.25 a 14.1,14.1 0 0 1 0.062,-2.94336 2.712,2.712 0 0 1 0.543,-0.88476 13.223,13.223 0 0 0 0.6582,-0.54883 2.712,2.712 0 0 1 0.1328,-0.0899 c -7e-4,-0.0104 -10e-4,-0.0189 0,-0.0293 a 13.223,13.223 0 0 0 4.0117,-12.40039 c -1.47,-6.485 -4.9511,-8.61764 -5.3261,-9.43164 a 9.792,9.792 0 0 1 -0.8262,-1.59961 v 0.0156 c -0.01,-0.0354 -0.019,-0.0665 -0.029,-0.0879 z" /></g></svg>
