<svg
   width="32"
   height="32"
   viewBox="0 0 32 32"
   fill="currentColor"
   color="#000">
   <g
     transform="translate(-168)"><path
       
       d="m 170,2.08496 v 27.83008 h 28 V 2.08496 Z m 2.3457,2.33203 h 23.30469 V 27.58105 H 172.3457 Z m 5.70703,5.02148 -2.69921,0.004 -0.23047,5.34375 -0.35743,7.72266 c 0.26719,0.0705 1.48168,0.0688 1.75977,-0.004 l 0.14844,-4.76563 c 0.002,-0.002 0.002,-0.002 0.004,-0.004 l 0.1582,-5.39844 1.29102,5.29492 c 0.004,0 0.008,0.002 0.0117,0.002 l 1.03906,4.88281 1.73242,-0.0312 2.4961,-10.17774 0.0723,5.74414 c 0.004,1.65218 0.0231,3.30974 0.0976,4.45118 0.28537,0.0927 1.54833,0.0511 1.90821,0.0293 0.0236,-0.40714 -0.0567,-3.28443 -0.13672,-5.08203 l -0.28906,-8.00781 -2.54883,0.002 -1.21875,4.89453 c -0.04,0.1654 -1.05582,4.70071 -1.17578,4.85157 l -0.375,-1.99219 c -0.02,-0.11088 -0.0311,-0.20303 -0.0547,-0.30664 L 179.5,15.98735 c 0,-0.002 -1.5e-4,-0.004 -0.002,-0.004 -0.16903,-0.93788 -0.5686,-2.60269 -0.65039,-2.98438 z m 15.07422,3.22266 -1.78125,0.0137 c -0.13087,0.26355 -0.0283,6.76484 -0.041,7.69727 -0.94878,0.31808 -2.00003,0.38953 -2.36718,-0.51563 -0.25248,-0.62482 -0.1458,-2.60431 -0.16016,-3.41601 v -0.002 l -0.0254,-3.76953 -1.80664,0.002 h -0.0684 l 0.0156,4.75781 c -0.0182,1.20324 -0.0785,2.57184 0.33594,3.53515 1.17234,2.7173 5.50952,1.12459 6.0039,0.67383 z" /></g></svg>
