<svg
   width="32"
   height="32"
   viewBox="0 0 32 32"
   fill="currentColor"
   color="#000">
   <g
     transform="translate(-798,-45.299026)"><path
       d="m 801.66533,47.484408 c -0.66526,-0.009 -1.24604,0.24089 -1.54586,0.97499 -0.51226,1.23645 0.76171,2.45221 1.19863,3.07997 0.3683,0.44231 0.69286,0.91929 0.96911,1.42423 0.13359,0.32342 0.17254,0.66593 0.30211,1.00442 0.27855,0.86928 0.60938,1.72094 0.99069,2.5503 0.20442,0.40972 0.43987,0.80321 0.70427,1.17705 0.15368,0.20992 0.4175,0.30085 0.47475,0.64738 -0.21057,0.45307 -0.35778,0.93298 -0.43748,1.4262 -0.67043,2.11738 -0.47213,4.41438 0.55126,6.38554 0.30133,0.47509 1.02585,1.51992 1.99511,1.12016 0.85477,-0.3415 0.66513,-1.42455 0.91222,-2.37373 0.0563,-0.23001 0.0199,-0.37997 0.13341,-0.53164 v 0.18441 c 0,0 0.54585,1.07101 0.83006,1.60056 0.34028,0.63401 0.732,1.10662 1.25773,1.87048 0.52572,0.76385 1.46019,1.52252 1.84122,1.96209 l 0.0867,0.29129 h 0.42963 c -0.0185,-0.3143 -0.17598,-0.60406 -0.42963,-0.79059 -0.35171,-0.36205 -0.67381,-0.75174 -0.96322,-1.16529 -0.78572,-1.11994 -1.47856,-2.30224 -2.07162,-3.53509 -0.30132,-0.60265 -0.55541,-1.26399 -0.79647,-1.86563 -0.11049,-0.23203 -0.11041,-0.58179 -0.29623,-0.70232 -0.34335,0.40576 -0.64134,0.84783 -0.88868,1.31831 -0.3002,0.95149 -0.47496,1.93808 -0.51987,2.93479 -0.0733,0.0201 -0.0365,-9e-4 -0.0726,0.0373 -0.5916,-0.15568 -0.79517,-0.79553 -1.01815,-1.33792 -0.57604,-1.67283 -0.63416,-3.48051 -0.16675,-5.18689 0.12856,-0.40679 0.68596,-1.68684 0.46298,-2.07555 -0.1115,-0.37063 -0.48177,-0.58265 -0.68466,-0.87494 -0.25945,-0.39358 -0.4827,-0.80987 -0.667,-1.24376 -0.44094,-1.08075 -0.6636,-2.28544 -1.14371,-3.37423 -0.26609,-0.52342 -0.57583,-1.02348 -0.92595,-1.49486 -0.38657,-0.47145 -0.72748,-0.97856 -1.01815,-1.51448 -0.0924,-0.21394 -0.2222,-0.56345 -0.0745,-0.79647 0.0204,-0.1326 0.12593,-0.23576 0.25895,-0.25307 0.23906,-0.21293 0.92524,0.0581 1.16529,0.17459 0.64526,0.25392 1.2599,0.57966 1.83229,0.97108 0.25913,0.19485 0.87101,0.68858 0.87101,0.68858 h 0.18049 c 0.6147,0.13359 1.30474,0.0362 1.88329,0.2099 0.97443,0.32476 1.90434,0.77027 2.76804,1.32616 2.54479,1.6223 4.61354,3.89077 5.99514,6.57386 0.23102,0.44094 0.32856,0.8465 0.53949,1.30653 0.40177,0.94416 0.90476,1.90885 1.30653,2.82689 0.35434,0.90773 0.81252,1.77142 1.36538,2.57383 0.28727,0.40177 1.44052,0.61498 1.95981,0.82591 0.45107,0.15605 0.89372,0.33547 1.32615,0.53752 0.65387,0.40176 1.30681,0.8656 1.92252,1.30653 0.30635,0.23101 1.26593,0.70997 1.32419,1.09467 l -0.0118,0.051 c -1.26737,-0.0888 -2.53905,0.0952 -3.72931,0.53949 -0.28827,0.1155 -0.74844,0.11603 -0.78862,0.48063 0.15468,0.15367 0.1724,0.40205 0.30799,0.61599 0.26349,0.44514 0.60198,0.84138 1.0005,1.17117 0.40177,0.30735 0.80314,0.61361 1.23002,0.88279 0.7483,0.46304 1.59548,0.73173 2.32469,1.19275 0.42386,0.26919 0.84539,0.6151 1.26925,0.90438 0.21093,0.15367 0.34485,0.40176 0.61404,0.50221 v -0.0589 c -0.079,-0.21355 -0.17689,-0.41969 -0.2923,-0.616 -0.19184,-0.19084 -0.38588,-0.36529 -0.57872,-0.55714 -0.56292,-0.74472 -1.23639,-1.39901 -1.99708,-1.94018 -0.61571,-0.42386 -1.96281,-1.00364 -2.2109,-1.70673 l -0.0393,-0.0393 c 0.45097,-0.064 0.89541,-0.16768 1.3281,-0.30996 0.65288,-0.17276 1.24862,-0.13241 1.92057,-0.30015 0.30835,-0.0773 0.86514,-0.27072 0.86514,-0.27072 v -0.30015 c -0.34352,-0.34151 -0.58986,-0.7997 -0.95145,-1.12212 -0.98344,-0.85873 -2.03151,-1.64051 -3.1349,-2.33843 -0.5896,-0.38067 -1.35165,-0.62506 -1.97942,-0.94949 -0.227,-0.1145 -0.60198,-0.17012 -0.73958,-0.36096 -0.31201,-0.45808 -0.57316,-0.9488 -0.77882,-1.46348 -0.56187,-1.08191 -1.08147,-2.18526 -1.55764,-3.30753 -0.28051,-0.74085 -0.6041,-1.46466 -0.9691,-2.16774 -1.76176,-2.99487 -4.30466,-5.45437 -7.35661,-7.1153 -0.76965,-0.37238 -1.58788,-0.63456 -2.43062,-0.77883 -0.47609,-0.0201 -0.95111,-0.0564 -1.42621,-0.0745 -0.30674,-0.20093 -0.59849,-0.42385 -0.87298,-0.667 -0.67924,-0.43002 -2.02416,-1.16921 -3.13293,-1.1849 z m 4.2374,4.67879 c 0.70289,0.31701 1.03986,1.17728 1.09667,1.746 0.32039,-0.34471 0.60494,-0.84346 0.20794,-1.40269 -0.39701,-0.55923 -1.14729,-0.44293 -1.30461,-0.34331 z" /></g></svg>
