<svg
   width="32"
   height="32"
   viewBox="0 0 32 32"
   fill="currentColor"
   color="#000">
   <g
     transform="translate(-1302,-45.299026)"><path
       d="m 1318.6667,48.632361 c -0.7334,0 -1.3334,0.6 -1.3334,1.33333 v 8 c 0,0.73334 0.6,1.33334 1.3334,1.33334 h 4.6666 v 1.33333 H 1322 v 1.33333 h 5.3333 v -1.33333 H 1326 v -1.33333 h 4.6667 c 0.7334,0 1.3333,-0.6 1.3333,-1.33334 v -8 c 0,-0.73333 -0.5999,-1.33333 -1.3333,-1.33333 z m 0,1.33333 h 12 v 8 h -12 z m -13.3334,10.66667 c -0.7333,0 -1.3333,0.6 -1.3333,1.33333 v 8 c 0,0.73334 0.6,1.33334 1.3333,1.33334 H 1310 v 1.33333 h -1.3333 v 1.33333 H 1314 v -1.33333 h -1.3333 v -1.33333 h 4.6666 c 0.7335,0 1.3334,-0.6 1.3334,-1.33334 v -8 c 0,-0.73333 -0.5999,-1.33333 -1.3334,-1.33333 z m 0,1.33333 h 12 v 8 h -12 z" /></g></svg>
