<svg
   width="32"
   height="32"
   viewBox="0 0 32 32"
   fill="currentColor"
   color="#000">
   <g
     transform="translate(-588)"><path
       d="m 603.94244,1.9999904 c -0.336,0.15601 -0.6507,0.35119 -0.9727,0.53521 -3.615,2.08151 -7.2297,4.16193 -10.8447,6.24077 a 0.69306025,0.69306025 0 0 0 -0.3868,0.66998 V 22.609201 a 0.70006086,0.70006086 0 0 0 0.3985,0.66608 c 3.8463,2.21752 7.6962,4.43167 11.5498,6.6412 a 0.58705104,0.58705104 0 0 0 0.6583,-0.0371 c 3.8496,-2.21352 7.6989,-4.42891 11.5479,-6.6451 a 0.81307069,0.81307069 0 0 0 0.3555,-0.50591 c 0.01,-4.38737 0,-8.77582 0.01,-13.1652006 a 0.79206886,0.79206886 0 0 0 -0.4142,-0.78913 l -10.8603,-6.24663 a 10.418906,10.418906 0 0 0 -0.9708,-0.5274 z m 5.4477,6.99085 a 1.5821375,1.5821375 0 0 1 1.5764,1.4454306 c 0.01,3.69365 0.01,7.38673 0,11.08105 a 1.5611357,1.5611357 0 0 1 -1.2502,1.37121 2.8332463,2.8332463 0 0 1 -2.5998,-0.78132 c -2.3989,-2.85225 -4.7934,-5.70886 -7.1823,-8.56911 -0.01,2.62023 0,5.23984 0,7.86007 a 1.564136,1.564136 0 0 1 -0.6856,1.29307 1.6471432,1.6471432 0 0 1 -2.0607,-0.20509 1.5091312,1.5091312 0 0 1 -0.4258,-1.08798 v -10.86033 a 1.5791373,1.5791373 0 0 1 1.4025,-1.5040406 2.8172449,2.8172449 0 0 1 2.6486,1.0508806 c 2.3372,2.77623 4.6544,5.56652 7.0006,8.33276 -0.016,-2.66123 0,-5.31894 0,-7.98117 a 1.5821375,1.5821375 0 0 1 1.5763,-1.4454306 z" /></g></svg>
