<svg
   width="32"
   height="32"
   viewBox="0 0 32 32"
   fill="currentColor"
   color="#000">
   <g
     transform="translate(-1176,-45.299026)"><path
       d="m 1191.6279,47.33026 a 2.246,2.246 0 0 0 -0.7051,0.24414 l -10.2617,5.92578 a 2.162,2.162 0 0 0 -1.0762,1.875 v 11.83984 a 2.166,2.166 0 0 0 1.0762,1.87305 l 2.6972,1.54688 a 4.389,4.389 0 0 0 2.3633,0.64062 c 1.93,0 3.0371,-1.16422 3.0371,-3.19922 v -11.6914 a 0.3,0.3 0 0 0 -0.2988,-0.30078 h -1.3008 a 0.3,0.3 0 0 0 -0.2988,0.30078 V 68.0744 c 0,0.902 -0.934,1.80106 -2.459,1.03906 l -2.8145,-1.625 a 0.315,0.315 0 0 1 -0.1621,-0.27344 V 55.37518 a 0.33,0.33 0 0 1 0.1621,-0.28125 l 10.254,-5.91992 a 0.323,0.323 0 0 1 0.3183,0 l 10.2598,5.91797 a 0.331,0.331 0 0 1 0.1582,0.2832 v 11.8457 a 0.323,0.323 0 0 1 -0.1563,0.27735 l -10.2597,5.92187 a 0.34,0.34 0 0 1 -0.3184,0 l -2.6309,-1.5625 a 0.263,0.263 0 0 0 -0.2558,-0.0195 6.828,6.828 0 0 1 -1.5488,0.70117 c -0.169,0.059 -0.4173,0.15932 0.094,0.44532 l 3.4238,2.02734 a 2.151,2.151 0 0 0 1.0762,0.28711 2.152,2.152 0 0 0 1.0781,-0.28711 l 10.2597,-5.92383 a 2.171,2.171 0 0 0 1.0762,-1.87305 v -11.8457 a 2.165,2.165 0 0 0 -1.0762,-1.86914 l -10.2597,-5.92578 a 2.246,2.246 0 0 0 -1.4512,-0.24414 z m 3.4492,8.33984 c -2.925,0 -4.6699,1.23469 -4.6699,3.30469 0,2.244 1.7369,2.86653 4.5449,3.14453 3.359,0.329 3.6191,0.81947 3.6191,1.48047 0,1.147 -0.921,1.63477 -3.082,1.63477 -2.713,0 -3.3137,-0.68026 -3.5137,-2.03125 a 0.3,0.3 0 0 0 -0.2949,-0.25 h -1.3262 a 0.3,0.3 0 0 0 -0.3008,0.29882 c 0,1.729 0.9425,3.79116 5.4375,3.78516 3.251,0 5.1153,-1.28158 5.1153,-3.51758 0,-2.216 -1.4994,-2.80565 -4.6524,-3.22265 -3.186,-0.421 -3.5097,-0.63877 -3.5097,-1.38477 0,-0.616 0.2747,-1.4375 2.6347,-1.4375 2.1,0 2.8803,0.454 3.1993,1.875 a 0.3,0.3 0 0 0 0.289,0.23242 h 1.336 a 0.3,0.3 0 0 0 0.2949,-0.32422 c -0.206,-2.44799 -1.8341,-3.58789 -5.1211,-3.58789 z" /></g></svg>
