<svg
   width="32"
   height="32"
   viewBox="0 0 32 32"
   fill="currentColor"
   color="#000">
   <g
     transform="translate(-210)"><path
       
       d="m 212.00097,2.085935 v 27.82813 h 27.99805 V 2.085935 Z m 2.3457,2.33204 h 23.30664 v 23.16211 h -23.30664 z m 7.01172,5.06054 c -1.10227,-0.014 -2.20424,0.0875 -3.01953,0.17774 v 12.8125 h 2.43555 v -4.12891 c 2.99249,0.21349 5.69336,-0.85908 5.69336,-4.31836 0,-1.39494 -0.43539,-2.7999 -1.46485,-3.64844 -0.80907,-0.66761 -2.22733,-0.87658 -3.64453,-0.89453 z m -0.10937,1.91211 c 1.7903,-0.0337 2.80566,0.4391 2.90234,2.46094 0.1176,2.47505 -1.9585,2.5293 -3.37695,2.5293 v -0.10547 -4.76563 c 0,-0.0235 0.0838,-0.10547 0.10547,-0.10547 0.12619,-0.006 0.24978,-0.0114 0.36914,-0.0137 z m 9.2832,1.12891 c -1.72826,-0.007 -3.41602,0.81957 -3.41602,2.69531 0,2.03179 1.40622,2.83072 3.125,3.50195 2.44249,0.95347 0.0676,2.75611 -2.91406,0.89258 0,0 -0.10573,-0.0525 -0.1582,0 -0.0525,0.0525 -0.0527,0.10589 -0.0527,0.16016 v 1.95703 c 1.04213,0.53373 1.82029,0.80564 3.02344,0.79297 3.88083,-0.0398 4.43935,-3.75624 2.375,-5.18555 -0.37452,-0.26053 -1.37674,-0.78112 -1.69336,-0.90234 -1.64099,-0.626 -1.50153,-1.51616 -0.98047,-1.96485 0.57534,-0.49754 2.17057,0.25604 2.84179,0.67579 0.40709,0.25148 0.47447,-0.0609 0.47266,-0.33594 l -0.006,-1.30078 c 0,-0.30938 -0.10657,-0.33573 -0.39062,-0.48047 -0.64794,-0.3268 -1.44099,-0.50269 -2.22656,-0.50586 z" /></g></svg>
