<svg
   width="32"
   height="32"
   viewBox="0 0 32 32"
   fill="currentColor"
   color="#000">
   <g
     transform="translate(-840,-45.299026)"><path
       d="m 847.60005,59.090026 a 2.352,2.352 0 0 1 1.745,0.483 1.916,1.916 0 0 1 0.207,1.66 2.78,2.78 0 0 1 -0.918,1.748 3.375,3.375 0 0 1 -2.07,0.529 h -1.4 l 0.86,-4.411 z m -5.6,8.886 h 2.3 l 0.545,-2.8 h 1.967 a 7.049,7.049 0 0 0 2.144,-0.277 4.06,4.06 0 0 0 1.53,-0.918 4.585,4.585 0 0 0 1.444,-2.582 3.288,3.288 0 0 0 -0.55,-2.922 3.671,3.671 0 0 0 -2.91,-1.049 h -4.413 z m 11.617,-13.354 h 2.283 l -0.553,2.8 h 2.031 a 3.956,3.956 0 0 1 2.645,0.669 2.213,2.213 0 0 1 0.436,2.167 l -0.954,4.909 h -2.31 l 0.908,-4.667 a 1.267,1.267 0 0 0 -0.114,-1.086 1.6,1.6 0 0 0 -1.144,-0.286 h -1.823 l -1.175,6.044 h -2.288 z m 11.922,4.468 a 2.352,2.352 0 0 1 1.745,0.483 1.916,1.916 0 0 1 0.207,1.66 2.78,2.78 0 0 1 -0.918,1.748 3.375,3.375 0 0 1 -2.074,0.529 h -1.399 l 0.858,-4.416 z m -5.6,8.886 h 2.3 l 0.545,-2.8 h 1.968 a 7.049,7.049 0 0 0 2.148,-0.277 4.06,4.06 0 0 0 1.53,-0.918 4.585,4.585 0 0 0 1.439,-2.582 3.288,3.288 0 0 0 -0.55,-2.922 3.671,3.671 0 0 0 -2.909,-1.046 h -4.42 z"
        /></g></svg>
