<svg
   width="32"
   height="32"
   viewBox="0 0 32 32"
   fill="currentColor"
   color="#000">
   <g
     transform="translate(-1260,-45.299026)"><path
       d="m 1276.2364,47.301021 c -2.2345,-0.0377 -4.4538,0.45965 -6.4684,1.46116 -2.4795,1.23261 -4.5379,3.17388 -5.9147,5.57631 -1.3768,2.40246 -2.0101,5.15858 -1.82,7.921 0.19,2.76239 1.1953,5.40677 2.8881,7.598 1.6927,2.1913 3.9973,3.83174 6.6222,4.71329 2.6248,0.88145 5.4521,0.96461 8.1244,0.23926 2.6721,-0.72546 5.0699,-2.22732 6.8887,-4.31511 1.8189,-2.08788 2.9767,-4.66867 3.3291,-7.41515 0.4724,-3.68245 -0.5364,-7.40108 -2.8061,-10.33917 -2.2697,-2.93809 -5.6143,-4.85391 -9.2967,-5.3268 -0.515,-0.0661 -1.031,-0.1041 -1.5466,-0.11279 z m 6.3744,5.26528 c 0.478,-0.002 0.9433,0.16018 1.3158,0.4597 l -1.8559,1.85422 c -0.016,0.0162 -0.029,0.0352 -0.038,0.0564 -0.01,0.0213 -0.014,0.0453 -0.014,0.0683 0,0.023 0,0.0454 0.014,0.0667 0.01,0.0213 0.021,0.0402 0.038,0.0564 l 1.4202,1.42013 c -0.2834,0.13117 -0.592,0.1975 -0.9041,0.19313 -0.3122,-0.004 -0.6208,-0.0784 -0.9006,-0.21705 -0.2797,-0.13859 -0.5236,-0.33865 -0.716,-0.58445 -0.1924,-0.24583 -0.3274,-0.53087 -0.3948,-0.83569 -0.068,-0.30481 -0.066,-0.62056 0.01,-0.92454 0.071,-0.30398 0.2096,-0.5888 0.405,-0.83226 0.1954,-0.24347 0.4415,-0.44075 0.7229,-0.57591 0.2814,-0.1352 0.5901,-0.20477 0.9023,-0.20508 z m 1.5688,0.70067 c 0.3478,0.40029 0.532,0.91747 0.5144,1.44748 -0.018,0.53003 -0.2347,1.03365 -0.6084,1.40989 -0.086,0.0878 -0.1798,0.16874 -0.2803,0.23926 l -1.3637,-1.36375 z m -4.3681,2.55318 c 0.2992,0.004 0.5319,0.12407 0.7605,0.29906 -0.2341,0.0231 -0.4538,0.12603 -0.6221,0.29053 l -5.1696,5.16957 -1.0578,-1.05271 c 3.7043,-3.69277 5.1915,-4.71938 6.089,-4.70645 z m 0.8596,0.64428 h 0.031 c 0.035,0.002 0.07,0.005 0.1042,0.012 h 0.027 c 0.1321,0.0265 0.252,0.0909 0.347,0.18626 0.095,0.0955 0.1603,0.21822 0.1862,0.35034 0.01,0.0168 0.01,0.0243 0.01,0.0495 v 0.0752 0.0461 c 0,0.0353 -0.01,0.0712 -0.014,0.10595 0,0.0168 -0.015,0.0327 -0.015,0.0495 -0.01,0.0233 -0.014,0.0459 -0.024,0.0683 -0.01,0.0168 -0.014,0.0345 -0.022,0.0513 -0.015,0.0295 -0.031,0.058 -0.05,0.0855 l -0.024,0.0308 c -0.025,0.0325 -0.053,0.0618 -0.084,0.0889 l -5.4601,4.79192 -0.6391,-0.63745 5.1559,-5.15762 c 0.029,-0.0288 0.062,-0.0553 0.096,-0.0786 l 0.031,-0.0188 c 0.026,-0.0163 0.054,-0.031 0.082,-0.0427 l 0.029,-0.0136 c 0.037,-0.014 0.075,-0.0255 0.1145,-0.0342 h 0.012 c 0.035,-0.007 0.073,-0.009 0.1094,-0.009 z m 0.7605,1.40134 c -0.2506,1.52877 -2.2921,3.60272 -4.5937,5.77967 l -0.9297,-0.92625 5.4602,-4.7919 z m -7.9501,2.90863 0.9417,0.95359 -2.2388,0.48364 c -0.012,0.004 -0.025,0.002 -0.036,-0.004 -0.011,-0.005 -0.02,-0.0128 -0.026,-0.0239 v -0.002 c -0.01,-0.0113 -0.01,-0.0234 0,-0.0359 0,-0.0124 0.01,-0.0238 0.021,-0.0308 z m 1.2937,1.30564 0.5264,0.52636 -1.2134,0.26318 c -0.01,0.002 -0.016,0.002 -0.024,-0.002 -0.01,-0.004 -0.014,-0.0101 -0.017,-0.0171 0,-0.006 -0.01,-0.0144 -0.01,-0.0222 0,-0.008 0,-0.0161 0.01,-0.0222 z m 0.8271,0.82372 0.9793,0.97923 c -1.4602,1.27117 -3.4497,2.54403 -5.9164,3.7802 -0.06,0.031 -0.1068,0.0808 -0.135,0.14185 -0.028,0.0611 -0.034,0.12928 -0.019,0.19481 l 0.2358,1.0117 c 0.01,0.0234 0.01,0.0479 0,0.0701 -0.01,0.0222 -0.028,0.0404 -0.05,0.0513 -0.021,0.0128 -0.046,0.0189 -0.07,0.0154 -0.024,-0.003 -0.046,-0.0146 -0.063,-0.0325 l -1.4065,-1.40817 4.3493,-4.3527 z m -6.6991,5.05167 1.3347,1.33468 -2.3805,-0.16406 c -0.01,-7e-4 -0.019,-0.004 -0.027,-0.0102 -0.01,-0.006 -0.014,-0.0157 -0.017,-0.0256 0,-0.009 0,-0.0208 0,-0.0308 0,-0.01 0.01,-0.0186 0.014,-0.0256 z" /></g></svg>
