<svg
   width="32"
   height="32"
   viewBox="0 0 32 32"
   fill="currentColor"
   color="#000">
   <g
     transform="translate(-1134)"><path
       d="m 1152.537,2.3212899 -16.5371,2.55078 V 27.13379 l 16.5371,2.54492 v -3.18164 c 3.184,0 6.364,-0.006 9.5449,0.01 0.128,-0.006 0.5165,-0.0137 0.6485,-0.0137 0.823,-0.025 1.2358,-0.0598 1.2578,-0.88282 0.01,-0.246 -3e-4,-1.1117 0.012,-1.3457 -0.045,-5.94498 0.023,-12.05802 -0.031,-18.0000001 -0.01,-0.496 -0.036,-1.06445 -0.6777,-1.06445 -3.397,-0.051 -7.354,0.003 -10.7539,-0.0156 z m 0,3.81641 h 10.5 V 25.53809 h -10.5 v -2.53711 h 7.6328 v -1.27539 h -7.6328 v -1.58985 h 7.6328 v -1.27343 h -7.6308 c 0,-0.624 3e-4,-1.24615 -0.01,-1.86914 a 4.467,4.467 0 0 0 3.8203,-0.375 4.352,4.352 0 0 0 1.959,-3.47461 c -1.4,-0.01 -2.7926,-0.006 -4.1856,-0.006 0,-1.384 0.016,-2.76744 -0.029,-4.1484401 -0.522,0.1 -1.0435,0.21127 -1.5625,0.32227 v -3.17188 z m 2.2265,2.18554 V 12.50098 c 1.396,0 2.7894,0.006 4.1894,-0.01 a 4.476,4.476 0 0 0 -4.1875,-4.1679701 z m -10.9257,2.2539101 c 0.9181,-0.0195 1.7977,0.11227 2.5136,0.75977 1.3711,1.66399 1.0085,4.72375 -1.0235,5.71875 a 4.7,4.7 0 0 1 -2.328,0.29297 c 0,1.24398 -0.01,2.48748 0,3.73046 -0.6301,-0.054 -1.2626,-0.1072 -1.8926,-0.1582 -0.029,-3.39804 -0.035,-6.79727 0,-10.19531 0,-1.2e-4 -0.01,1.2e-4 -0.01,0 l 0.01,-0.006 c 0,0.002 1e-4,0.004 0,0.006 0.8615,0.0401 1.8151,-0.129 2.7305,-0.14844 z m -0.2285,1.83985 c -0.2094,0.002 -0.4193,0.0202 -0.6152,0.0293 -0.01,1.069 -0.016,2.13322 0.051,3.19922 0.6329,-0.076 1.4534,-0.013 1.8163,-0.66797 a 2.308,2.308 0 0 0 -0.041,-2.08594 c -0.2929,-0.40425 -0.7503,-0.47823 -1.211,-0.4746 z" /></g></svg>
