<svg
   width="32"
   height="32"
   viewBox="0 0 32 32"
   fill="currentColor"
   color="#000">
   <g
     transform="translate(-42)"><path
       
       d="M 44.000976,2.0859395 V 29.914061 H 71.999023 V 2.0859395 Z m 2.345703,2.332031 H 69.653321 V 27.582031 H 46.346679 Z m 7.53711,5.050781 c -0.09811,2.71e-4 -0.198414,0.0025 -0.298828,0.0059 L 50.43457,9.5820725 V 22.410199 l 2.552735,0.0039 v -4.044922 c 0.870247,0 1.776733,-0.005 2.505859,-0.166016 0.958902,-0.213492 1.635658,-0.645916 2.236328,-1.277344 0.629618,-0.660376 1.117187,-1.570941 1.117187,-2.929687 0,-3.042703 -1.92146,-4.5357275 -4.96289,-4.5273445 z m -0.5,2.0722665 c 0.901472,-0.0047 1.679758,0.06418 2.214844,0.539062 0.479452,0.425174 0.656765,0.888773 0.638672,1.970703 -0.03438,2.095108 -1.437134,2.289062 -3.25,2.289062 l 0.002,-4.792968 c 0.133432,-0.0027 0.26575,-0.0052 0.394531,-0.0059 z m 11.767578,0.992187 c -1.004132,0.03257 -1.293819,0.115264 -1.992188,0.705078 -0.148359,0.126648 -0.58789,0.652344 -0.58789,0.652344 0,-0.640474 -0.143006,-1.072859 -0.320313,-1.203125 -0.123029,-0.08865 -0.152771,-0.08203 -0.330078,-0.08203 H 61.58496 l -1.414062,-0.01953 c -0.155596,0.02533 -0.163775,0.06111 -0.160156,0.240234 0.01809,0.799688 0.105468,1.363055 0.105468,2.367188 l 0.0059,7.324218 2.548828,0.01172 0.0078,-6.294922 -0.0078,-0.279297 c 0.920908,-0.806925 1.520636,-1.071916 2.787109,-1.042968 0.101319,0.0036 0.132813,0.0034 0.132813,-0.125 v -1.851563 c 0.0072,-0.327475 -0.06494,-0.415009 -0.439453,-0.402344 z" /></g></svg>
