<svg
   width="32"
   height="32"
   viewBox="0 0 32 32"
   fill="currentColor"
   color="#000">
   <g
     transform="translate(-924,-45.299026)"><path
       d="m 939.91707,65.565776 a 14,14 0 0 1 -1.77369,-0.0829 v 5.97907 a 29.895385,29.895385 0 0 1 3.5883,0.49646 v 3.34062 h -12.5343 v -3.33846 a 30.140923,30.140923 0 0 1 3.5883,-0.49754 v -20.16323 a 30.385385,30.385385 0 0 1 -3.58723,-0.49539 v -3.33846 h 3.21569 c 1.31923,-0.002 4.94739,-0.16692 7.83462,-0.16692 6.804,0 10.55385,3.17477 10.55385,8.61538 0.001,5.404 -4.12462,9.65139 -10.88554,9.65139 z m 0.084,-13.89662 c -0.66016,0 -1.23739,0 -1.85554,0.0409 v 9.27769 a 10.439692,10.439692 0 0 0 1.56692,0.12385 c 3.25769,-0.0409 5.52462,-1.85554 5.52462,-4.86662 0,-2.80754 -1.56693,-4.57585 -5.236,-4.57585 z"
        /></g></svg>
