<svg
   width="32"
   height="32"
   viewBox="0 0 32 32"
   fill="currentColor"
   color="#000">
   <g
     transform="translate(-336,-45.299026)"><path
       d="m 351.9218,47.386921 -0.0371,0.0117 c -7.09999,0 -6.65039,3.07032 -6.65039,3.07032 v 3.18945 h 6.75196 v 1 h -9.44141 c 0,0 -4.54492,-0.55851 -4.54492,6.64648 0,7.205 4.01367,6.91211 4.01367,6.91211 h 2.31641 v -3.36133 c 0,0 -0.12961,-4.01367 3.90039,-4.01367 h 6.76172 c 0,0 3.77148,0.0597 3.77148,-3.65234 v -6.08983 c 0,0 0.5722,-3.71289 -6.8418,-3.71289 z m -3.75,2.16015 a 1.214,1.214 0 1 1 -1.20117,1.23242 v -0.0195 a 1.214,1.214 0 0 1 1.20117,-1.21289 z m 11.46875,4.83594 v 3.31641 c 0,0 0.12961,4.01171 -3.90039,4.01171 h -6.76562 c 0,0 -3.77539,-0.0557 -3.77539,3.65625 v 6.13086 c 0,0 -0.57025,3.71289 6.84375,3.71289 h 0.0391 l 0.004,-0.002 c 7.09999,0 6.65039,-3.08008 6.65039,-3.08008 v -3.17968 h -6.75196 v -1 h 9.47071 c 0,0 4.54492,0.50674 4.54492,-6.65626 0,-7.16299 -4.01367,-6.91015 -4.01367,-6.91015 z m -4.05664,16.26758 a 1.214,1.214 0 0 1 1.41602,1.16797 v 0.0293 a 1.214,1.214 0 0 1 -1.19922,1.21094 1.214,1.214 0 0 1 -0.2168,-2.4082 z" /></g></svg>
