<svg
   width="32"
   height="32"
   viewBox="0 0 32 32"
   fill="currentColor"
   color="#000">
   <g
     transform="translate(-882,-45.299026)"><path
       d="m 909.3,50.799026 h -21.414 l -3.886,3.958 v 17.042 h 24.114 l 3.886,-3.958 v -4.03354 -13.00846 z m -10.4,18.07 -1.828,0.852 -1.572,-2.591 c -0.3541,0.0848 -0.71818,0.12048 -1.082,0.106 -1.845,0 -3.123,-0.5 -3.85,-1.49 -0.83374,-1.41878 -1.21145,-3.05947 -1.082,-4.7 -0.11865,-1.66518 0.2645,-3.32771 1.1,-4.773 0.93565,-1.12937 2.37454,-1.71536 3.833,-1.561 1.828,0 3.087,0.515 3.833,1.544 0.8355,1.44529 1.21865,3.10782 1.1,4.773 0.0356,1.16353 -0.11708,2.32516 -0.452,3.44 -0.25991,0.80939 -0.77715,1.51169 -1.473,2 z m 5.848,-1.67 c -0.78888,0.0952 -1.58017,-0.15735 -2.168,-0.692 -0.4726,-0.78281 -0.67629,-1.69867 -0.58,-2.608 v -4.1 h -1 v -2 h 1 v -3 h 2 v 3 h 2 v 2 h -2 v 3.9 c -0.034,0.48528 0.023,0.97264 0.168,1.437 0.112,0.231 0.393,0.355 0.86,0.355 l 1.533,-0.053 0.093,1.544 c -0.62885,0.12098 -1.26605,0.19352 -1.906,0.217 z m -10.332,-10.786 c -0.91039,-0.10013 -1.79839,0.32661 -2.289,1.1 -0.47353,1.10751 -0.67909,2.31111 -0.6,3.513 -0.0885,1.17934 0.11767,2.36217 0.6,3.442 0.51712,0.74576 1.40541,1.14291 2.306,1.031 0.89164,0.11493 1.7734,-0.27452 2.289,-1.011 0.46923,-1.08353 0.67025,-2.26424 0.586,-3.442 0.0806,-1.20781 -0.12495,-2.41761 -0.6,-3.531 -0.49059,-0.7752 -1.38017,-1.20291 -2.292,-1.102 z"
        /></g></svg>
