<svg
   width="32"
   height="32"
   viewBox="0 0 32 32"
   fill="currentColor"
   color="#000">
   <g
     transform="translate(-378,-45.299026)"><path
       d="m 397.26725,72.506976 c -0.21822,-0.11604 -0.41632,-0.27187 -1.55705,-1.22486 -1.40754,-1.17589 -2.04331,-1.64452 -4.06793,-2.99847 -0.47255,-0.31601 -0.93282,-0.6481 -1.02284,-0.73797 -0.28775,-0.2873 -0.29757,-0.44403 -0.0954,-1.5239 0.16784,-0.89676 0.18944,-1.31397 0.0901,-1.74097 -0.0583,-0.25075 -0.0716,-0.27392 -0.19231,-0.33628 -0.2082,-0.10754 -0.33415,-0.31791 -0.35126,-0.58675 -0.0191,-0.30024 0.009,-0.43202 0.1334,-0.61943 0.16638,-0.2512 0.43832,-0.4206 1.68306,-1.04843 1.27461,-0.6429 1.63137,-0.85283 2.44403,-1.4382 0.29264,-0.21079 0.54668,-0.38324 0.56454,-0.38324 0.0179,0 0.0614,0.0671 0.0968,0.14904 0.0354,0.082 0.31348,0.65865 0.61803,1.28151 l 0.55373,1.13247 0.2903,0.28866 c 0.43392,0.43147 0.81214,0.60603 1.49992,0.69227 0.42886,0.0538 0.78879,-0.005 1.50819,-0.24527 0.77261,-0.25831 0.8513,-0.27314 0.94604,-0.17841 0.0915,0.0915 0.0747,0.1655 -0.13175,0.57944 -0.2787,0.55881 -0.65206,1.02791 -1.03739,1.30339 -0.45846,0.32775 -0.50826,0.45331 -0.26979,0.68016 0.21223,0.2019 0.47779,0.28974 0.87864,0.29066 0.54535,0.001 1.14883,-0.20449 2.40218,-0.81894 0.90082,-0.44162 1.47917,-0.78313 2.54246,-1.50131 2.40252,-1.62274 2.75137,-1.83805 3.05883,-1.88795 0.16231,-0.0263 0.18589,0.041 0.0973,0.27781 -0.26359,0.7045 -1.22468,1.95043 -2.44786,3.17334 -0.57706,0.57694 -0.96494,0.9096 -1.95319,1.67518 -1.76294,1.36572 -2.4199,1.92113 -2.85807,2.41631 l -0.29808,0.33686 -0.042,-0.35663 c -0.071,-0.60302 -0.23925,-1.0581 -0.5914,-1.59991 -0.40451,-0.62237 -0.86448,-1.09441 -1.60482,-1.64689 -0.41797,-0.31192 -0.58938,-0.39683 -1.04066,-0.51554 -0.85268,-0.22429 -1.62908,-0.20248 -2.45825,0.069 -0.14466,0.0474 -0.16159,0.0641 -0.16439,0.16241 -0.004,0.12696 -0.21401,0.35925 -0.63177,0.69752 -0.2994,0.24242 -0.37829,0.27021 -0.53579,0.18877 -0.18308,-0.0947 -1.63958,-1.17241 -1.71636,-1.27001 -0.0815,-0.10363 -0.0892,-0.25476 -0.0196,-0.38726 0.0581,-0.11061 0.28338,-0.3314 0.39839,-0.39039 0.10162,-0.0521 0.0775,-0.0889 -0.12621,-0.19202 -0.22869,-0.11581 -0.48692,-0.1874 -0.78013,-0.21629 l -0.25017,-0.0246 0.0918,0.14545 c 0.21694,0.34366 0.23775,0.44679 0.28035,1.38978 0.0244,0.54086 0.0556,0.90509 0.0814,0.9508 0.0946,0.16772 0.34012,0.31856 1.21311,0.74517 0.50486,0.2467 0.98467,0.49074 1.06625,0.54231 0.16915,0.10691 0.25128,0.11559 0.3942,0.0417 0.14957,-0.0773 0.21921,-0.19864 0.40296,-0.7019 0.0915,-0.25074 0.22189,-0.55644 0.28965,-0.67933 0.25571,-0.4638 0.74751,-0.81981 1.28977,-0.93366 0.32527,-0.0683 0.53149,-0.0652 0.91405,0.0138 0.60793,0.12547 1.00908,0.34627 1.68348,0.92661 0.82132,0.70677 1.21817,1.2281 1.64652,2.16302 0.10262,0.22399 0.10438,0.23768 0.10115,0.78904 -0.004,0.63218 -0.0618,0.92403 -0.27232,1.3685 -0.15045,0.31756 -0.57977,0.83245 -0.88427,1.06049 -0.25844,0.19354 -0.58862,0.36984 -0.65984,0.35233 -0.0244,-0.006 -0.27466,-0.25585 -0.55609,-0.55522 -0.59562,-0.63357 -1.5349,-1.49657 -2.55241,-2.34513 -0.22258,-0.18562 -0.22157,-0.18402 0.0537,0.0855 2.15311,2.10846 2.307,2.27892 2.38423,2.64085 0.0517,0.24235 -0.11828,0.56632 -0.29717,0.56632 -0.0331,0 -0.13747,-0.0411 -0.23193,-0.0913 z m 1.31729,-0.70253 c 0.005,-0.28567 -0.69726,-0.82138 -0.90501,-0.69056 -0.13014,0.0819 -0.0858,0.15603 0.33311,0.55607 l 0.41536,0.39667 0.0776,-0.0936 c 0.0427,-0.0515 0.0782,-0.12734 0.0789,-0.16856 z m -5.11833,-5.77271 c 0.0957,-0.15698 0.0874,-0.25119 -0.034,-0.3852 l -0.10375,-0.11452 0.0389,0.12958 c 0.0323,0.10751 0.0289,0.14484 -0.0198,0.21918 -0.10271,0.15675 -0.21517,0.12156 -0.67549,-0.21134 -0.22886,-0.16551 -0.44373,-0.33296 -0.47748,-0.3721 -0.13241,-0.15355 -0.0409,-0.32807 0.1841,-0.35095 l 0.12274,-0.0125 -0.14437,-0.047 c -0.12128,-0.0395 -0.16033,-0.0393 -0.2442,9.8e-4 -0.11775,0.0566 -0.21098,0.2059 -0.17961,0.28763 0.0223,0.058 1.04025,0.83184 1.21258,0.92176 0.15175,0.0792 0.2436,0.0604 0.32037,-0.0655 z m -0.26957,-0.38221 c 0.0269,-0.0427 0.0208,-0.0817 -0.0233,-0.14904 -0.063,-0.0961 -0.14938,-0.12661 -0.11659,-0.0412 0.0106,0.0275 -0.003,0.0681 -0.0291,0.0901 -0.0377,0.0313 -0.0929,0.0106 -0.25183,-0.0946 -0.22604,-0.14959 -0.27138,-0.23923 -0.14544,-0.28758 0.0812,-0.0312 0.0812,-0.0314 -0.0227,-0.0721 -0.12038,-0.0471 -0.264,-0.001 -0.264,0.0846 0,0.0289 0.11441,0.1386 0.25424,0.24381 0.40788,0.30689 0.52094,0.34956 0.59876,0.22597 z m -3.73742,1.90471 c -0.0239,-0.34888 -0.17709,-0.7999 -0.39286,-1.15673 -0.64434,-1.06555 -1.85981,-2.46097 -2.77515,-3.18599 -0.92395,-0.73184 -1.79587,-1.17121 -2.71467,-1.36797 -0.23879,-0.0511 -0.45153,-0.0635 -1.06958,-0.0623 -0.69872,10e-4 -0.81452,0.0105 -1.2274,0.0963 -0.522,0.10846 -0.61568,0.11415 -0.74694,0.0454 -0.33766,-0.1769 -0.53187,-0.6139 -0.53264,-1.19848 -5.2e-4,-0.3907 0.0857,-0.74982 0.26917,-1.1208 0.14224,-0.28766 0.4742,-0.68286 0.64991,-0.77372 0.17612,-0.0911 0.4391,-0.11181 1.0075,-0.0794 0.66053,0.0376 1.11335,0.12002 1.80674,0.3287 0.28873,0.0869 0.52817,0.15799 0.53207,0.15799 0.0486,0 0.15855,-0.68566 0.22777,-1.42026 0.0564,-0.59864 0.0563,-1.84165 -3.5e-4,-2.26191 -0.0906,-0.67388 -0.27507,-1.31339 -0.52084,-1.80603 -0.0673,-0.13501 -0.247,-0.45157 -0.39923,-0.70347 -0.15224,-0.25189 -0.2768,-0.47767 -0.2768,-0.50172 0,-0.0488 0.31182,-0.1981 1.01699,-0.48682 1.16494,-0.47696 2.38646,-0.7902 3.08601,-0.79135 0.66157,-10e-4 0.85153,0.19194 1.06348,1.08063 0.0673,0.28227 0.0751,0.41193 0.0732,1.22739 -0.002,0.76048 -0.015,0.99616 -0.0802,1.42027 -0.27117,1.76348 -0.67156,2.7818 -1.84991,4.70487 -0.16147,0.26353 -0.30253,0.50247 -0.31348,0.53098 -0.0132,0.0345 0.0505,0.10604 0.18991,0.21329 0.11539,0.0888 0.37177,0.31143 0.56973,0.49477 0.19797,0.18333 0.37193,0.33333 0.3866,0.33333 0.0496,0 0.62783,-0.75076 0.97238,-1.26246 0.5455,-0.81013 0.91493,-1.5865 1.31899,-2.77185 0.51772,-1.51882 0.75519,-2.85464 0.75525,-4.24852 2e-5,-0.39357 0.0134,-0.62868 0.0367,-0.64305 0.0597,-0.0369 0.40141,0.24794 0.94786,0.79002 0.87903,0.87199 1.652,1.94403 2.22232,3.08216 0.70968,1.41625 1.02588,2.76673 0.75291,3.21569 -0.12736,0.20948 -0.75477,0.64386 -1.7747,1.2287 -1.1278,0.64669 -2.35665,1.218 -3.53517,1.64353 -0.3086,0.11143 -0.56831,0.20901 -0.57712,0.21684 -0.009,0.008 0.012,0.057 0.0463,0.10926 0.11273,0.17191 0.67843,1.35067 0.81033,1.6885 0.31031,0.79482 0.50152,1.70849 0.4628,2.21144 -0.0308,0.40066 -0.11765,0.76223 -0.25046,1.04328 -0.0661,0.13984 -0.12657,0.25425 -0.13441,0.25425 -0.008,0 -0.0227,-0.12364 -0.0331,-0.27476 z" /></g></svg>
