<svg
   width="32"
   height="32"
   viewBox="0 0 32 32"
   fill="currentColor"
   color="#000">
   <g
     transform="translate(-462,-45.299026)"><path
       d="m 471.00575,75.257456 -3.5665,-11.0211 -2.4073,-14.63778 17.0548,-2.29955 8.8813,6.93031 -1.9245,15.96737 -17.9747,5.10232 -0.063,-0.0416 z m 2.9833,-7.67222 2.7111,-0.68625 0.034,-0.058 -1.4144,-2.63107 -5.0509,1.12415 1.0204,2.9374 2.6999,-0.68624 z m 8.3565,-6.99577 -3.599,-4.54216 -10.0994,1.82791 1.0536,2.57618 5.2985,-1.11978 1.4538,2.51615 z m 3.2897,-5.49431 3.1122,-0.50783 -6.9722,-5.64845 -7.338,0.93711 -7.6345,1.01974 1.1473,2.25333 10.6158,-1.51933 3.9949,3.95991 3.0745,-0.49451 z" /></g></svg>
