<svg
   width="32"
   height="32"
   viewBox="0 0 32 32"
   fill="currentColor"
   color="#000">
   <g
     transform="translate(-672,-45.299026)"><path
       d="m 674.67195,75.222487 c -0.22559,-0.0393 -0.46979,-0.24444 -0.51818,-0.50169 l -0.08,-0.42541 -0.019,-12.77244 c -0.013,-8.74607 0.004,-12.88154 0.0547,-13.11853 0.0935,-0.43941 0.35802,-0.78722 0.72566,-0.95417 0.39476,-0.17927 25.86619,-0.21046 26.29284,-0.0322 0.31409,0.13124 0.65585,0.52289 0.74901,0.85835 0.05,0.18004 0.073,4.35481 0.0722,13.10114 -10e-4,14.21861 0.0331,13.12759 -0.42702,13.5506 -0.42887,0.39427 0.43588,0.37062 -13.54897,0.37062 h -12.86312 z m 17.91072,-1.27038 c -0.0592,-0.15289 -0.59688,-1.39348 -2.32638,-5.36715 -0.92084,-2.11572 -1.07199,-2.60492 -1.01165,-3.27424 0.0719,-0.79799 -0.18318,-0.44925 5.42329,-7.41338 0.59605,-0.74039 0.98514,-1.04428 1.41911,-1.10836 0.13808,-0.0204 1.14272,0.14945 2.47126,0.41778 1.23122,0.24868 2.26314,0.42849 2.29314,0.39957 0.03,-0.0289 0.0457,-1.97175 0.035,-4.31742 -0.0218,-4.74131 0.005,-4.48099 -0.49558,-4.78632 -0.21602,-0.13172 -0.39052,-0.13632 -5.17293,-0.13658 -2.72216,-1.4e-4 -4.94938,0.0105 -4.94938,0.0237 0,0.0132 0.62314,1.05988 1.38476,2.32603 1.61038,2.67719 1.85033,3.23286 1.85497,4.29583 0.004,1.01833 0.0269,0.985 -3.02634,4.49661 -1.47937,1.70148 -2.85898,3.25838 -3.06578,3.45978 -0.98624,0.96046 -2.14824,1.10803 -5.68222,0.72164 -0.7118,-0.0778 -2.4405,-0.26786 -3.84157,-0.42229 -1.40105,-0.15443 -2.58943,-0.28078 -2.64083,-0.28078 -0.14458,0 -0.13755,10.25242 0.007,10.59903 0.2366,0.56625 -0.4978,0.5234 8.97432,0.52369 h 8.41046 z m 7.83174,0.0513 c 0.47857,-0.24747 0.45243,0.16883 0.45243,-7.20426 v -6.64581 l -0.27982,-0.023 c -0.38419,-0.0316 -0.74117,0.0877 -0.95371,0.31877 -0.14827,0.1612 -3.96042,6.97768 -4.47069,7.99402 -0.19268,0.38377 -0.25859,1.11763 -0.14263,1.58811 0.0817,0.33152 0.58823,1.24117 1.73529,3.11642 l 0.58838,0.9619 h 1.43277 c 1.14386,0 1.47415,-0.0214 1.63798,-0.10613 z m -19.39837,-17.08689 c 0.53302,-0.2065 1.23661,-0.77489 5.45185,-4.40417 1.56411,-1.34668 2.42864,-2.13864 2.50092,-2.29096 0.18312,-0.38589 0.14099,-0.79643 -0.13922,-1.35652 l -0.24968,-0.49909 h -6.33308 c -7.09349,0 -6.68408,-0.0293 -6.95299,0.49782 -0.13146,0.25767 -0.13634,0.41123 -0.11894,3.74614 l 0.0181,3.47745 1.60899,0.40529 c 0.88494,0.22291 1.8136,0.45249 2.0637,0.51016 0.62324,0.14374 1.66468,0.10203 2.15031,-0.0861 z" /></g></svg>
