<svg
   width="32"
   height="32"
   viewBox="0 0 32 32"
   fill="currentColor"
   color="#000">
   <g
     transform="translate(-504)"><path
       d="m 530.34245,2.0017805 c -0.035,0.003 -0.072,0.0115 -0.1087,0.0234 l -20.4725,6.49084 c -0.201,0.0637 -0.3748,0.24145 -0.4678,0.45027 -0.045,0.0724 -0.072,0.16313 -0.072,0.27015 v 0.0457 6.5890795 0.0468 c 0,0.10786 0.028,0.19862 0.074,0.27133 0.093,0.20777 0.2664,0.38442 0.4666,0.44793 l 8.6942,2.75773 -8.6942,2.75657 c -0.2982,0.0946 -0.5403,0.43732 -0.5403,0.76486 v 6.63587 c 0,0.32814 0.2421,0.51798 0.5403,0.42337 l 20.4725,-6.49202 c 0.265,-0.0842 0.4856,-0.36502 0.531,-0.65727 0.01,-0.0374 0.013,-0.0769 0.013,-0.11929 v -6.63587 c 0,-0.32754 -0.2422,-0.67026 -0.5404,-0.76486 l -8.6066,-2.72967 8.603,-2.7284895 c 0.2977,-0.0946 0.5403,-0.43733 0.5403,-0.76487 v -6.6347 c 0,-0.28712 -0.1857,-0.46932 -0.4315,-0.44676 z" /></g></svg>
