<svg
   width="32"
   height="32"
   viewBox="0 0 32 32"
   fill="currentColor"
   color="#000">
   <g
     transform="translate(-1092)"><path
       d="m 1110.8611,2.0072507 a 8.9816689,8.9816689 0 0 0 -4.1857,1.22774 l -6.7233,4.15832 a 7.4682081,7.4682081 0 0 0 -3.4838,5.0126393 7.6934255,7.6934255 0 0 0 0.7996,5.06348 7.3651086,7.3651086 0 0 0 -1.1515,2.8035 7.796525,7.796525 0 0 0 1.4017,6.03316 8.9856727,8.9856727 0 0 0 11.8044,2.46136 l 6.7252,-4.15831 a 7.4752149,7.4752149 0 0 0 3.4839,-5.01266 7.6804129,7.6804129 0 0 0 -0.8016,-5.06739 7.355099,7.355099 0 0 0 1.1535,-2.80348 7.7925211,7.7925211 0 0 0 -1.4037,-6.0351193 8.9816689,8.9816689 0 0 0 -7.6187,-3.68324 z m 0.1759,3.17493 a 5.4182295,5.4182295 0 0 1 4.6706,2.22481 4.6835204,4.6835204 0 0 1 0.8484,3.6284993 4.2761272,4.2761272 0 0 1 -0.1603,0.60997 l -0.1271,0.37536 -0.344,-0.23656 a 8.7214177,8.7214177 0 0 0 -2.6295,-1.27467 l -0.2464,-0.0743 0.025,-0.23851 a 1.4393893,1.4393893 0 0 0 -0.2717,-0.9677288 1.6305738,1.6305738 0 0 0 -1.7263,-0.6236405 1.4854337,1.4854337 0 0 0 -0.4125,0.17595 l -6.7272,4.1446193 a 1.3543071,1.3543071 0 0 0 -0.6315,0.90908 1.3953468,1.3953468 0 0 0 0.2425,1.09285 1.6355786,1.6355786 0 0 0 1.7282,0.6217 1.5394859,1.5394859 0 0 0 0.4145,-0.17596 l 2.563,-1.58551 a 4.9047339,4.9047339 0 0 1 1.3665,-0.58259 5.4222334,5.4222334 0 0 1 5.7321,2.06254 4.6855223,4.6855223 0 0 1 0.8446,3.6285 4.5043475,4.5043475 0 0 1 -2.0899,3.01462 l -6.7135,4.15831 a 4.9047339,4.9047339 0 0 1 -1.3666,0.58259 h -0.01 a 5.4182295,5.4182295 0 0 1 -5.7282,-2.06253 4.6825194,4.6825194 0 0 1 -0.8484,-3.6285 4.311161,4.311161 0 0 1 0.1583,-0.60997 l 0.1271,-0.37536 0.3441,0.23851 a 8.7684631,8.7684631 0 0 0 2.6314,1.27467 l 0.2444,0.0743 -0.025,0.23656 a 1.4423922,1.4423922 0 0 0 0.2717,0.96969 1.6315748,1.6315748 0 0 0 1.7459,0.63537 1.5134608,1.5134608 0 0 0 0.4105,-0.174 l 6.7057,-4.1583 a 1.3673197,1.3673197 0 0 0 0.6354,-0.91104 1.4083593,1.4083593 0 0 0 -0.2444,-1.09089 1.6355786,1.6355786 0 0 0 -1.7282,-0.62366 1.5104579,1.5104579 0 0 0 -0.4145,0.17595 l -2.5728,1.58552 a 4.9387668,4.9387668 0 0 1 -1.3665,0.5826 5.4202315,5.4202315 0 0 1 -5.7321,-2.06059 4.6825194,4.6825194 0 0 1 -0.8309,-3.63241 4.5113542,4.5113542 0 0 1 2.0899,-3.01268 l 6.7155,-4.1583093 a 4.9367648,4.9367648 0 0 1 1.3646,-0.58063 5.4182295,5.4182295 0 0 1 1.0635,-0.16423 z" /></g></svg>
