<svg
   width="32"
   height="32"
   viewBox="0 0 32 32"
   fill="currentColor"
   color="#000">
<g>
	<path d="M2.1,2.1v27.8h27.8V2.1H2.1z M21.4,16c0,3-2.4,5.4-5.4,5.4S10.6,19,10.6,16c0-3,2.4-5.4,5.4-5.4S21.4,13,21.4,16z M3.2,3.2
		h12.2v6.3c-1.4,0.1-2.7,0.7-3.7,1.6L9.6,8.9V5.8H5.7v3.9h3.1l2.1,2.1C10,13,9.5,14.4,9.5,16c0,1.6,0.6,3,1.5,4.1l-2.1,2.1H5.7v3.9
		h3.9v-3.1l2.1-2.1c1,0.9,2.3,1.4,3.7,1.6v6.3H3.2V3.2z M28.8,28.8H16.6v-6.3c1.4-0.1,2.7-0.7,3.7-1.6l2.1,2.1v3.1h3.9v-3.9h-3.1
		L21,20.1c0.9-1.1,1.5-2.6,1.5-4.1c0-1.6-0.6-3-1.5-4.1l2.1-2.1h3.1V5.8h-3.9v3.1l-2.1,2.1c-1-0.9-2.3-1.4-3.7-1.6V3.2h12.2V28.8z"
		/>
	<rect x="14.5" y="14.5" width="3.1" height="3.1"/>
</g>
</svg>
