<svg
   width="32"
   height="32"
   viewBox="0 0 32 32"
   fill="currentColor"
   color="#000">
   <g
     transform="translate(-168,-45.299026)"><path
       d="m 184.01644,47.397993 c -0.20903,-3.5e-4 -0.41871,0.002 -0.63126,0.0116 -6.17201,0.25126 -10.76263,4.47786 -12.315,8.69041 h 19.23385 l -1.66749,9.49136 c -0.55488,3.14812 -1.11128,6.303 -1.66976,9.46422 3.1523,-0.67687 5.97135,-2.42376 7.98225,-4.94366 2.01091,-2.51979 3.08975,-5.65705 3.0499,-8.88047 h -7.67679 c 0.30293,-1.71597 0.60197,-3.41445 0.90501,-5.12692 h 5.70386 c -1.66436,-4.40203 -6.43484,-8.69499 -12.91457,-8.70629 z M 170,61.240223 v 0.86202 c 0.0463,0.41171 0.0797,0.83148 0.14027,1.24666 0.4066,2.95386 1.75456,5.69863 3.84632,7.82387 1.85631,1.9202 4.23269,3.2572 6.8374,3.84858 0.28696,0.0677 0.58311,0.11815 0.89144,0.17874 0.82341,-4.66693 1.64183,-9.30535 2.46165,-13.95987 z" /></g></svg>
