<svg
   width="32"
   height="32"
   viewBox="0 0 32 32"
   fill="currentColor"
   color="#000">
   <g
     transform="translate(-840)"><path
       d="M 843.3106,2 C 842.5837,2 842,2.58565 842,3.3125 v 25.375 C 842,29.41435 842.5837,30 843.3106,30 h 25.3769 C 869.4144,30 870,29.41435 870,28.6875 V 3.3125 C 870,2.58565 869.4144,2 868.6875,2 Z m 20.2558,11.37109 a 12.426,12.426 0 0 1 1.9004,0.12891 7.509,7.509 0 0 1 1.5234,0.40039 v 2.86328 a 4.657,4.657 0 0 0 -0.75,-0.42187 5.994,5.994 0 0 0 -0.8359,-0.30078 6.292,6.292 0 0 0 -0.8555,-0.17579 5.942,5.942 0 0 0 -0.8086,-0.0586 4.211,4.211 0 0 0 -0.957,0.0996 2.439,2.439 0 0 0 -0.7246,0.2832 1.4,1.4 0 0 0 -0.459,0.43555 1.039,1.039 0 0 0 -0.1621,0.57226 1.091,1.091 0 0 0 0.1797,0.61719 2.089,2.089 0 0 0 0.5176,0.51758 5.5,5.5 0 0 0 0.8125,0.47851 c 0.32,0.15667 0.68,0.31838 1.08,0.48438 a 12.027,12.027 0 0 1 1.4766,0.73437 5.236,5.236 0 0 1 1.123,0.87696 3.409,3.409 0 0 1 0.7169,1.11718 4.469,4.469 0 0 1 -0.1856,3.39453 3.542,3.542 0 0 1 -1.1816,1.26563 5.11,5.11 0 0 1 -1.7344,0.69922 9.968,9.968 0 0 1 -2.0879,0.21094 11.56,11.56 0 0 1 -2.1465,-0.19141 6.492,6.492 0 0 1 -1.7637,-0.57422 v -3.06836 a 5.874,5.874 0 0 0 1.8047,1.04492 5.773,5.773 0 0 0 1.9688,0.34961 4.377,4.377 0 0 0 1.0176,-0.10547 2.381,2.381 0 0 0 0.7265,-0.29101 1.269,1.269 0 0 0 0.4356,-0.44141 1.1,1.1 0 0 0 0.1445,-0.55273 1.2,1.2 0 0 0 -0.2305,-0.71875 2.463,2.463 0 0 0 -0.6269,-0.58399 6.458,6.458 0 0 0 -0.9414,-0.51758 c -0.3634,-0.166 -0.7558,-0.33643 -1.1758,-0.50976 a 6,6 0 0 1 -2.3945,-1.63867 3.588,3.588 0 0 1 -0.7891,-2.33985 3.731,3.731 0 0 1 0.4316,-1.84375 3.655,3.655 0 0 1 1.17,-1.27148 5.239,5.239 0 0 1 1.7168,-0.73438 8.767,8.767 0 0 1 2.0644,-0.23437 z m -17.6289,0.22266 h 11.1523 v 2.52734 h -4 V 27.375 h -3.1699 V 16.12109 h -3.9824 z" /></g></svg>
