<svg width="27.99992" height="23.705364" viewBox="0 0 27.99992 23.705364" fill="currentColor" color="#FFF" xmlns="http://www.w3.org/2000/svg">
  <g transform="translate(-2.0000458,-4.1473179)">
    <g transform="matrix(1.3333333,0,0,1.3333333,-571.46382,97.671277)">
      <path d="m 440.85129,-70.142707 c -0.55183,-0.0014 -1.10419,0.01228 -1.65558,0.0029 -1.00521,0.248569 -1.98272,1.104397 -1.96469,2.214575 1.16685,0.0071 2.33362,0.0034 3.50047,0.0024 0.002,-0.859037 0.37546,-1.716146 1.11215,-2.192029 -0.33035,-0.02053 -0.66125,-0.02711 -0.99235,-0.02811 z m -8.1547,0.0019 c -0.47491,2.4e-4 -0.94983,0.0038 -1.42475,0.0081 0.57183,0.433381 1.09216,1.038049 1.09989,1.794051 0.005,3.005988 -0.005,6.013243 0.005,9.019227 0.0219,1.588642 0.87264,3.201125 2.32862,3.912696 1.44504,0.774679 3.13603,0.470054 4.70535,0.529944 -2.02717,-0.892521 -3.41361,-3.006603 -3.4735,-5.214729 -0.008,-2.597714 -0.003,-5.196085 -0.002,-7.794446 -0.018,-0.770175 -0.77701,-1.676307 -1.14045,-1.895839 -0.36344,-0.219532 -0.36889,-0.231573 -0.67294,-0.348357 -0.47492,-0.0081 -0.94984,-0.01089 -1.42476,-0.01065 z m -2.59868,0.27214 c 0.007,3.644144 -0.008,7.288274 0.008,10.932419 0.0489,2.884923 2.2429,5.532192 5.04475,6.176792 0.98847,0.235691 2.01426,0.215109 3.02269,0.186774 0.91893,-0.03992 1.71101,-0.853846 1.70199,-1.777921 -1.06188,0.0064 -2.12372,0.0038 -3.1856,0.0014 -1.28276,0.0043 -2.56424,-0.528639 -3.44774,-1.461729 -0.89768,-0.900898 -1.3923,-2.177911 -1.37684,-3.445861 0,-2.962195 0.002,-5.924322 -4.8e-4,-8.887165 -0.007,-0.923432 -0.84159,-1.743848 -1.76632,-1.724533 z m 13.86673,3.79e-4 c -0.36649,-9.6e-4 -0.73295,0.0029 -1.09904,0.0118 -0.86483,0.0805 -1.53772,0.881591 -1.56219,1.735476 1.18746,0.01223 2.37555,-0.01799 3.56236,0.01612 2.3324,0.147467 4.35566,2.194007 4.44452,4.534142 0.018,2.983444 0.004,5.966902 0.007,8.949703 -0.12365,1.045783 0.72447,2.041253 1.78056,2.065726 -0.002,-3.607442 -10e-4,-7.215465 -4.8e-4,-10.822902 -0.0277,-1.167491 -0.35226,-2.334982 -0.97754,-3.324743 -1.07089,-1.760573 -2.99438,-2.988673 -5.05568,-3.14966 -0.36641,-0.0096 -0.73292,-0.01492 -1.09942,-0.01564 z m -0.77803,2.25759 c -0.4643,0.0019 -0.92862,0.0074 -1.39259,0.0055 1.98017,0.942752 3.36153,3.008622 3.4285,5.207085 0.0335,2.376843 0.004,4.755637 0.0142,7.133765 0.0116,0.474598 -0.0637,0.974298 0.13847,1.422494 0.31168,0.84487 1.16427,1.451495 2.06516,1.472106 0.79593,0.0077 1.59249,-0.0065 2.38842,0.0058 -0.5435,-0.387016 -0.97367,-0.997538 -1.0297,-1.673692 -0.003,-2.705254 -5e-5,-5.411722 -0.002,-8.117624 0.0116,-0.835207 -0.0128,-1.68914 -0.27233,-2.490864 -0.54929,-1.664624 -2.19653,-2.885552 -3.94552,-2.945441 -0.46397,-0.01838 -0.92829,-0.02073 -1.39259,-0.01905 z m -2.79253,1.388718 c -0.0161,0.379934 -0.13587,0.746402 -0.33035,1.072242 -0.52547,0.907336 -1.06703,1.804952 -1.60473,2.705845 -0.30008,0.550583 -0.71022,1.065137 -0.79265,1.706517 -0.19384,0.991046 0.48066,1.969158 1.2328,2.560954 -0.0251,-0.541564 0.0908,-1.087633 0.37411,-1.552569 0.69483,-1.191316 1.41089,-2.369137 2.10572,-3.55981 0.33679,-0.567323 0.35228,-1.317607 -0.0135,-1.875272 -0.24277,-0.383797 -0.68743,-0.706951 -0.97141,-1.057907 z m 1.74284,1.775945 c 0.0309,0.520958 -0.0702,1.054155 -0.35478,1.497199 -0.67035,1.112754 -1.32786,2.233923 -1.98856,3.352473 -0.52289,0.695469 -0.5435,1.726408 0.067,2.376161 0.31811,0.333569 0.578,0.607369 0.92187,0.915184 0.0483,-0.345161 0.12422,-0.694246 0.30968,-0.994328 0.68904,-1.180372 1.3903,-2.352983 2.07676,-3.535284 0.46301,-0.729601 0.44889,-1.723837 0.002,-2.457947 -0.28462,-0.470089 -0.66237,-0.756779 -1.03394,-1.153458 z m -1.69964,9.889318 c -10e-4,0.855818 -0.36261,1.69424 -1.07611,2.191372 0.78369,-0.0083 1.56803,0.0014 2.35173,-0.0038 1.14688,-0.01996 2.24419,-1.009709 2.22552,-2.187505 -1.16685,0 -2.3343,-4.8e-4 -3.50114,0 z" />
    </g>
  </g>
</svg>
