<svg
   width="32"
   height="32"
   viewBox="0 0 32 32"
   fill="currentColor"
   color="#000">
   <g
     transform="translate(-630,-45.299026)"><path
       d="m 644.99818,75.266485 c -0.106,-0.0146 -0.4531,-0.0583 -0.7712,-0.097 -6.96,-0.84672 -12.2097,-6.81366 -12.2097,-13.87765 0,-8.92428 8.1729,-15.53263 16.9189,-13.67997 7.5271,1.59447 12.3425,9.0482 10.7382,16.62174 -1.1118,5.24848 -5.2192,9.43953 -10.4664,10.67939 -1.1743,0.27747 -3.4037,0.46465 -4.2098,0.35345 z m 2.7637,-2.3443 c 4.7477,-0.74021 8.5676,-4.50348 9.4923,-9.35157 0.2671,-1.40034 0.2087,-3.82478 -0.1214,-5.04243 -1.0532,-3.88425 -3.8496,-5.02269 -6.3149,-2.57081 -1.1362,1.12997 -1.9884,2.62498 -3.7004,6.49139 -1.996,4.50771 -2.857,5.82178 -4.1276,6.29984 -1.3914,0.52348 -3.0746,-0.95374 -4.6126,-4.04811 -2.4099,-4.84867 -2.6152,-10.19587 -0.5077,-13.22613 0.3874,-0.55702 0.2885,-0.50546 -0.4931,0.25709 -3.2352,3.15619 -4.5166,7.63007 -3.4285,11.97061 1.548,6.17503 7.569,10.19376 13.8139,9.22012 z m -5.3241,-7.75466 c 0.3636,-0.23821 0.9731,-1.28262 1.7555,-3.00798 0.2244,-0.4949 0.5046,-1.1116 0.6225,-1.37047 0.118,-0.25887 0.2146,-0.48128 0.2146,-0.49426 0,-0.0694 1.1176,-2.29835 1.4982,-2.98779 2.2052,-3.99556 4.6541,-5.82392 7.3912,-5.51834 0.3152,0.0352 0.6462,0.0918 0.7354,0.12569 0.2732,0.10388 0.2271,0.0319 -0.2573,-0.40125 -2.5397,-2.27109 -5.4417,-3.35106 -8.7248,-3.24685 -4.6861,0.14874 -7.1342,2.7203 -7.1342,7.49407 0,2.9621 1.1758,6.88025 2.6538,8.84314 0.5385,0.71517 0.8199,0.84265 1.2451,0.56404 z m 2.7854,-13.57905 c -1.8873,-0.18039 -2.9198,-0.82243 -2.2927,-1.42571 0.894,-0.86013 4.7788,-1.00826 6.3816,-0.24334 0.7934,0.37866 0.7789,0.7884 -0.042,1.20129 -0.7869,0.39558 -2.6041,0.60563 -4.0466,0.46776 z" /></g></svg>
