<svg
   width="32"
   height="32"
   viewBox="0 0 32 32"
   fill="currentColor"
   color="#000">
   <g
     transform="translate(-756,-45.299026)"><g
       transform="matrix(0.99993041,0,0,0.99993041,756.00074,45.298226)"><path
         d="M 18.536504,2.32125 1.9993944,4.8720312 V 27.13375 l 16.5371096,2.548828 v -2.546875 h 1.175781 c 2.791997,-0.001 5.58105,-0.0042 8.373047,0.0098 0.281,-0.013 0.758922,-0.0079 1.044922,-0.04687 0.510999,-0.069 0.739359,-0.166782 0.818359,-0.675782 0.062,-0.398999 0.03273,-1.117578 0.05273,-1.517578 -0.045,-6.266993 0.0208,-12.892209 -0.0332,-19.1582028 A 0.783,0.783 0 0 0 29.056035,4.8876562 C 25.655038,4.8336563 21.9365,4.887125 18.536504,4.868125 V 2.3232031 Z m 0,3.5 h 10.5 v 20.359375 h -10.5 v -2.544922 h 8.269531 v -1.273437 h -8.269531 v -1.589844 h 8.269531 v -1.271485 h -8.269531 v -1.591796 h 8.269531 v -1.271485 h -8.269531 v -1.589844 h 8.269531 v -1.273437 h -8.269531 v -1.589844 h 8.269531 V 10.911094 H 18.536504 V 9.32125 h 8.269531 V 8.0478125 h -8.269531 z m -3.789063,5.246094 c -0.718999,3.081997 -1.349766,6.189909 -2.134765,9.253906 -0.531,0.277 -1.325079,-0.01375 -1.955079,0.03125 C 10.234598,18.246502 9.7416752,16.152045 9.3626756,14.038047 8.990676,16.099045 8.5054721,18.132768 8.0794725,20.174766 7.4688064,20.142766 6.8569146,20.105437 6.2415819,20.063437 5.7135824,17.26344 5.0939564,14.484669 4.6009569,11.678672 c 0.5439994,-0.025 1.0907661,-0.04741 1.6347656,-0.06641 0.3279997,2.025998 0.6983753,4.043267 0.984375,6.072265 0.4479996,-2.079998 0.9085161,-4.162189 1.3535156,-6.242187 0.5999994,-0.035 1.2085006,-0.0598 1.8124999,-0.0918 0.423,2.146998 0.856454,4.29169 1.314453,6.429687 0.359,-2.207997 0.755626,-4.409283 1.140625,-6.613281 a 57.415,57.415 0 0 0 1.90625,-0.09961 z" /></g></g></svg>
