<svg
   width="32"
   height="32"
   viewBox="0 0 32 32"
   fill="currentColor"
   color="#000">
   <g
     transform="translate(-84,-45.299026)"><path
       d="m 111.04717,55.261526 c 0.98,1.79317 1.53767,3.85 1.53767,6.0375 0,4.64217 -2.51534,8.69867 -6.25684,10.87917 l 3.84417,-11.11484 c 0.7175,-1.79666 0.95667,-3.23283 0.95667,-4.508 0,-0.4725 -0.0303,-0.91 -0.0817,-1.295 m -9.31117,0.1225 c 0.75483,-0.035 1.43733,-0.1225 1.43733,-0.1225 0.679,-0.0875 0.59967,-1.085 -0.0782,-1.04883 0,0 -2.0475,0.1575 -3.360001,0.1575 -1.24134,0 -3.325,-0.175 -3.325,-0.175 -0.6825,-0.035 -0.77117,0.9975 -0.0875,1.0325 0,0 0.63,0.0712 1.3125,0.105 l 1.96,5.3725 -2.765,8.26 -4.58384,-13.615 c 0.75717,-0.035 1.43967,-0.11667 1.43967,-0.11667 0.6825,-0.0875 0.602,-1.085 -0.0758,-1.04533 0,0 -2.037,0.161 -3.353,0.161 -0.23334,0 -0.511,-0.009 -0.805,-0.0175 2.27733,-3.3565 6.15533,-5.614 10.54783,-5.614 3.277171,0 6.259171,1.25067 8.500331,3.30517 -0.0537,-0.004 -0.10616,-0.0105 -0.1645,-0.0105 -1.23666,0 -2.114,1.07683 -2.114,2.233 0,1.03833 0.5985,1.91683 1.23667,2.95283 0.4795,0.84 1.03833,1.91683 1.03833,3.47317 0,1.0675 -0.413,2.32633 -0.95783,4.05883 l -1.25417,4.1825 -4.55,-13.545 z m -1.736001,18.49751 c -1.2355,0 -2.42783,-0.1785 -3.556,-0.50984 l 3.776501,-10.97367 3.8675,10.60151 c 0.028,0.0618 0.0583,0.11783 0.091,0.17383 -1.30667,0.4585 -2.7125,0.7105 -4.179001,0.7105 M 87.412834,61.299026 c 0,-1.82467 0.392,-3.55833 1.090834,-5.12167 l 6.001331,16.44884 c -4.19533,-2.0405 -7.090998,-6.34434 -7.092165,-11.32717 m 12.587165,-14 c -7.7175,0 -13.999998,6.2825 -13.999998,14 0,7.7175 6.282498,14 13.999998,14 7.717501,0 14.000001,-6.2825 14.000001,-14 0,-7.7175 -6.2825,-14 -14.000001,-14" /></g></svg>
