<svg
   width="32"
   height="32"
   viewBox="0 0 32 32"
   fill="currentColor"
   color="#000">
   <g
     transform="translate(-126)"><path
       
       d="m 128.00097,2.08594 v 27.82812 h 27.99806 V 2.08594 Z m 2.34571,2.33203 h 23.30664 v 23.16406 h -23.30664 z m 11.84962,5.04687 -1.66993,0.002 h -0.0254 c -0.18273,0 -0.21026,0.0359 -0.27539,0.16797 l -1.63867,3.49805 c -0.0796,0.17731 -0.5161,1.1984 -0.5957,1.26172 -0.17188,-0.42517 -0.38201,-0.8364 -0.56836,-1.25977 l -1.19727,-2.52148 c -0.10855,-0.20626 -0.19179,-0.41666 -0.29492,-0.6211 -0.0561,-0.11217 -0.10545,-0.20604 -0.1543,-0.3164 -0.0688,-0.15379 -0.0592,-0.20899 -0.26367,-0.20899 l -1.91211,0.002 c -0.28405,0.002 -0.314,0.0105 -0.18554,0.28906 0.0923,0.20083 0.23059,0.4457 0.28125,0.54883 0.14112,0.28224 0.27865,0.5456 0.41796,0.82422 l 2.26954,4.51953 c 0.0669,0.13208 0.19223,0.2809 0.1289,0.42383 l -3.18555,6.08203 c -0.076,0.15017 -0.24521,0.32617 0.0605,0.32617 h 1.88867 c 0.26777,0 0.27134,-0.14206 0.4414,-0.50391 l 2.16211,-4.52929 c 0.14836,0.13026 1.91482,3.96416 2.34181,4.83984 0.0742,0.15198 0.0915,0.19336 0.30859,0.19336 0.30576,0 1.98742,0.0356 2.14844,-0.0332 0.0344,-0.1773 -0.27087,-0.66601 -0.36134,-0.83789 l -0.83984,-1.60938 c -0.66399,-1.27733 -1.42462,-2.82896 -2.09766,-4.04297 -0.13749,-0.24787 -0.0848,-0.23506 0.22462,-0.80859 0.15017,-0.27863 0.27562,-0.53387 0.42578,-0.8125 0.13751,-0.25872 0.27656,-0.52339 0.41406,-0.79297 l 1.26172,-2.42978 c 0.1176,-0.22254 0.6774,-1.21578 0.77149,-1.54687 0.0307,-0.11036 -0.15099,-0.10352 -0.28125,-0.10352 z m 6.56835,0.002 c -0.24967,0 -0.17773,0.1532 -0.17773,0.67969 v 2.58203 l -0.76562,-0.0156 c -1.47092,0 -2.70153,0.71012 -3.36915,1.41211 -0.68751,0.7237 -1.33203,2.02229 -1.33203,3.45703 0,1.57043 0.29014,2.71389 1.13868,3.70898 0.60067,0.70742 1.76831,1.35352 3.17773,1.35352 0.73635,0 1.27211,-0.0388 1.99218,-0.23242 0.35099,-0.0959 1.14755,-0.35605 1.35742,-0.53516 0.0253,-0.13389 -0.0299,-0.51954 -0.0371,-0.69141 -0.0253,-0.71284 -0.008,-1.66525 -0.006,-2.39257 l 0.002,-9.0918 c 0.002,-0.18093 0.0103,-0.23438 -0.17969,-0.23438 z m -0.88671,5.05274 c 0.22841,0.002 0.46444,0.037 0.70507,0.11523 l 0.004,5.99219 c -1.88342,0.54277 -3.2832,-0.61745 -3.2832,-2.80664 0,-0.78883 0.082,-1.53898 0.52344,-2.20117 0.0923,-0.14112 0.24662,-0.34942 0.35156,-0.44531 0.40437,-0.36502 1.01397,-0.66075 1.69922,-0.6543 z" /></g></svg>
